<svg xmlns="http://www.w3.org/2000/svg" width="994" height="987" fill="none"><g clip-path="url(#a)"><mask id="b" width="128" height="128" x="433" y="0" maskUnits="userSpaceOnUse" style="mask-type:luminance"><path fill="#fff" d="M560.6 127.768H433.3V.468h127.3v127.3z"/></mask><g mask="url(#b)"><path fill="url(#c)" d="M433.3 37.568c0-20.5 16.6-37.1 37.1-37.1h53c20.6-.1 37.3 16.6 37.3 37.1v53c0 20.5-16.7 37.2-37.2 37.2h-53c-20.5 0-37.2-16.7-37.2-37.2v-53z"/><mask id="d" width="88" height="94" x="453" y="17" maskUnits="userSpaceOnUse" style="mask-type:luminance"><path fill="#fff" d="M540.7 110.468h-87.3v-92.8h87.3v92.8z"/></mask><g fill="#fff" mask="url(#d)"><path d="M497 37.167c9.2 0 16.7-4.4 16.7-9.7 0-5.4-7.5-9.7-16.7-9.7s-16.7 4.4-16.7 9.7c0 5.3 7.5 9.7 16.7 9.7zm0 73.301c9.2 0 16.7-4.4 16.7-9.7 0-5.4-7.5-9.7-16.7-9.7s-16.7 4.4-16.7 9.7c0 5.3 7.5 9.7 16.7 9.7zm-23.3-59.9c4.6-8 4.6-16.7-.1-19.4-4.7-2.7-12.2 1.6-16.8 9.6-4.6 8-4.6 16.7.1 19.4 4.6 2.7 12.2-1.6 16.8-9.6zm63.5 36.7c4.6-8 4.6-16.7-.1-19.4-4.7-2.7-12.2 1.6-16.8 9.6-4.6 8-4.6 16.7.1 19.4 4.6 2.7 12.1-1.6 16.8-9.6zm-63.6 9.6c4.7-2.7 4.7-11.4.1-19.4-4.6-8-12.1-12.3-16.8-9.6-4.7 2.7-4.7 11.4-.1 19.4 4.6 8 12.2 12.3 16.8 9.6zm63.5-36.6c4.7-2.7 4.7-11.4.1-19.4-4.6-8-12.1-12.3-16.8-9.6-4.7 2.7-4.7 11.4-.1 19.4 4.6 7.9 12.2 12.2 16.8 9.6z"/></g></g></g><g clip-path="url(#e)"><mask id="f" width="164" height="164" x="268" y="8" maskUnits="userSpaceOnUse" style="mask-type:luminance"><path fill="#fff" d="m431.625 128.082-119.624 43.537-43.537-119.624L388.088 8.458l43.537 119.624z"/></mask><g mask="url(#f)"><path fill="url(#g)" d="M281.153 86.858c-7.011-19.264 2.91-40.54 22.174-47.551l49.804-18.126c19.324-7.14 40.728 2.842 47.739 22.106l18.126 49.804c7.011 19.264-2.97 40.668-22.234 47.679l-49.804 18.126c-19.264 7.011-40.668-2.97-47.679-22.234l-18.126-49.804z"/><path fill="#fff" d="m378.668 84.037 13.156-4.788c.282-.102.53-.299.709-.683.119-.257.205-.607.068-.983l-3.42-9.397c-.103-.282-.333-.624-.684-.709-.256-.12-.7-.17-.982-.068l-18.512 6.737-26.339-27.34c-.197-.248-.453-.368-.803-.453-.351-.085-.667-.077-.949.026l-11.84 4.31c-.282.102-.529.298-.743.589-.213.29-.333.547-.324.863l-2.604 37.874-18.418 6.704c-.188.068-.282.102-.436.264a1.36 1.36 0 0 0-.273.42c-.06.127-.086.35-.146.478-.025.222.009.316.078.504l3.454 9.491c.102.282.333.623.683.709.257.119.701.17.983.068l13.156-4.788-2.562 37.114c-.025.222.043.41.111.598.069.188.231.341.394.495.162.154.384.179.512.239.222.026.445.051.633-.017l10.524-3.83c.282-.103.53-.3.743-.59.214-.291.333-.547.325-.863l5.131-73.912 51.37 53.135c.197.248.487.462.803.453.351.085.667.077.949-.026l10.524-3.83c.188-.069.342-.231.496-.393.154-.163.213-.291.333-.547.025-.222.051-.445-.017-.632-.069-.188-.137-.376-.3-.53l-25.783-26.692z"/></g></g><g clip-path="url(#h)"><mask id="i" width="180" height="181" x="131" y="74" maskUnits="userSpaceOnUse" style="mask-type:luminance"><path fill="#fff" d="m310.535 172.483-97.512 81.828-81.828-97.512 97.511-81.828 81.829 97.512z"/></mask><g mask="url(#i)"><path fill="url(#j)" d="M155.042 185.218c-13.177-15.703-11.132-39.089 4.571-52.267l40.598-34.068c15.715-13.318 39.242-11.26 52.42 4.442l34.068 40.598c13.178 15.703 11.12 39.23-4.583 52.407l-40.598 34.069c-15.703 13.177-39.23 11.12-52.407-4.583l-34.069-40.598z"/><path fill="#fff" fill-rule="evenodd" d="M223.376 208.157c-13.262.686-26.647-4.53-35.903-15.561-15.491-18.46-13.089-45.932 5.372-61.423 15.243-12.792 39.515-17.625 55.197-7.027-17.556-11.898-41.47-11.15-58.476 3.12-20.605 17.292-23.291 48.003-6 68.609 17.292 20.605 48.004 23.291 68.609 6 20.605-17.292 23.291-48.004 6-68.609l-1.671-1.992-2.069 1.736-.306.257-.996.836c-.842.707-2.132 1.659-3.64 2.663-2.95 2.084-6.553 4.324-9.405 5.281-4.745 1.502-8.279 1.335-12.3 1.054l-.282-.025c-4.098-.216-8.683-.546-14.784 1.05-6.102 1.595-10.53 5.964-13.475 9.61a56.29 56.29 0 0 0-3.414 4.954c-.344.68-.675 1.219-.853 1.629a141.063 141.063 0 0 0-3.151 6.822s4.218-1.973 6.353-2.851c.077-.065.218-.052.371-.181.294-.116.805-.284 1.394-.517 1.24-.388 2.839-.816 4.631-1.014 2.802-.394 5.62-.148 7.711 1.1-3.456 3.814-5.642 8.521-6.973 12.379-.773 2.346-1.381 4.422-1.734 6.024a38.237 38.237 0 0 1-.378 1.883c-.242.334-1.194 6.355-1.194 6.355s4.905-3.333 7.512-4.738c1.713-.915 4.09-2.126 6.878-3.16 2.711-.97 5.627-1.85 8.417-2.103 2.79-.253 5.314.11 7.276 1.204 5.824 3.207 7.843 9.345 6.428 14.971-1.556 5.613-6.48 10.79-15.145 11.664zm17.678-4.913a17.715 17.715 0 0 0 2.324-5.475c2.022-7.702-.773-16.321-8.906-20.724-3.181-1.768-6.767-2.153-10.133-1.808-3.431.267-6.782 1.252-9.723 2.414-1.982.75-3.758 1.588-5.241 2.31.202-.692.405-1.384.684-2.14 1.509-4.269 3.848-9.104 7.525-12.189 5.515-4.629 10.989-6.35 16.438-7.79a9.217 9.217 0 0 1 1.523-.364c4.873-1.348 10.028-2.672 14.241-6.207 4.137-3.471 6.39-7.32 7.583-10.41 11.905 18.076 8.61 42.773-8.472 57.107-2.451 2.057-5.16 3.808-7.843 5.276zm10.121-61.363c-1.005 1.758-2.51 3.543-4.655 5.342-3.37 2.829-7.361 3.828-12.452 5.228-.435.104-.947.273-1.382.377-5.091 1.4-10.846 3.097-16.619 7.419-3.851-3.034-8.666-3.172-12.326-2.711-.358.04-.793.144-1.152.183.166-.269.396-.462.561-.731 2.639-3.39 6.264-6.693 10.767-7.86 5.308-1.452 9.188-1.184 13.274-.827l.141.012c4.162.293 8.542.535 14.169-1.316 3.222-1.137 6.736-3.172 9.674-5.116z" clip-rule="evenodd"/></g></g><g clip-path="url(#k)"><mask id="l" width="174" height="175" x="38" y="191" maskUnits="userSpaceOnUse" style="mask-type:luminance"><path fill="#fff" d="m211.936 255.63-63.65 110.242-110.242-63.65 63.65-110.242 110.242 63.65z"/></mask><g mask="url(#l)"><path fill="url(#m)" d="M70.173 320.772c-17.753-10.25-23.829-32.926-13.579-50.679l26.5-45.898c10.214-17.889 33.026-24.001 50.779-13.751l45.898 26.5c17.753 10.25 23.865 33.062 13.615 50.815l-26.5 45.898c-10.25 17.753-33.062 23.865-50.815 13.615l-45.898-26.5z"/><path fill="#fff" fill-rule="evenodd" d="M79.559 296.516c-9.786-25.049 2.62-53.335 27.668-63.121 25.049-9.786 53.335 2.62 63.121 27.668 9.823 25.186-2.533 53.385-27.718 63.208-25.049 9.786-53.248-2.57-63.071-27.755zm21.921-31.568c-3.102-8.026.845-17.063 8.872-20.165 8.026-3.102 17.063.845 20.165 8.871 3.239 7.99-.709 17.027-8.735 20.129-8.076 3.189-17.063-.845-20.302-8.835z" clip-rule="evenodd"/></g></g><g clip-path="url(#n)"><mask id="o" width="148" height="148" x="0" y="345" maskUnits="userSpaceOnUse" style="mask-type:luminance"><path fill="#fff" d="m147.718 367.478-22.099 125.365-125.365-22.1 22.099-125.365 125.365 22.1z"/></mask><g mask="url(#o)"><path fill="url(#p)" d="M36.79 477.184c-20.19-3.559-33.655-22.788-30.096-42.977l9.201-52.194c3.478-20.304 22.823-33.851 43.011-30.292l52.195 9.2c20.188 3.559 33.735 22.904 30.176 43.093l-9.2 52.194c-3.559 20.189-22.905 33.736-43.093 30.177l-52.194-9.201z"/><path fill="#fff" d="m113.416 380.622-11.916-2.1-24.292 16.838-2.17 12.31 38.378-27.048zM35.46 457.657l11.916 2.101 24.193-16.856 2.17-12.31-38.28 27.065zm-10.812-12.974 2.1-11.916 24.014-16.989-16.774-24.077 2.204-12.507L63.09 417.85l-38.441 26.833zm87.224 13.244 2.1-11.916-16.757-24.176 23.997-16.89 2.204-12.507-38.51 27.227 26.966 38.262zm-30.425-37.653c.52-2.955-1.507-5.851-4.462-6.372-2.954-.52-5.85 1.508-6.37 4.462-.522 2.954 1.506 5.85 4.46 6.371 2.955.521 5.851-1.507 6.372-4.461z"/></g></g><g clip-path="url(#q)"><mask id="r" width="148" height="149" x="0" y="494" maskUnits="userSpaceOnUse" style="mask-type:luminance"><path fill="#fff" d="m125.636 494.553 22.099 125.365L22.37 642.017.271 516.652l125.365-22.099z"/></mask><g mask="url(#r)"><path fill="url(#s)" d="M58.906 635.577c-20.188 3.558-39.417-9.907-42.976-30.096l-9.201-52.194c-3.675-20.27 9.872-39.615 30.06-43.174l52.195-9.201c20.189-3.558 39.534 9.989 43.093 30.177l9.2 52.194c3.559 20.189-9.988 39.534-30.176 43.093l-52.195 9.201z"/><path fill="#fff" fill-rule="evenodd" d="M35.74 579.041c-.904 3.51-.28 7.055 1.719 9.749l20.883 30.335c.504 1.13 1.894 2.103 3.475 2.434 3.215.956 6.5-1.146 7.16-4.309l13.855-55.04c.905-3.51.28-7.055-1.718-9.749l-20.536-30.092c-.932-1.257-2.288-2.033-3.77-2.381-3.215-.957-6.5 1.145-7.161 4.308L35.74 579.041zm43.503-59.657c.661-3.163 3.946-5.265 6.865-4.257 1.483.348 2.838 1.125 3.77 2.382l20.536 30.091c1.998 2.694 2.623 6.239 1.719 9.75l-13.808 54.727c-.661 3.163-3.946 5.265-6.814 4.552-.741-.174-1.5-.447-2.195-.933-.695-.487-1.193-1.008-1.627-1.744l-11.368-16.68 8.828-33.44c1.345-5.618.795-8.161-2.175-12.918l-8.803-13.07 5.072-18.46z" clip-rule="evenodd"/><path fill="#E60A7A" d="M95.443 629.136 89.002 592.6a15.875 15.875 0 0 1 12.898-18.418l36.536-6.441 5.521 31.317c2.031 11.522-5.676 22.527-17.198 24.558l-31.316 5.52z"/><mask id="t" width="42" height="39" x="96" y="579" maskUnits="userSpaceOnUse" style="mask-type:luminance"><path fill="#fff" d="m131.488 579.018 5.764 32.695-34.862 6.146-5.764-32.696 34.862-6.145z"/></mask><g fill="#fff" mask="url(#t)"><path d="M106.877 600.11c-.608-3.446-2.785-6.007-4.755-5.66-1.97.347-3.14 3.498-2.533 6.945.608 3.447 2.785 6.008 4.755 5.66 1.97-.347 3.158-3.399 2.533-6.945zm27.476-4.843c-.608-3.447-2.785-6.007-4.755-5.66-1.97.347-3.14 3.498-2.533 6.945.608 3.447 2.786 6.007 4.755 5.66 1.97-.347 3.158-3.4 2.533-6.945zm-20.909 12.723c-3.267-1.252-6.615-.662-7.287 1.284-.673 1.947 1.389 4.426 4.755 5.661 3.266 1.252 6.597.563 7.287-1.285.672-1.946-1.488-4.408-4.755-5.66zm9.586-26.263c-3.267-1.251-6.615-.661-7.287 1.285-.673 1.946 1.389 4.426 4.755 5.661 3.365 1.234 6.615.661 7.287-1.285.69-1.848-1.488-4.409-4.755-5.661zm7.747 23.207c-1.298-1.599-4.547-1.026-7.288 1.285-2.74 2.311-3.83 5.346-2.532 6.945 1.297 1.599 4.547 1.026 7.287-1.285 2.758-2.212 3.929-5.363 2.533-6.945zm-17.873-21.32c-1.297-1.599-4.547-1.026-7.287 1.285-2.642 2.293-3.83 5.346-2.533 6.945 1.297 1.599 4.547 1.026 7.288-1.285 2.642-2.293 3.812-5.444 2.532-6.945z"/></g></g></g><g clip-path="url(#u)"><mask id="v" width="174" height="175" x="38" y="621" maskUnits="userSpaceOnUse" style="mask-type:luminance"><path fill="#fff" d="m148.336 621.512 63.65 110.241-110.242 63.65-63.65-110.241 110.242-63.65z"/></mask><g mask="url(#v)"><path fill="url(#w)" d="M133.873 776.853c-17.753 10.25-40.429 4.175-50.679-13.578l-26.5-45.898c-10.386-17.79-4.274-40.602 13.479-50.852l45.898-26.5c17.753-10.25 40.565-4.138 50.815 13.615l26.5 45.898c10.25 17.753 4.138 40.565-13.615 50.815l-45.898 26.5z"/><path fill="#fff" fill-rule="evenodd" d="M167.074 726.162c-3.883 5.475-8.885 10.21-15.12 13.81-22.603 13.05-51.512 5.378-64.512-17.138-7.25-12.557-8.035-27.115-3.415-39.713l-6.324-2.353c-5.269 14.473-4.364 31.04 3.936 45.416 14.9 25.806 47.908 34.577 73.715 19.677 7.101-4.1 12.869-9.509 17.244-15.73l-5.524-3.969zm-10.872-43.028c8.85 15.328 3.53 34.912-11.798 43.762-15.329 8.85-34.949 3.666-43.799-11.662-4.9-8.487-5.403-18.358-2.291-26.967l-6.324-2.354c-3.81 10.399-3.137 22.365 2.813 32.671 10.7 18.532 34.418 24.814 52.951 14.114 18.532-10.7 24.95-34.382 14.25-52.914l-5.802 3.35zm-14.635 8.45c-2.35-4.071-6.219-6.571-10.477-7.346l2.933-7.12c5.774 1.4 10.925 5.123 14.125 10.666 6.3 10.911 2.517 24.758-8.394 31.058-10.912 6.3-24.795 2.653-31.095-8.258-3.5-6.062-3.829-13.032-1.686-19.119l7.144 2.573c-1.458 4.075-1.227 8.675 1.123 12.746 4.2 7.274 13.489 9.763 20.764 5.563 7.274-4.2 9.763-13.489 5.563-20.763z" clip-rule="evenodd"/></g></g><g clip-path="url(#x)"><mask id="y" width="180" height="180" x="131" y="733" maskUnits="userSpaceOnUse" style="mask-type:luminance"><path fill="#fff" d="m213.1 733.05 97.511 81.829-81.828 97.512-97.512-81.829L213.1 733.05z"/></mask><g mask="url(#y)"><path fill="url(#z)" d="M249.224 888.032c-11.313 13.482-31.318 15.231-44.8 3.918l-48.794-40.947c-13.482-11.313-15.231-31.318-3.918-44.8l40.946-48.794c11.314-13.481 31.319-15.231 44.8-3.917l48.795 40.946c13.481 11.313 15.231 31.318 3.917 44.8l-40.946 48.794z"/><path fill="#fff" d="M239.329 790.308c4.71 4.344 9.548 8.534 14.399 12.866 5.31 4.717 10.62 9.434 15.853 14.086.536.45.932.913 1.468 1.363.306.257.254.474.061.704-.309.524-.835.996-1.463 1.122-13.36 5.498-26.861 11.008-40.221 16.506-6.988 2.883-13.976 5.765-21.04 8.583-.141.012-.205.089-.41.178-.539.331-.769.138-1.1-.401-1.87-3.527-3.804-6.978-5.739-10.429-5.318-9.684-10.637-19.369-15.879-28.99-.165-.269-.331-.539-.291-.897-.025-.282.015-.64.067-.858.232-.588.388-1.24.608-1.969.435.104.472.526.561.731 7.382 12.983 14.751 25.824 22.132 38.807.497.808.497.808 1.394.517 19.193-7.783 38.463-15.501 57.593-23.207.346-.102.615-.267.949-.509-11.016-9.897-21.967-19.87-32.982-29.766 1.357.094 2.674.547 3.67 1.382.217.052.294.117.37.181zm-7.572-2.177c4.71 4.344 9.355 8.764 13.988 13.043l13.899 12.839c1.161 1.105 2.323 2.21 3.548 3.238.307.257.549.591.932.913-.475.254-.821.355-1.231.533-15.437 6.106-30.732 12.199-46.104 18.228-1.782.723-3.705 1.459-5.552 2.26-.82.355-.82.355-1.317-.453l-15.007-25.518c-2.661-4.451-5.245-8.839-7.906-13.291-.165-.269-.331-.539-.355-.821a3.02 3.02 0 0 1 .067-.857c.296-.665.376-1.382.596-2.111.511.168.548.591.714.86 7.92 12.652 15.776 25.38 23.556 38.043.496.809.573.873 1.393.517l45.308-17.59c.141-.012.205-.089.269-.165l.193-.23-32.541-31.224c.18-.371.41-.178.563-.049 1.088.26 2.111.596 3.122.791.575.092 1.099.401 1.635.851l.23.193zm35.867 35.973c-.658 1.406-1.888 1.939-3.184 2.549-19.579 8.243-39.222 16.561-58.801 24.804-1.231.533-1.231.533-1.829-.621-6.613-13.121-13.367-26.229-20.12-39.337a2.181 2.181 0 0 1-.292-.898c-.024-.281.015-.64.132-.934.232-.588.4-1.099.492-1.675.358.039.306.257.46.385l20.913 39.481c.585 1.014.585 1.014 1.611.569a34366.586 34366.586 0 0 1 60.673-25.322c.205-.089.398-.319.909-.15a3.772 3.772 0 0 0-.964 1.149zm-46.113-38.697c1.48 1.503 2.96 3.006 4.504 4.433 2.106 2.158 4.198 4.175 6.368 6.257 2.093 2.017 4.198 4.175 6.291 6.193 2.105 2.158 4.351 4.304 6.456 6.462 2.093 2.017 4.198 4.175 6.227 6.269a16.554 16.554 0 0 1 2.258 2.287c-.334.242-.603.408-.949.509-12.717 4.732-25.358 9.528-37.999 14.325-.141.012-.205.089-.41.178-.475.254-.628.125-.947-.273-1.324-2.155-2.712-4.234-4.036-6.39-6.75-10.624-13.499-21.248-20.313-31.796-.242-.334-.343-.68-.444-1.026-.101-.346.002-.781.119-1.075.296-.665.376-1.382.724-2.264l26.215 39.23 32.037-11.887a32448.66 32448.66 0 0 1-31.998-33.117c.181-.37.487-.113.705-.061 1.305.312 2.545.7 3.774.947.435.104.882.349 1.265.67.064-.076.141-.012.153.129zm-10.785-2.393c3.215 3.481 6.429 6.962 9.579 10.519 2.896 3.083 5.715 6.101 8.547 9.261 2.96 3.006 5.715 6.101 8.611 9.184 1.326 1.374 2.589 2.825 3.992 4.264a238.117 238.117 0 0 1-5.64 2.055c-5.91 2.22-11.692 4.287-17.537 6.431-.962.368-.809.497-1.535-.505-8.677-12.372-17.289-24.821-25.889-37.129-.23-.193-.255-.474-.356-.82-.024-.282-.049-.564.067-.858.208-.87.557-1.752.905-2.634l3.887 5.48c7.748 10.679 15.56 21.282 23.372 31.884.242.334.432.885 1.048.618 4.743-1.763 9.498-3.386 14.459-5.097l-30.837-35.277c.41-.178.64.015.998.055 1.228.247 2.405.712 3.633.96.793.143 1.458.44 2.071.954.23.193.459.386.625.655zm52.023 47.833a1.69 1.69 0 0 1-.873.573l-59.215 25.762-.615.267s-.064.077-.141.012l-.141.013-.153-.129c-.077-.064-.077-.064-.089-.205-.165-.269-.343-.68-.509-.949l-18.993-39.436a2.17 2.17 0 0 1-.291-.897c-.025-.282.015-.64.131-.934.168-.512.336-1.023.557-1.752 7.109 13.928 13.848 27.677 20.739 41.554l61.086-26.281c-.349.882-.915 1.713-1.493 2.402zm-64.306-50.308c3.506 4.378 7.076 8.68 10.647 12.981 3.57 4.302 7.076 8.68 10.646 12.981 2.142 2.581 4.284 5.162 6.35 7.678.306.257.472.527.573.873-1.654.57-3.307 1.141-4.897 1.635-.41.178-.704.061-.946-.272-2.728-3.595-5.52-7.112-8.247-10.707-4.959-6.38-9.853-12.837-14.812-19.217-1.606-2.131-3.288-4.326-5.035-6.445-.484-.667-.24-1.115-.007-1.703.208-.87.208-.87 1.078-.662.217.052.294.116.511.168 1.522.364 2.034.532 2.647 1.046a8.32 8.32 0 0 1 1.492 1.644zm59.356 56.206-57.588 25.691c-.065.077-.141.013-.205.089-.821.356-.821.356-1.177-.465-1.41-3.142-2.897-6.347-4.308-9.489-4.574-10.105-9.072-20.145-13.711-30.174-.254-.474-.368-.961-.481-1.448.027-.499.054-.999.222-1.51.117-.294.233-.588.324-1.164 3.318 7.092 6.559 14.119 9.787 21.005 3.228 6.887 6.457 13.773 9.774 20.865l60.011-26.399c-.747 1.201-1.276 2.453-2.648 2.999zm-3.269 4.829c-13.375 6.138-26.891 12.288-40.266 18.427a2054.68 2054.68 0 0 1-14.67 6.748c-.615.267-1.243.392-1.871.518-.487.114-.64-.015-.818-.425l-2.134-4.924c-5.157-11.899-10.25-23.875-15.408-35.774-.368-.962-.071-1.627.354-2.444l.978 2.256c5.59 12.784 11.244 25.492 16.834 38.276.012.141.165.27.177.411.356.82.356.82 1.177.465l31.609-14.334c8.605-3.876 17.133-7.816 25.673-11.614l.615-.267c-.336 1.023-1.172 2.019-2.25 2.681zm-3.627 4.789c-12.618 5.859-25.237 11.718-37.779 17.641-1.36.687-2.922.681-4.382 1.022-.692.203-1.397.264-2.101.326.591-.549 43.692-20.643 47.128-21.937-.952 1.29-1.57 2.337-2.866 2.948zm-3.164 4.393c-7.502 3.495-14.992 7.131-22.417 10.691a15.685 15.685 0 0 1-3.948 1.126c-.692.202-1.396.264-2.101.326l-.024-.282 30.88-14.554a4.982 4.982 0 0 1-2.39 2.693zm-3.177 4.253c-3.142 1.41-6.271 2.961-9.401 4.513-1.564.775-3.332.859-5.01 1.148.514-.613 15.494-7.885 16.814-8.214-.401 1.1-1.313 2.032-2.403 2.553zm-.364 1.522c-.309.524-.759 1.06-1.145 1.52-.128.153-.269.165-.474.254-.974.227-2.025.39-2.998.617-.077-.064-.089-.205-.089-.205l4.553-2.314.153.128z"/></g></g><g clip-path="url(#A)"><mask id="B" width="164" height="164" x="268" y="815" maskUnits="userSpaceOnUse" style="mask-type:luminance"><path fill="#fff" d="m312.095 815.712 119.624 43.537-43.537 119.624-119.624-43.537 43.537-119.624z"/></mask><g mask="url(#B)"><path fill="url(#C)" d="M400.87 944.01c-7.011 19.264-28.287 29.186-47.551 22.175l-49.804-18.126c-19.392-6.952-29.373-28.356-22.362-47.62l18.126-49.804c7.011-19.264 28.415-29.245 47.679-22.234l49.804 18.126c19.264 7.011 29.245 28.415 22.234 47.679L400.87 944.01z"/><path fill="#fff" fill-rule="evenodd" d="m398.093 914.799-65.495 30.542-30.542-65.495 65.367-30.482 30.67 65.435zm-81.63-13.427c2.76-1.444 9.229-5.474 11.623-12.052 2.394-6.578.123-13.79-1.064-16.669 12.541 5.309 17.79 22.756 17.79 22.756s-15.236 9.992-28.349 5.965zm56.664 20.622c-12.541-5.309-17.79-22.756-17.79-22.756s15.236-9.992 28.255-5.999c-2.76 1.443-9.135 5.508-11.529 12.086s-.123 13.79 1.064 16.669zm2.101.659c2.889-1.503 9.135-5.509 11.495-11.992 2.36-6.484.183-13.662-1.064-16.669l-6.574-14.099-.128.06c-5.606 2.536-14.509 5.361-22.445 2.898 2.794-1.537 9.228-5.473 11.622-12.051s.03-13.824-1.157-16.703l-.564-1.376-1.315.692c-2.795 1.537-9.229 5.474-11.623 12.051-2.394 6.578-.029 13.824 1.157 16.703-7.756-3.248-12.727-11.229-15.391-16.775l-14.577 6.72c-3.05 1.657-8.946 5.577-11.238 11.873-2.291 6.296-.294 13.088.978 16.318l6.66 14.449.128-.06c5.606-2.536 14.509-5.361 22.573-2.958-2.794 1.537-9.228 5.474-11.622 12.052-2.394 6.578-.03 13.823 1.157 16.703l.529 1.469 1.351-.785c2.76-1.443 9.228-5.474 11.622-12.052 2.394-6.578.03-13.824-1.157-16.703 7.756 3.248 12.727 11.23 15.391 16.775l14.192-6.54z" clip-rule="evenodd"/></g></g><g clip-path="url(#D)"><mask id="E" width="128" height="128" x="433" y="859" maskUnits="userSpaceOnUse" style="mask-type:luminance"><path fill="#fff" d="M433.4 859.529h127.3v127.3H433.4v-127.3z"/></mask><g mask="url(#E)"><path fill="url(#F)" d="M560.7 949.729c0 20.5-16.6 37.1-37.1 37.1h-53c-20.6.1-37.3-16.6-37.3-37.1v-53c0-20.5 16.7-37.2 37.2-37.2h53c20.5 0 37.2 16.7 37.2 37.2v53z"/><path fill="#fff" fill-rule="evenodd" d="m497 959.629 13.5 9.5h10.7c.5 0 1-.2 1.4-.5.4-.3.6-.8.7-1.3v-10.9l-10.7-7.6 11-7.6v-28.6c0 2-.5 4-1.4 5.8-.9 1.8-2.2 3.4-3.8 4.6l-47.7 33.4v11.3c.1.4.4.8.8 1.1.4.3.8.4 1.2.4h10.6l13.7-9.6zm-26.4-18.5 8.8 6.2 15.4-10.8-13.8-9.7 15.9-11.1 13.8 9.7 7.5-5.2c2.5-2 4.2-4.7 4.8-7.8l-10.7-7.5 11-7.7v-21.6l-52.8 37v28.5h.1zm8.8-37.7 15.4-10.8-11.8-8.3h-10.4c-.3 0-.6 0-.9.2l-.6.3c-.2.1-.3.3-.5.6-.1.2-.2.5-.2.7v11.1l9 6.2z" clip-rule="evenodd"/></g></g><g clip-path="url(#G)"><mask id="H" width="164" height="164" x="562" y="815" maskUnits="userSpaceOnUse" style="mask-type:luminance"><path fill="#fff" d="m562.375 859.215 119.624-43.537 43.537 119.624-119.624 43.537-43.537-119.624z"/></mask><g mask="url(#H)"><path fill="url(#I)" d="M712.847 900.439c7.011 19.264-2.91 40.54-22.174 47.551l-49.804 18.126c-19.324 7.139-40.728-2.842-47.739-22.106l-18.126-49.804c-7.011-19.264 2.97-40.668 22.234-47.679l49.804-18.126c19.264-7.011 40.668 2.97 47.679 22.234l18.126 49.804z"/><path fill="#fff" d="m615.761 942.158 19.64-7.147 37.476-80.363-39.28 14.296-17.836 73.214z"/><path fill="#E60A7A" d="m700.159 865.576-34.863 12.688a15.876 15.876 0 0 1-20.379-9.503l-12.688-34.863 29.883-10.876c10.994-4.001 23.17 1.677 27.172 12.672l10.875 29.882z"/><mask id="J" width="44" height="46" x="644" y="827" maskUnits="userSpaceOnUse" style="mask-type:luminance"><path fill="#fff" d="m644.542 838.782 31.198-11.355 12.107 33.266-31.198 11.354-12.107-33.265z"/></mask><g fill="#fff" mask="url(#J)"><path d="M669.589 859.356c-3.289 1.197-5.433 3.787-4.749 5.666.684 1.879 3.991 2.485 7.28 1.288 3.288-1.197 5.432-3.786 4.748-5.666-.684-1.879-3.896-2.519-7.279-1.288zm-9.542-26.217c-3.289 1.197-5.433 3.786-4.749 5.665.684 1.88 3.991 2.485 7.28 1.288 3.289-1.197 5.432-3.786 4.748-5.665-.684-1.88-3.896-2.52-7.279-1.288zm16.161 18.381c-.666 3.435.591 6.595 2.531 6.954 2.033.324 4.117-2.137 4.748-5.666.632-3.529-.591-6.595-2.531-6.954-2.033-.324-4.083 2.231-4.748 5.666zm-27.529-4.879c-.665 3.434.591 6.595 2.531 6.953 2.033.324 4.117-2.137 4.748-5.665.666-3.435-.591-6.596-2.53-6.954-1.94-.358-4.084 2.231-4.749 5.666zm21.51-11.66c-1.35 1.556-.221 4.657 2.53 6.954 2.718 2.204 5.93 2.844 7.28 1.288 1.349-1.555.221-4.656-2.531-6.953-2.752-2.298-5.964-2.938-7.279-1.289zm-17.893 21.304c-1.35 1.556-.221 4.657 2.53 6.954 2.718 2.204 5.93 2.843 7.28 1.288 1.349-1.555.221-4.656-2.531-6.954-2.717-2.203-6.024-2.809-7.279-1.288z"/></g></g></g><g clip-path="url(#K)"><mask id="L" width="180" height="181" x="683" y="732" maskUnits="userSpaceOnUse" style="mask-type:luminance"><path fill="#fff" d="m683.465 814.815 97.512-81.829 81.829 97.512-97.512 81.829-81.829-97.512z"/></mask><g mask="url(#L)"><path fill="url(#M)" d="M838.958 802.08c13.177 15.703 11.132 39.089-4.571 52.266l-40.598 34.068c-15.715 13.319-39.242 11.261-52.42-4.442l-34.068-40.598c-13.177-15.703-11.12-39.23 4.583-52.407l40.598-34.069c15.703-13.177 39.23-11.119 52.407 4.584l34.069 40.598z"/><path fill="#fff" fill-rule="evenodd" d="m780.366 868.218 36.232-30.404 1.761-1.479 10.341-8.678-20.312-24.205-3.214-3.83-1.864-2.222-12.103 10.157 1.8 2.144 3.214 3.83 10.156 12.103-36.232 30.405 10.221 12.179zm-22.259-1.947 12.103-10.156-15.235-18.154 36.232-30.404-10.156-12.103-36.232 30.404 10.156 12.103-12.103 10.156 15.235 18.154zm35.123-81.038-12.103 10.157-5.078-6.052-10.156-12.103 12.103-10.156 10.156 12.103 2.507 2.987 2.571 3.064z" clip-rule="evenodd"/></g></g><g clip-path="url(#N)"><mask id="O" width="174" height="175" x="782" y="621" maskUnits="userSpaceOnUse" style="mask-type:luminance"><path fill="#fff" d="m782.064 731.667 63.65-110.242 110.242 63.65-63.65 110.242-110.242-63.65z"/></mask><g mask="url(#O)"><path fill="url(#P)" d="M923.827 666.525c17.753 10.25 23.829 32.925 13.579 50.678l-26.5 45.898c-10.214 17.89-33.026 24.002-50.779 13.752l-45.898-26.5c-17.753-10.25-23.865-33.062-13.615-50.815l26.5-45.898c10.25-17.753 33.062-23.865 50.815-13.615l45.898 26.5z"/><path fill="#fff" fill-rule="evenodd" d="m904.324 701.105-30.95 53.605 19.682-10.69 30.95-53.606-19.682 10.691zm-37.168 57.175 34.3-59.408c.15-.26.387-.47.71-.629l25.65-13.827c.696-.406 1.539-.266 2.132.307.592.573.675 1.429.275 2.122l-34.3 59.408c-.15.26-.386.469-.709.629l-25.65 13.827c-.697.406-1.539.266-2.132-.307-.506-.523-.676-1.43-.276-2.122zm-18.241-84.201-30.95 53.605 19.768-10.64 30.95-53.606-19.768 10.641zm-37.031 57.138 34.3-59.408c.15-.26.386-.469.709-.629l25.65-13.827c.697-.406 1.539-.266 2.132.307.593.573.676 1.43.276 2.122l-34.3 59.408c-.15.26-.387.47-.71.629l-25.65 13.827c-.696.406-1.539.266-2.132-.307-.592-.573-.675-1.429-.275-2.122zm63.49-29.968c-5.246-2.914-11.717-1.107-14.667 4.002l-.05.087-.05.087c-2.913 5.246-1.07 11.852 4.09 14.716a11.284 11.284 0 0 0 8.231.942c2.732-.732 5.035-2.52 6.485-5.032l.05-.086c1.45-2.512 1.761-5.45 1.029-8.182-.819-2.782-2.694-5.134-5.118-6.534z" clip-rule="evenodd"/></g></g><g clip-path="url(#Q)"><mask id="R" width="148" height="148" x="846" y="494" maskUnits="userSpaceOnUse" style="mask-type:luminance"><path fill="#fff" d="m846.282 619.82 22.099-125.365 125.365 22.099-22.099 125.365-125.365-22.099z"/></mask><g mask="url(#R)"><path fill="url(#S)" d="M962.43 511.033c17.332 3.056 28.851 19.505 25.796 36.838l-11.058 62.731c-3.056 17.333-19.505 28.852-36.838 25.796l-62.731-11.058c-17.333-3.055-28.852-19.505-25.796-36.837l11.058-62.732c3.055-17.332 19.505-28.851 36.837-25.796l62.732 11.058z"/><path fill="#fff" fill-rule="evenodd" d="M949.697 573.47c-.902 5.121 2.487 10.085 7.707 11.005 5.219.92 10.102-2.586 11.004-7.707.903-5.121-2.486-10.084-7.706-11.004-5.219-.92-10.102 2.585-11.005 7.706zm-48.407 16.547 2.361-13.393 6.639-1.368 2.985-16.939-5.77-3.556 2.361-13.393 33.51 22.458-2.952 16.742-39.134 9.449zm31.272-19.568-10.15-6.358-1.563 8.863 11.713-2.505zm-53.154.277c-5.121-.903-8.61-5.884-7.707-11.005.903-5.121 5.785-8.627 11.005-7.707 5.121.903 8.609 5.884 7.706 11.005-.902 5.121-5.785 8.627-11.004 7.707zm57.816-34.791c-.902 5.121 2.487 10.085 7.707 11.005 5.219.92 10.102-2.585 11.005-7.706.902-5.121-2.487-10.085-7.707-11.005-5.219-.92-10.102 2.585-11.005 7.706zm-4.376 79.547c-5.121-.903-8.609-5.884-7.706-11.005.902-5.121 5.785-8.626 11.005-7.706 5.121.903 8.609 5.884 7.706 11.005-.903 5.121-5.884 8.609-11.005 7.706zm-36.887-86.821c-.903 5.121 2.487 10.085 7.707 11.005 5.121.903 10.102-2.585 11.004-7.706.903-5.121-2.487-10.085-7.706-11.005-5.219-.92-10.102 2.585-11.005 7.706zm-4.376 79.547c-5.121-.902-8.609-5.884-7.706-11.004.902-5.121 5.785-8.627 11.004-7.707 5.121.903 8.61 5.884 7.707 11.005-.903 5.121-5.884 8.609-11.005 7.706z" clip-rule="evenodd"/></g></g><g clip-path="url(#T)"><mask id="U" width="148" height="148" x="846" y="345" maskUnits="userSpaceOnUse" style="mask-type:luminance"><path fill="#fff" d="m868.364 492.744-22.099-125.365L971.63 345.28l22.099 125.365-125.365 22.099z"/></mask><g mask="url(#U)"><path fill="url(#V)" d="M935.094 351.721c20.188-3.559 39.417 9.907 42.976 30.095l9.201 52.195c3.675 20.269-9.872 39.614-30.061 43.173l-52.194 9.201c-20.189 3.559-39.534-9.988-43.093-30.177l-9.2-52.194c-3.559-20.188 9.988-39.534 30.176-43.093l52.195-9.2z"/><path fill="#fff" fill-rule="evenodd" d="M928.11 464.747c-25.211 4.445-49.306-12.428-53.75-37.639-4.444-25.211 12.429-49.306 37.64-53.75 25.211-4.444 49.305 12.429 53.749 37.64 4.445 25.211-12.428 49.305-37.639 53.749zm-42.634-35.639c-2.836-13.208-.263-21.074 3.371-28.111 1.139 11.07 5.685 17.275 7.834 20.247.399.539.666.898.833 1.274-.318 1.072-.753 2.063-1.089 3.036-1.443 3.909-2.452 6.829-1.428 12.639 1.476 8.371 7.802 7.967 9.181 7.724 5.219-.92 7.398-5.265 6.981-7.628-.92-5.22-3.051-6.367-5.264-7.398l.319-1.072c5.01 3.077 12.934 6.554 16.861 6.369-2.254 6.795-10.887 13.698-18.8 13.164-8.44-.645-16.993-11.728-18.799-20.244zm48.234-21.296c1.732 4.061 3.329 13.121 2.615 17.714l.985-.173c.152-4.901 3.182-9.598 9.189-8.931 4.97.545 9.03 7.445 4.487 13.932-2.515 3.591-8.876 5.525-16.951 6.949-.875 3.098-4.856 11.619-13.952 18.198 19.829-1.566 29.163-12.554 34.019-24.173 4.324-10.611-1.966-16.915-3.773-18.526-4.593-4.166-12.778-5.667-16.619-4.99zm-34.072-4.351c-2.274-12.901 6.601-18.426 13.657-19.873 14.738-2.801 31.263 4.542 37.841 17.09-7.46-3.153-13.01-4.104-22.562-2.42-4.685-6.992-10.842-11.39-14.839-11.599-3.522-.395-6.894 1.215-8.238 3.381-3.077 5.01-.222 9.685 2.506 11.337 3.522 2.121 7.519.604 9.234-.612l.174.984c-2.683 1.489-11.489 7.407-13.754 11.259-1.767-2.532-3.515-6.691-4.019-9.547zm23.807 7.176c2.484 5.451 3.283 9.981 2.691 15.264-3.76.561-11.203-2.493-15.141-5.251 2.758-3.939 8.285-8.873 12.45-10.013z" clip-rule="evenodd"/></g></g><g clip-path="url(#W)"><mask id="X" width="174" height="175" x="782" y="191" maskUnits="userSpaceOnUse" style="mask-type:luminance"><path fill="#fff" d="m845.664 365.786-63.65-110.242 110.242-63.65 63.65 110.242-110.242 63.65z"/></mask><g mask="url(#X)"><path fill="url(#Y)" d="M860.127 210.444c17.753-10.25 40.429-4.174 50.679 13.579l26.5 45.898c10.386 17.789 4.274 40.601-13.479 50.851l-45.898 26.5c-17.753 10.25-40.565 4.138-50.815-13.615l-26.5-45.898c-10.25-17.753-4.138-40.565 13.615-50.815l45.898-26.5z"/><path fill="#fff" fill-rule="evenodd" d="M887.527 238.502c8.929 2.465 16.633 8.409 21.333 16.55 2.6 4.503 4.161 9.606 4.606 14.776.445 5.171-.226 10.408-2.04 15.266-1.814 4.857-4.685 9.286-8.415 12.825-3.68 3.626-8.133 6.312-13.099 7.91l-2.263-1.119c-7.843-3.785-13.743-14.004-13.1-22.689l.309-3.065.371-5.757c.677-9.628-5.823-20.886-14.55-25.2l-4.984-2.434a35.713 35.713 0 0 1 5.329-3.77c8.103-4.563 17.574-5.759 26.503-3.293zm-20.466 47.149c-.351 4.591.986 9.708 3.636 14.298 2.65 4.589 6.413 8.306 10.564 10.297l3.046 1.475c.473.419 1.056.429 1.539.266.483-.164.953-.55 1.149-1.01.283-.51.293-1.093.079-1.663-.163-.483-.55-.952-1.059-1.235l-3.046-1.475c-3.705-2.018-6.708-5.018-8.808-8.655-2.1-3.638-3.197-7.738-3.092-11.956l.63-8.908c.375-4.951-1.039-10.6-3.989-15.71-2.95-5.109-7.136-9.159-11.661-11.396l-5.171-2.557c-.46-.196-1.043-.206-1.526-.043-.483.164-.952.55-1.149 1.01-.196.46-.206 1.043-.043 1.526.164.483.55.953 1.01 1.149l5.171 2.557c3.829 1.831 7.355 5.338 9.855 9.668 2.5 4.33 3.737 9.273 3.459 13.591l-.594 8.771zm-26.507-8.712 16.973-9.8c.347-.2.693-.4 1.09-.514.483-.163 1.016-.24 1.562-.094.546.147.97.48 1.27.999.25.433.326.966.18 1.513-.146.546-.479.969-.862 1.306-.557.437-1.163.787-1.769 1.137l-33.774 19.5c-1.349.663-2.578.334-3.228-.792-.6-1.039-.184-2.319 1.115-3.069l11.258-6.5 6.185-3.686zm-2.014-3.688 8.401-4.85 1.385-.8 7.015-4.05c1.472-.85 1.938-2.042 1.375-3.218-.564-1.176-2.103-1.442-3.575-.592l-16.887 9.75c-1.386.8-1.838 2.216-1.275 3.392.687.989 2.089 1.218 3.561.368zm14.887 6.185 5.889-3.4c1.386-.8 2.702-.52 3.302.519.65 1.126.197 2.542-1.102 3.292a328.403 328.403 0 0 1-12.124 7c-1.386.8-2.665.384-3.315-.742-.65-1.126-.184-2.319 1.152-3.205l6.198-3.464zm-8.273-25.129-5.889 3.4-6.062 3.5c-1.386.8-1.802 2.079-1.152 3.205.65 1.126 1.93 1.542 3.315.742l12.124-7c1.299-.75 1.752-2.166 1.102-3.292-.787-1.162-2.053-1.355-3.438-.555zm17.534 32.369a2.22 2.22 0 0 0-3.006-.806l-3.204 1.85c-1.039.6-1.318 1.916-.718 2.956.6 1.039 1.966 1.405 2.918.855l3.204-1.85a2.219 2.219 0 0 0 .806-3.005zm1.492 9.184a2.22 2.22 0 0 1-.805 3.005l-18.1 10.45c-1.039.6-2.318.184-2.918-.855-.6-1.039-.234-2.405.718-2.955l18.1-10.45c1.039-.6 2.355-.321 3.005.805zm3.607 7.847c-.6-1.039-1.966-1.405-2.919-.855l-15.414 8.9a2.219 2.219 0 0 0-.806 3.005 2.22 2.22 0 0 0 3.006.806l15.414-8.9c.953-.55 1.319-1.916.719-2.956zm6.082 6.535c.6 1.039.234 2.405-.719 2.955l-6.668 3.85a2.22 2.22 0 0 1-3.005-.805 2.22 2.22 0 0 1 .805-3.006l6.668-3.85c1.04-.6 2.319-.184 2.919.856z" clip-rule="evenodd"/></g></g><g clip-path="url(#Z)"><mask id="aa" width="180" height="181" x="683" y="74" maskUnits="userSpaceOnUse" style="mask-type:luminance"><path fill="#fff" d="m780.9 254.247-97.511-81.829 81.828-97.512 97.512 81.829-81.829 97.512z"/></mask><g mask="url(#aa)"><path fill="url(#ab)" d="M741.369 103.325c13.178-15.703 36.564-17.748 52.267-4.57l40.598 34.068c15.844 13.165 17.901 36.692 4.724 52.395l-34.069 40.598c-13.177 15.703-36.704 17.76-52.407 4.583l-40.598-34.069c-15.703-13.177-17.761-36.704-4.583-52.407l34.068-40.598z"/><path fill="#fff" fill-rule="evenodd" d="M763.721 141.402c11.507-13.711 31.613-15.114 44.941-3.93 13.329 11.185 15.115 31.613 3.93 44.941l-.835.996-1.303-1.093-46.266-38.825-1.302-1.093.835-.996zm-7.867 1.753a1.9 1.9 0 0 0-2.677.234 1.9 1.9 0 0 0 .235 2.677l57.067 47.888a1.897 1.897 0 0 0 2.676-.234 1.898 1.898 0 0 0-.234-2.676l-57.067-47.889zm-20.117-2.783c.707-.843 1.91-.877 2.523-.363l41.671 34.968c.612.515.8 1.847.157 2.613-.707.842-1.987.812-2.6.298l-41.67-34.968c-.613-.514-.788-1.706-.081-2.548zm12.466 1.323a1.898 1.898 0 0 0 2.676-.234 1.898 1.898 0 0 0-.234-2.677 1.898 1.898 0 0 0-2.676.234 1.898 1.898 0 0 0 .234 2.677zm-14.764-3.252a1.898 1.898 0 0 1-2.677.234 1.897 1.897 0 0 1-.234-2.676 1.898 1.898 0 0 1 2.677-.234c.766.642.877 1.91.234 2.676zm10.437 17.897c-.689-.579-1.881-.403-2.523.363-.643.766-.609 1.969.08 2.548l50.556 42.424c.69.579 1.881.404 2.524-.362s.609-1.97-.081-2.548l-50.556-42.425zm9.309 22.041c.707-.843 1.835-.941 2.524-.363l41.364 34.711c.689.579.724 1.783.081 2.549-.707.842-1.834.941-2.524.362l-41.364-34.711c-.689-.578-.723-1.782-.081-2.548zm-16.795-23.232a1.899 1.899 0 0 0 2.677-.234c.643-.766.532-2.034-.234-2.677a1.899 1.899 0 0 0-2.677.234 1.9 1.9 0 0 0 .234 2.677zm-11.547-.552a1.897 1.897 0 0 1-2.676.234 1.897 1.897 0 0 1-.234-2.676 1.897 1.897 0 0 1 2.676-.234c.766.642.941 1.834.234 2.676zm4.975 1.695a1.9 1.9 0 0 0-2.677.234 1.898 1.898 0 0 0 .234 2.676l19.916 16.713a1.899 1.899 0 0 0 2.677-.234 1.9 1.9 0 0 0-.234-2.677l-19.916-16.712zm23.238 33.599a1.898 1.898 0 0 1-2.676.234c-.766-.643-1.018-1.899-.311-2.741a1.898 1.898 0 0 1 2.677-.234c.766.643.953 1.975.31 2.741zm4.975 1.694a1.899 1.899 0 0 0-2.677.234 1.899 1.899 0 0 0 .234 2.677l25.508 21.405a1.899 1.899 0 0 0 2.677-.234 1.899 1.899 0 0 0-.234-2.677l-25.508-21.405zm-26.399-8.054a1.898 1.898 0 0 1-2.676.234 1.898 1.898 0 0 1-.234-2.677 1.898 1.898 0 0 1 2.676-.234c.843.707.877 1.911.234 2.677zm5.052 1.758a1.899 1.899 0 0 0-2.677.234 1.899 1.899 0 0 0 .234 2.677l25.508 21.405a1.9 1.9 0 0 0 2.677-.234 1.898 1.898 0 0 0-.235-2.676l-25.507-21.406z" clip-rule="evenodd"/></g></g><g clip-path="url(#ac)"><mask id="ad" width="164" height="164" x="562" y="8" maskUnits="userSpaceOnUse" style="mask-type:luminance"><path fill="#fff" d="m681.905 171.584-119.624-43.536L605.818 8.424l119.624 43.537-43.537 119.623z"/></mask><g mask="url(#ad)"><path fill="url(#ae)" d="M593.13 43.287c7.011-19.264 28.287-29.186 47.551-22.175l49.804 18.126c19.392 6.952 29.373 28.356 22.362 47.62l-18.126 49.804c-7.011 19.264-28.415 29.245-47.679 22.234l-49.804-18.126c-19.264-7.011-29.245-28.415-22.234-47.679l18.126-49.804z"/><path fill="#fff" d="M691.722 78.53c-.94-1.512-2.024-3.503-4.707-4.905-2.494-1.333-5.869-.54-8.193-.002s-7.066 2.75-8.852 3.27c-1.786.52-5.921.186-13.14 1.602-7.22 1.417-35.962 7.876-35.962 7.876l5.979 2.283-32.065 4.186 2.725.992-4.947 1.605s3.135 2.205 6.638 1.352l-.308.845s36.755-.99 41.76 4.557l-4.169-.241c.282.103 6.253 2.702 6.253 2.702-.291 1.384-.325 2.648-.078 4.015.247 1.367.879 2.555 1.639 3.683 2.776 3.777 2.391 5.127 2.391 5.127s-2.153.068-2.529 1.101c0 0 3.127.181 5.724 1.232 1.657.71 3.186 1.479 4.613 2.53 0 0 .188-1.102-2.076-2.777-2.263-1.675-3.809-5.324-4.483-7.272-.41-1.213-.435-2.606-.213-3.802.257-1.29.89-2.443 1.676-3.434 1.701-2.041 5.246-2.134 12.833-3.098 8.954-1.21 11.672-3.414 13.526-5.293 1.855-1.879 5.094-5.808 6.692-7.568 2.119-2.314 3.948-3.245 5.383-3.68 1.436-.436 7.194-.468 7.194-.468s-2.425-5.033-3.304-6.417z"/></g></g><defs><linearGradient id="c" x1="560.652" x2="433.348" y1="127.72" y2=".415" gradientUnits="userSpaceOnUse"><stop stop-color="#E60A7A"/><stop offset="1" stop-color="#FF1490"/></linearGradient><linearGradient id="g" x1="431.658" x2="268.491" y1="128.019" y2="51.929" gradientUnits="userSpaceOnUse"><stop offset=".204" stop-color="#008662"/><stop offset=".81" stop-color="#00E8C6"/></linearGradient><linearGradient id="j" x1="131.197" x2="310.544" y1="156.729" y2="172.412" gradientUnits="userSpaceOnUse"><stop stop-color="#00CFB8"/><stop offset=".495" stop-color="#0093FF"/><stop offset="1" stop-color="#FF57B9"/></linearGradient><linearGradient id="m" x1="211.921" x2="38.023" y1="255.561" y2="302.155" gradientUnits="userSpaceOnUse"><stop offset=".164" stop-color="#00355D"/><stop offset=".856" stop-color="#005493"/></linearGradient><linearGradient id="p" x1="147.68" x2=".21" y1="367.418" y2="470.687" gradientUnits="userSpaceOnUse"><stop offset=".281" stop-color="#2B2D37"/><stop offset="1" stop-color="#60616A"/></linearGradient><linearGradient id="s" x1="125.58" x2="22.311" y1="494.51" y2="641.979" gradientUnits="userSpaceOnUse"><stop offset=".087" stop-color="#5B0CFA"/><stop offset=".747" stop-color="#00E5FF"/></linearGradient><linearGradient id="w" x1="148.534" x2="101.41" y1="621.562" y2="795.316" gradientUnits="userSpaceOnUse"><stop/><stop offset="1" stop-color="#3F3F3F"/></linearGradient><linearGradient id="z" x1="213.029" x2="228.713" y1="733.053" y2="912.4" gradientUnits="userSpaceOnUse"><stop offset=".155" stop-color="#30BCD0"/><stop offset=".882" stop-color="#CA28CC"/></linearGradient><linearGradient id="C" x1="312.279" x2="387.87" y1="815.624" y2="979.021" gradientUnits="userSpaceOnUse"><stop offset=".198" stop-color="#061156"/><stop offset="1" stop-color="#FF5DAE"/></linearGradient><linearGradient id="F" x1="560.652" x2="433.348" y1="986.882" y2="859.577" gradientUnits="userSpaceOnUse"><stop stop-color="#FF5B31"/><stop offset="1" stop-color="#98005D"/></linearGradient><linearGradient id="I" x1="725.509" x2="562.342" y1="935.367" y2="859.278" gradientUnits="userSpaceOnUse"><stop offset=".264" stop-color="#00ABEC"/><stop offset=".403" stop-color="#2885FC"/><stop offset=".602" stop-color="#B851C5"/><stop offset=".802" stop-color="#F84753"/><stop offset="1" stop-color="#FB0"/></linearGradient><linearGradient id="M" x1="683.456" x2="862.803" y1="814.885" y2="830.569" gradientUnits="userSpaceOnUse"><stop stop-color="#719300"/><stop offset="1" stop-color="#C8F04B"/></linearGradient><linearGradient id="P" x1="782.009" x2="956.047" y1="731.47" y2="685.408" gradientUnits="userSpaceOnUse"><stop/><stop offset="1" stop-color="#3F3F3F"/></linearGradient><linearGradient id="S" x1="846.32" x2="993.79" y1="619.88" y2="516.61" gradientUnits="userSpaceOnUse"><stop stop-color="#D43079"/><stop offset="1" stop-color="#F93C90"/></linearGradient><linearGradient id="V" x1="868.42" x2="971.689" y1="492.788" y2="345.318" gradientUnits="userSpaceOnUse"><stop stop-color="#F1007F"/><stop offset="1" stop-color="#00B3FF"/></linearGradient><linearGradient id="Y" x1="892.325" x2="845.731" y1="191.909" y2="365.807" gradientUnits="userSpaceOnUse"><stop offset=".193" stop-color="#FF9A00"/><stop offset="1" stop-color="#AE6800"/></linearGradient><linearGradient id="ab" x1="765.287" x2="780.971" y1="74.897" y2="254.244" gradientUnits="userSpaceOnUse"><stop stop-color="#00CDC8"/><stop offset="1" stop-color="#00817E"/></linearGradient><linearGradient id="ae" x1="681.971" x2="605.881" y1="171.558" y2="8.391" gradientUnits="userSpaceOnUse"><stop/><stop offset="1" stop-color="#3F3F3F"/></linearGradient><clipPath id="a"><path fill="#fff" d="M433.3 127.768h127.3V.468H433.3z"/></clipPath><clipPath id="e"><path fill="#fff" d="m312.005 171.62 119.624-43.537L388.09 8.459 268.468 51.996z"/></clipPath><clipPath id="h"><path fill="#fff" d="m213.028 254.317 97.514-81.83-81.83-97.515-97.515 81.83z"/></clipPath><clipPath id="k"><path fill="#fff" d="m148.293 365.883 63.65-110.245-110.245-63.65-63.65 110.245z"/></clipPath><clipPath id="n"><path fill="#fff" d="m125.623 492.852 22.099-125.367-125.367-22.1L.256 470.754z"/></clipPath><clipPath id="q"><path fill="#fff" d="m147.736 619.93-22.1-125.366L.27 516.663 22.368 642.03z"/></clipPath><clipPath id="u"><path fill="#fff" d="m211.989 731.78-63.65-110.246-110.245 63.65 63.65 110.245z"/></clipPath><clipPath id="x"><path fill="#fff" d="m310.619 814.896-97.515-81.83-81.83 97.514 97.515 81.83z"/></clipPath><clipPath id="A"><path fill="#fff" d="m431.722 859.26-119.624-43.537-43.537 119.623 119.624 43.537z"/></clipPath><clipPath id="D"><path fill="#fff" d="M560.7 859.529H433.4v127.3h127.3z"/></clipPath><clipPath id="G"><path fill="#fff" d="m682.008 815.686-119.623 43.537 43.537 119.623 119.624-43.537z"/></clipPath><clipPath id="K"><path fill="#fff" d="m780.993 733.004-97.515 81.83 81.83 97.514 97.515-81.83z"/></clipPath><clipPath id="N"><path fill="#fff" d="m845.746 621.44-63.65 110.245 110.245 63.65 63.65-110.245z"/></clipPath><clipPath id="Q"><path fill="#fff" d="M868.4 494.463 846.3 619.83l125.368 22.099 22.098-125.367z"/></clipPath><clipPath id="T"><path fill="#fff" d="m846.28 367.39 22.1 125.367 125.367-22.099-22.1-125.367z"/></clipPath><clipPath id="W"><path fill="#fff" d="m782.039 255.557 63.65 110.246 110.245-63.65-63.65-110.246z"/></clipPath><clipPath id="Z"><path fill="#fff" d="m683.404 172.42 97.515 81.83 81.83-97.514-97.515-81.83z"/></clipPath><clipPath id="ac"><path fill="#fff" d="m562.287 128.05 119.623 43.537 43.538-119.623L605.824 8.427z"/></clipPath></defs></svg>