<svg xmlns="http://www.w3.org/2000/svg" width="1572" height="1575" fill="none"><g clip-path="url(#a)"><mask id="b" width="128" height="129" x="722" y="0" maskUnits="userSpaceOnUse" style="mask-type:luminance"><path fill="#fff" d="M849.6 128.208H722.3V.908h127.3v127.3z"/></mask><g mask="url(#b)"><path fill="url(#c)" d="M722.3 38.008c0-20.5 16.6-37.1 37.1-37.1h53c20.6-.1 37.3 16.6 37.3 37.1v53c0 20.5-16.7 37.2-37.2 37.2h-53c-20.5 0-37.2-16.7-37.2-37.2v-53z"/><path fill="#fff" fill-rule="evenodd" d="M803 22.308c-7.4 0-11.5 2.2-15.1 6.4-3.8 4.4-4.5 9.9-4.7 13.9l-.2 11.2 6.3.1.1-11.2c0-2.8.9-5.5 2.6-7.7 1.7-2.2 4.1-3.4 6.7-3.4h.1c3.1 0 5.2.7 6.8 2 1.7 1.5 2.6 3.5 2.5 6.3 0 1.4-.3 2.7-.8 4-.6 1.3-1.4 2.4-2.4 3.3-2 1.9-4.7 3.1-7.4 2.9l-6.1-.1-.1 3.9 6.1.1h.3c3.8 0 7.4-1.5 10.1-4.1 2.7-2.6 4.2-6.2 4.3-10 0-1.9-.3-3.8-1-5.5l-.3-.7.4.6c2 2.5 3.1 5.5 3.1 8.8-.1 3.6-1.5 6.9-4 9.4s-6 3.9-9.5 3.8h-.3l-11.4-.1-6.4-.1-17.6-.3h-.4c-6.1 0-11.9 2.3-16.5 6.7-4.5 4.4-7.1 10.3-7.3 16.6-.1 3.6.7 7.1 2.2 10.5l-.1.1c-2.9-4.1-4.4-8.8-4.2-13.7.1-6.1 2.6-11.8 7-16 2.2-2.1 4.7-3.8 7.5-4.9 2.7-1.1 5.7-1.6 8.7-1.5l18.5.3.1-3.9-18.5-.3h-.4c-7 0-13.7 2.7-18.6 7.6-5.1 5-8 11.7-8.2 18.8-.1 8.9 2.6 16.6 7.9 22 5.7 5.7 13.8 8.6 24.6 8.6 7.1 0 12.7-2.2 16.5-6.6 2.9-3.5 4.7-8.3 4.8-13.7l.1-11.2-6.3-.1-.1 11.2c0 2.9-1 5.7-2.6 7.7-1.7 2.2-4.2 3.5-6.8 3.4-3.1 0-5.2-.7-6.8-2-1.7-1.5-2.6-3.5-2.5-6.3.1-5.7 4.8-10.4 10.5-10.4h.1l6.1.1.1-3.9-6.1-.1h-.3c-3.8 0-7.4 1.5-10.1 4.1-2.7 2.6-4.2 6.2-4.3 10 0 1.9.3 3.8 1 5.5l.3.7-.4-.6c-2-2.5-3.1-5.7-3.1-8.7.1-3.6 1.5-6.9 4-9.4s6-3.9 9.5-3.8h.3l11.4.1 6.4.1 17.6.3h.4c12.9 0 23.5-10.4 23.7-23.3 0-3.6-.7-7.2-2.2-10.5l.1-.1c2.9 4.1 4.4 8.8 4.2 13.7-.1 6.1-2.6 11.8-7 16-2.2 2.1-4.7 3.8-7.5 4.9-2.8 1.1-5.8 1.6-8.8 1.6l-18.4-.4-.2 3.9 18.5.3h.5c7 0 14.1-2.8 19.5-7.6 5.7-5.1 7.4-11.8 7.5-18.8.1-8.2-2.8-15.8-8-21.3-5.9-5.8-15-9.2-26-9.2zm4 46.9h-.3l-17.6-.3-6.4-.1-11.4-.1h-.3c-2.2 0-4.5.4-6.5 1.3-2.1.9-4 2.1-5.5 3.7-3.4 3.2-5.2 7.6-5.4 12.3 0 2.5.4 5 1.5 7.1l.3.9-.6-.7c-2.3-3.1-3.5-6.7-3.5-10.5.1-9 7.6-16.3 16.6-16.3h12.5l.1-3.9-12.2-.3h-.4c-11.2 0-20.4 9-20.5 20.3 0 3 .6 6.1 1.7 8.9l.4 1-.6-.9c-2.6-3.5-3.9-7.8-3.8-12.1.1-10.8 9-19.4 19.8-19.4h.3l17.6.3 6.3.1h.1l11.4.1h.3c2.2 0 4.5-.4 6.5-1.3 2.1-.9 4-2.1 5.5-3.7 3.4-3.2 5.2-7.6 5.4-12.3 0-2.5-.4-5-1.5-7.1l-.1-.7.6.7c2.3 3 3.5 6.7 3.5 10.5-.1 4.5-1.9 8.6-5.1 11.7-3.1 3.1-7.3 4.7-11.5 4.7h-.3l-12.3-.4-.1 4 12.2.3h.4c5.4 0 10.3-2 14.3-5.8 3.9-3.8 6.1-8.9 6.3-14.4 0-3.1-.6-6.1-1.7-8.9l-.4-1 .6.9c2.6 3.5 3.9 7.8 3.8 12.1-.4 10.6-9.2 19.3-20 19.3zm-17.7-2.4-6.7-.1.1-4.4 6.6.1v4.4z" clip-rule="evenodd"/></g></g><g clip-path="url(#d)"><mask id="e" width="164" height="164" x="457" y="26" maskUnits="userSpaceOnUse" style="mask-type:luminance"><path fill="#fff" d="m620.222 146.226-119.624 43.537-43.537-119.624 119.624-43.537 43.537 119.624z"/></mask><g mask="url(#e)"><path fill="url(#f)" d="M469.75 105.002c-7.011-19.264 2.91-40.54 22.174-47.551l49.804-18.126c19.324-7.14 40.728 2.842 47.739 22.106l18.126 49.804c7.011 19.264-2.97 40.668-22.234 47.679l-49.804 18.126c-19.264 7.011-40.668-2.97-47.68-22.234l-18.125-49.804z"/><path fill="#fff" d="M512.194 73.379c-1.659-6.313 1.731-13.08 8.027-15.372 6.296-2.292 13.208.62 16.029 6.617l5.262-1.916a1.11 1.11 0 0 1 1.41.658 1.11 1.11 0 0 1-.657 1.41l-34.393 12.517a1.11 1.11 0 0 1-1.41-.658 1.11 1.11 0 0 1 .657-1.41l5.075-1.846zm-22.542 17.888 44.497 7.642c.795.137 1.547-.137 1.974-.718L565.46 63.89c1.042-1.23 3.076-.906 3.657.691l20.315 55.819c.41 1.127-.221 2.315-1.255 2.691l-6.484 2.36c-1.128.41-2.315-.222-2.692-1.255l-13.782-37.87c-.547-1.504-2.615-1.922-3.657-.691l-11.069 12.861c-1.042 1.23-.418 3.238 1.265 3.477l11.697 2.022c.795.136 1.41.657 1.684 1.409l3.488 9.585c.41 1.127-.222 2.315-1.255 2.691l-6.484 2.36c-1.128.41-2.316-.221-2.692-1.255l-1.299-3.571a2.143 2.143 0 0 0-1.684-1.409l-14.396-2.423c-.795-.136-1.547.137-1.974.719l-9.412 10.981a2.144 2.144 0 0 0-.384 2.161l6.054 16.633c.273.752.889 1.273 1.649 1.315l14.944 2.756c.794.136 1.64-.172 2.067-.753l3.578-4.495c1.008-1.324.23-3.169-1.359-3.442l-7.186-1.323c-1.144-.221-1.965-1.306-1.743-2.451l1.143-6.801c.222-1.145 1.307-1.966 2.451-1.744l21.711 3.805c.794.136 1.41.657 1.683 1.409l1.368 3.759c.24.658.103 1.452-.324 2.033l-16.688 21.398a2.167 2.167 0 0 1-2.068.752l-27.947-5.152c-.795-.137-1.41-.658-1.649-1.316l-10.431-28.66a2.144 2.144 0 0 1 .384-2.162l7.695-8.973c1.042-1.23.418-3.238-1.265-3.477l-16.465-2.84c-1.589-.273-2.938 1.282-2.357 2.88l13.748 37.775c.411 1.128-.221 2.316-1.255 2.692l-6.484 2.36c-1.127.41-2.315-.222-2.691-1.255l-20.349-55.913c-.547-1.503.802-3.058 2.391-2.785z"/></g></g><g clip-path="url(#g)"><mask id="h" width="180" height="180" x="231" y="144" maskUnits="userSpaceOnUse" style="mask-type:luminance"><path fill="#fff" d="m410.838 241.603-97.512 81.828-81.828-97.512 97.512-81.828 81.828 97.512z"/></mask><g mask="url(#h)"><path fill="url(#i)" d="M255.346 254.338c-13.178-15.703-11.133-39.089 4.57-52.267l40.598-34.068c15.716-13.318 39.243-11.261 52.42 4.442l34.068 40.598c13.178 15.703 11.12 39.23-4.583 52.408l-40.598 34.068c-15.703 13.177-39.23 11.12-52.407-4.583l-34.068-40.598z"/><path fill="#fff" d="M334.127 187.835c1.992-1.671 4.874-1.348 6.545.644 1.607 1.915 1.425 4.809-.426 6.492l1.098 10.175-.013.141c.226 2.291-.676 4.484-2.361 5.898l-.076.064-5.286 4.436a32.262 32.262 0 0 1 4.17 2.636l11.184-9.385.077-.065c.536-.45.815-1.206.736-1.923l-.065-.076-1.058-9.817c-.756-.279-1.5-.699-2.079-1.388-1.671-1.992-1.412-4.95.503-6.557 1.992-1.672 4.873-1.349 6.545.643 1.607 1.915 1.425 4.809-.503 6.557l1.098 10.175-.012.141c.225 2.291-.676 4.483-2.362 5.898l-.076.064-10.877 9.128c1.028 1.225 1.903 2.579 2.638 3.921l11.183-9.385a6.848 6.848 0 0 1 6.295-1.366l.141.013 9.83 2.847c1.915-1.607 4.873-1.349 6.545.643 1.671 1.992 1.412 4.95-.503 6.557-1.992 1.671-4.873 1.348-6.545-.643-.578-.69-.939-1.431-1.006-2.289l-9.484-2.745a2.274 2.274 0 0 0-2.098.455l-.077.064-12.333 10.349c.557 1.753.832 3.48.953 5.336l7.277-6.106a6.842 6.842 0 0 1 6.295-1.366l.141.012 9.83 2.847c1.915-1.607 4.873-1.348 6.545.643 1.671 1.992 1.412 4.95-.503 6.557-1.991 1.672-4.873 1.349-6.545-.643-.578-.689-.939-1.431-1.006-2.288l-9.395-2.951a2.274 2.274 0 0 0-2.098.455l-.077.064-10.877 9.128c-1.123 4.728-3.643 9.193-7.626 12.535-3.984 3.343-8.83 5.19-13.669 5.335l-10.724 8.999-.077.064c-.536.45-.815 1.207-.736 1.923l.065.077 1.058 9.817c.756.279 1.5.699 2.079 1.388 1.671 1.992 1.412 4.95-.503 6.557-1.991 1.671-4.873 1.348-6.545-.643-1.607-1.915-1.424-4.809.503-6.557l-1.098-10.175.013-.141c-.226-2.291.676-4.484 2.361-5.898l.076-.064 7.201-6.042c-1.743-.366-3.461-1.013-5.09-1.865l-12.179 10.22-.077.065c-.536.45-.815 1.206-.736 1.923l.065.076 1.058 9.817c.756.279 1.5.699 2.079 1.388 1.671 1.992 1.412 4.951-.503 6.558-1.991 1.671-4.873 1.348-6.545-.644-1.607-1.915-1.424-4.809.503-6.557l-1.098-10.175.013-.141c-.226-2.291.676-4.483 2.361-5.897l.076-.065 11.107-9.32c-1.129-.88-2.17-1.965-3.211-3.049l-.193-.23-10.724 8.999a6.84 6.84 0 0 1-6.294 1.366l-.141-.012-9.83-2.847c-1.915 1.607-4.874 1.348-6.545-.644-1.671-1.991-1.413-4.95.502-6.557 1.992-1.671 4.874-1.348 6.545.644.579.689.94 1.43 1.007 2.288l9.484 2.746a2.275 2.275 0 0 0 2.098-.456l.076-.064 11.107-9.32a19.838 19.838 0 0 1-1.872-4.565l-5.132 4.307a6.845 6.845 0 0 1-6.295 1.366l-.14-.012-9.83-2.847a4.656 4.656 0 0 1-6.469-.708c-1.671-1.992-1.412-4.95.503-6.557 1.991-1.671 4.873-1.348 6.545.643.578.69.863 1.495 1.006 2.289l9.408 2.81a2.275 2.275 0 0 0 2.098-.456l.076-.064 7.201-6.042c-.447-7.066 2.448-14.195 8.269-19.08 5.822-4.885 13.409-6.422 20.226-4.832l7.354-6.171.076-.065c.536-.45.815-1.206.736-1.923l-.064-.076-1.135-9.753c-.756-.279-1.5-.699-2.079-1.388-1.836-1.722-1.578-4.681.337-6.288zm-22.736 34.353a18.564 18.564 0 0 0-2.291 26.204 18.563 18.563 0 0 0 26.203 2.291 18.563 18.563 0 0 0 2.292-26.203 18.565 18.565 0 0 0-26.204-2.292zm2.957 3.524c5.898-4.95 14.697-4.109 19.647 1.789 4.949 5.898 4.25 14.709-1.649 19.659-5.898 4.949-14.697 4.109-19.646-1.789-4.95-5.899-4.25-14.71 1.648-19.659zm-5.448-31.849.153-.129c3.971-3.202 9.67-2.632 12.948 1.274 3.279 3.907 2.761 9.824-1.145 13.102-3.907 3.279-9.824 2.761-13.102-1.145-1.607-1.915-2.32-4.32-2.187-6.651l.013-.141 9.298.814-5.978-7.124zm-24.895 20.891 5.978 7.124.813-9.299c2.395.21 4.639 1.329 6.31 3.32 3.279 3.907 2.761 9.824-1.145 13.102-3.907 3.279-9.824 2.761-13.102-1.145-3.278-3.907-2.773-9.683.992-12.974l.154-.128z"/></g></g><g clip-path="url(#j)"><mask id="k" width="175" height="175" x="72" y="339" maskUnits="userSpaceOnUse" style="mask-type:luminance"><path fill="#fff" d="m246.706 402.85-63.65 110.242-110.242-63.65 63.65-110.242 110.242 63.65z"/></mask><g mask="url(#k)"><path fill="url(#l)" d="M100.353 465.342c-15.242-8.8-20.439-28.197-11.639-43.439l31.85-55.164c8.8-15.241 28.197-20.439 43.439-11.639l55.164 31.85c15.242 8.8 20.439 28.198 11.639 43.439l-31.85 55.164c-8.8 15.242-28.197 20.439-43.439 11.639l-55.164-31.85z"/><path fill="#fff" fill-rule="evenodd" d="M168.711 392.344c-1.379.589-2.612 1.725-3.016 3.224-.454 1.585.159 3.324.635 5.1.525 1.689 1.015 3.242.784 4.841-.267 1.462-1.017 2.761-1.717 3.974l-.2.346c-1 1.732-2.563 4.64-4.585 4.743-2.073.189-4.854-1.994-6.262-3.154-.383-.337-.68-.623-.926-.996-.406-.697-.576-1.603-.263-2.346l.874-1.112c.66-3.545.788-7.166.42-10.727-.07-1.08-.263-2.346-1.165-2.982-.643-.487-1.486-.627-2.342-.544-1.936.153-3.788 1.161-5.121 2.47-1.383 1.396-2.47 3.078-3.247 4.823-1.603 3.577-2.378 7.518-1.886 11.266.06.497.033.943.093 1.439.07 1.08.139 2.159.532 3.079.836 1.752 3.351 2.396 5.186 2.417 1.03.017 1.913-.513 2.796-1.042a9.864 9.864 0 0 1 1.802-.922c1.739-.613 3.485.164 5.007.928 1.262.613 1.792 1.496 2.444 2.566.06.496.307.869.553 1.242 1.528 2.153 3.78 3.453 5.995 4.616l.606.35c2.252 1.3 4.503 2.6 6.805 3.814l.346.2c1.299.75 4.33 2.5 4.528-.042.053-.893-.763-1.479-1.542-1.929-.779-.45-1.659-.727-2.488-1.091-.83-.363-1.659-.726-2.352-1.126-.693-.4-3.314-2.26-1.055-2.573 1.079-.069 2.798 1.154 4.17 2.177.643.487 1.113.873 1.546 1.123l.779.45c1.039.6 2.375 1.487 3.431 1.058.46-.197 1.17-.826 1.333-1.309.327-.966-.156-1.13-.762-1.48l-.52-.3c-1.819-1.05-3.551-2.05-5.519-2.84-.26-.15-.57-.213-.966-.327-1.053-.376-2.105-.753-3.095-1.44-2.411-1.623-2.853-5.458 1.028-5.18 1.663-.079 2.998.807 4.334 1.694.346.2.643.487 1.076.737 1.075.736 2.188 1.609 3.314 2.259 1.039.6 3.181 1.491 4.4.578 1.22-.912.604-1.845-.559-2.632-2.324-1.573-4.749-2.973-7.174-4.373-.173-.1-.433-.25-.743-.313-1.312-.527-3.367-1.367-2.754-2.63.563-1.176 3.385.338 4.424.938l.26.15c.779.45 1.508.986 2.188 1.61 1.322 1.109 2.644 2.219 4.53 2.153 3.138-.035.301-3.521-1.012-4.048-3.454-1.417-6.845-3.144-9.949-5.167-1.076-.736-3.907-2.833-4.692-4.672-.306-.87-.216-1.626.717-2.242 1.493-.985 2.778-.012 3.977.911l.087.05c.26.15.469.387.729.537 1.459 1.073 2.781 2.183 4.29 3.169 1.249.837 2.425 1.4 3.781.451 1.12-.739 1.733-2.001 1.54-3.267-.143-1.353-1.192-2.536-2.267-3.273-2.708-1.909-5.616-3.473-8.524-5.036-1.485-.627-2.984-1.031-4.637-.368zm-20.767 17.569c1.423-2.065 2.836-4.713 3.257-7.241.077-.533.104-.979.13-1.426.067-1.116.134-2.232-.482-3.165-.609.456-1.169.826-1.866 1.232-.883.53-1.816 1.146-2.575 1.862a17.726 17.726 0 0 0-3.58 4.399c-1.4 2.425-2.257 5.51-1.115 8.132.036.136.073.273.21.236.173.1.359-.023.409-.109.324-.16.51-.283.833-.443 1.666-.886 3.706-2.018 4.779-3.477z" clip-rule="evenodd"/><path fill="#fff" d="M153.54 392.822c-.857.083-1.863.426-1.876.649.063-.31.127-.62.24-1.016l.177-.706-1.376-.217-.263.656a32.428 32.428 0 0 0-.331 1.772c-1.106.516-2.212 1.032-3.282 1.685-.073-.274-.233-.597-.393-.92l-.319-.646-1.243.552.27.733c.159.323.356.783.466 1.193a55.3 55.3 0 0 0-1.93 1.542c-.473.419-.996.926-1.383 1.395-.246-.373-.543-.66-.839-.946l-.506-.523-.997.925.507.524c.333.423.629.709.962 1.133-1.196 1.272-1.996 2.657-2.623 4.143l-2.202-1.387-.7 1.213 2.462 1.536c-.164.483-.241 1.016-.317 1.549-.204 1.153-.271 2.269-.115 3.398a23.24 23.24 0 0 1-2.345.263l-.67-.04.006 1.389.67.04c.806.004 1.662-.079 2.519-.162l.618 3.128c.22.82.439 1.639 1.132 2.039.693.4 1.513.181 2.246-.089 1.006-.343 1.975-.822 3.318-1.548 2.999-2.194 5.629-4.949 7.579-8.326.5-.866.963-1.869 1.376-2.785.314-.742 1.571-4.52.282-4.687-1.463-.267-1.677 3.304-1.99 4.047-1.731 4.197-4.724 7.781-8.442 10.022a12.59 12.59 0 0 1-2.909 1.438c-.46.196-.683.183-.77.133-.086-.05-.159-.323-.219-.82-.256-.956-.413-2.085-.619-3.128.733-.27 1.466-.539 2.249-.896l.647-.319-.64-1.293-.596.233c-.596.233-1.156.603-1.703.749-.083-.856-.029-1.749.198-2.542l.19-.929 1.299.75c.173.1.433.25.556.436l.37.56 1.169-.826-.592-.573c-.247-.373-.593-.573-.94-.773l-1.558-.9a14.04 14.04 0 0 1 2.05-3.551c.369.56.689 1.207.922 1.803l.319.646 1.243-.552-.319-.647a17.65 17.65 0 0 0-1.292-2.362c.86-.889 1.719-1.778 2.702-2.481.074.273.097.633.257.956.219.82.389 1.726.162 2.519l-.177.706 1.326.304.177-.707c.29-1.102.047-2.282-.122-3.188-.147-.546-.207-1.043-.353-1.589.746-.493 1.493-.986 2.276-1.342-.127.62-.29 1.103-.417 1.722-.164.483-.19.93-.39 1.276l-.35.606 1.212.7.35-.606c.3-.519.513-1.089.59-1.622.19-.929.467-1.809.657-2.738.92-.393 3.575-.592 3.446-2.168.027-.446-.506-.523-1.089-.513z"/><path fill="#fff" fill-rule="evenodd" d="M144.233 410.542c2.548 1.586 5.64-2.17 4.485-4.569-.283-.51-.839-.947-1.445-1.297-1.039-.6-2.265-1.077-3.371-.561-.647.32-1.083.876-1.52 1.432-1.15 1.992-.005 3.808 1.851 4.995zm-.14-2.159.11.41.087.05.086.05.087.05.087.05.173.1.086.05.087.05.137-.037.136-.036.087.05.086.05s.087.05.137-.037a.55.55 0 0 0 .583-.01s.05-.086.137-.036c0 0 .05-.087.136-.037l.137-.037.05-.086c.223.013.373-.247.56-.37l.3-.519.05-.087s.05-.087-.037-.137c-.037-.136.013-.223.15-.259l.05-.087.05-.087.05-.086-.037-.137-.036-.136-.037-.137c-.05.087-.1.173-.063.31.086.05.036.136-.014.223l-.05.087-.1.173c-.05.086-.05.086-.013.223 0 0-.05.087.037.137-.21-.237-.26-.15-.26-.15s-.05.086-.137.036l.037.137-.05.086c-.05.087-.05.087-.187.124l-.05.086-.05.087-.1.173c-.086-.05-.136.037-.136.037l-.137.036c-.05.087-.187.123-.237.21l-.05.087c-.086-.05-.223-.014-.309-.064-.087-.05-.137.037-.224-.013-.086-.05-.173-.1-.309-.064-.087-.05-.174-.1-.21-.236l-.087-.05-.086-.05-.087-.05-.173-.1-.087-.05c.05-.087-.036-.137-.073-.273-.087-.05-.123-.187-.073-.274-.087-.05-.037-.136-.073-.273.05-.086.05-.086.013-.223.137-.037.05-.087.1-.173.05-.087.013-.223.187-.123l.1-.174.05-.086.05-.087c.086.05.223.014.223.014.05-.087.186-.124.223.013.05-.087.137-.037.223.013.087.05.087.05.223.014.224.013.26.15.297.286.086.05.086.05.123.187l-.2.346c.037.137-.1.174-.1.174l-.05.086s-.05.087-.137.037l-.086-.05-.137.036.05-.086-.086-.05-.087-.05.05-.087c-.087-.05-.037-.136-.037-.136.05-.087.05-.087.014-.224-.087-.05-.087-.05-.137.037l-.05.087-.05.086s-.05.087.037.137c0 0 .086.05.036.136l.037.137-.05.087-.1.173.26.15.086.05.087.05.087.05.086.05.087.05.136-.037.05-.086.05-.087.174.1.136-.037.05-.086.137-.037.05-.086.05-.087.05-.087c.05-.086.05-.086.186-.123.014-.223-.023-.36-.059-.496-.037-.137-.024-.36-.06-.497l-.347-.2-.086-.05c-.087-.05-.037-.136-.123-.186-.224-.014-.36.023-.533-.077-.137.037-.31-.063-.483-.163-.187.123-.237.209-.374.246-.05.087-.136.037-.186.123 0 0-.05.087-.137.037.037.136-.013.223-.2.346l-.2.347c-.013.223.06.496.133.769-.05.087-.013.223.023.36z" clip-rule="evenodd"/><path fill="#fff" d="M176.566 452.535c.141-.843.281-1.685.667-2.155.387-.47.983-.703 1.457-1.122.809-.803.84-2.055 1.303-3.058.664-1.349 2.056-2.161 3.509-2.477 1.453-.316 2.915-.049 4.341.081.223.013.533.077.606.35.087.05-.013.223.023.36-.67 2.961-1.441 6.096-3.374 8.444-1.41 1.842-3.462 3.197-4.353 5.339-1.467 3.54-3.324.158-3.86-2.114-.306-.869-.486-2.359-.319-3.648z"/><path fill="#fff" d="M188.654 459.398c.883-.529 1.519-1.432 2.156-2.334.787-1.163 1.537-2.462 1.754-3.837.28-1.686-.296-3.289-.785-4.841-.27-.733-.489-1.553-.945-2.163-.457-.609-1.186-1.146-1.942-1.236-.937 1.422-.734 3.271-1.238 4.943-.467 1.809-1.627 3.218-2.786 4.627-1.683 1.915-3.13 3.62-4.516 5.821-.05.087-.1.174-.064.31.539 1.466 7.619-.797 8.366-1.29z"/><path fill="#fff" fill-rule="evenodd" d="M199.86 441.389a21.468 21.468 0 0 0 2.703-13.681c5.914-2.243 9.378-8.442 8.514-14.945-1.216.106-2.346.262-3.575.592-2.322.622-4.398 1.617-6.228 2.986-.105-4.218-2.096-8.369-5.743-11.052-.773.939-1.546 1.878-2.146 2.917-2.25 3.897-2.914 8.248-2.14 12.506a21.653 21.653 0 0 0-10.956 9.377c-2.85 4.936-3.545 10.54-2.378 15.717.35-.606.7-1.212.827-1.832.567-1.982 1.267-3.194 2.387-3.934 1.219-.912 2.809-1.265 4.931-1.54 1.712-.166 3.475-.419 5.047.258 2.798 1.153 4.569 4.485 4.978 7.377 1.469-1.345 2.729-2.927 3.779-4.746z" clip-rule="evenodd"/><path fill="#fff" d="M161.519 411.401a25.285 25.285 0 0 1-2.16 3.14c-1.199-.923-1.415-2.549-.715-3.761 2.223-3.451 3.171-7.291 3.015-11.422-.297-8.486-5.878-14.018-5.878-14.018 1.046-1.012 2.832-.905 3.744.315 1.948 2.626 4.618 7.4 4.913 13.69.142 4.354-.769 8.332-2.919 12.056z"/><path fill="#fff" fill-rule="evenodd" d="m120.271 446.243 2.685 1.55c1.212.7 2.615.471 3.611-.455l1.097-1.099c1.619-1.605 4.101-1.904 6.093-.754l17.926 10.35c2.858 1.65 6.546.662 8.196-2.196 1.65-2.858 5.338-3.846 8.196-2.196a3.116 3.116 0 0 0 4.235-1.135l1.05-1.818c.7-1.213.607-2.652-.132-3.772.023.36-.09.757-.24 1.016-.627 1.486-2.154 4.53-4.04 4.596-.806-.003-1.549-.317-2.205-.58l-1.212-.7c-1.336-.887-3.054-2.11-3.804-.811-.464 1.003-1.15 1.992-1.7 2.945-.487.642-.837 1.249-1.533 1.655-1.543 1.072-3.872.305-3.255-1.764.214-.569.65-1.125 1.087-1.682.773-.939 1.546-1.878.994-3.121-.247-.373-.543-.66-.926-.996-4.696-3.866-10.115-6.88-15.448-9.843-.866-.5-1.732-1-2.798-1.154-2.182-.22-4.025 1.372-5.594 2.89-.337.383-.71.63-1.047 1.013-1.806 1.728-3.662 3.543-5.468 5.271l-.05.087c-2.02 2.298-4.155 2.797-5.718 2.703z" clip-rule="evenodd"/><path fill="#fff" d="M135.016 385.707c.66-.543 1.356-.949 2.139-1.306 1.106-.516 2.629.248 3.145 1.354.639 1.293-.594 2.428-1.331 3.504-2.233 2.868-4.466 5.735-5.746 9.153-1.644 4.247-2.199 9.007-.668 13.355 2.071 5.814 4.561 9.1 9.671 12.05l15.674 9.05c1.299.75 2.708 1.91 4.221 2.09 3.731.538 2.636-4.366 5.765-4.985 1.589-.353 4.264.614 4.653 2.34.169.906-.244 1.822-.607 2.652-.827 1.832-1.741 3.614-2.517 5.359.589 1.38 3.044 1.527 3.223 3.016.024.36-.09.756-.203 1.153-.627 1.485-2.154 4.53-4.039 4.596-.807-.004-1.549-.317-2.206-.581-1.175-.563-4.016-3.242-4.93-1.46-.463 1.002-1.15 1.991-1.7 2.944-.486.643-.836 1.249-1.533 1.655-1.542 1.072-3.871.305-3.254-1.763.454-1.586 3.039-2.864 2.081-4.803-.247-.374-.543-.66-.926-.997-4.696-3.866-10.115-6.879-15.448-9.843-.866-.5-1.732-1-2.798-1.153-2.182-.221-4.025 1.371-5.594 2.89-2.143 2.111-4.286 4.222-6.565 6.37l-.05.087c-4.659 4.469-9.086 1.336-9.086 1.336l-.952-.55c-2.288-1.436-2.964-2.866-3.247-3.376-.443-.833-.663-1.652-.882-2.472-.23-1.402-.322-2.842-.105-4.217.217-1.376.52-2.702.96-4.064 1.244-3.555 3.497-5.256 5.953-8.11 2.743-3.151 5.189-6.588 6.683-10.575 1.28-3.418 1.631-7.026 2.515-10.557.884-3.531 2.388-6.935 4.275-10.003.986-1.508 2.059-2.967 3.429-4.139z"/><path fill="#fff" d="M132.324 416.368c.21.237.456.61.666.846-.296-.286-.506-.523-.666-.846zm50.467 50.384c.63.71.886 1.666.559 2.632-.917 2.589-7.666 3.079-9.985 2.895-2.988-.224-4.326-3.306-6.715-4.569-2.388-1.264-5.183-.222-7.725-.419-.979-.104-1.759-.554-2.638-.831-6.755-3.9-13.473-7.663-20.178-11.65-1.559-.9-3.354-1.59-4.763-2.75-1.409-1.159-1.608-3.815.651-4.127 1.762-.253 3.627 1.517 5.063 2.23l11.345 6.55 1.991 1.15c1.992 1.15 5.72 2.494 8.082 1.202 2.449-1.241 3.27-4.463 5.732-5.928 1.903-1.095 4.308-.861 5.94.312 1.842 1.41 2.141 3.892 3.013 5.781.872 1.889 2.354 3.322 4.036 4.409 1.299.75 2.885 1.204 4.134 2.04.656.264 1.125.65 1.458 1.073z"/></g></g><g clip-path="url(#m)"><mask id="n" width="148" height="148" x="0" y="588" maskUnits="userSpaceOnUse" style="mask-type:luminance"><path fill="#fff" d="m147.618 610.502-22.099 125.365-125.365-22.1 22.099-125.365 125.365 22.1z"/></mask><g mask="url(#n)"><path fill="url(#o)" d="M36.69 720.208C16.5 716.649 3.036 697.42 6.594 677.231l9.201-52.194c3.478-20.304 22.823-33.851 43.011-30.293l52.195 9.201c20.188 3.559 33.735 22.904 30.177 43.093l-9.201 52.194c-3.559 20.189-22.904 33.736-43.093 30.177l-52.194-9.201z"/><path fill="#fff" fill-rule="evenodd" d="M34.335 643.13a44.507 44.507 0 0 0-4.093 12.276l-5.468 31.021 20.484 3.611c-.512-6.893-6.947-34.327-10.923-46.908zm19.392 48.401c-.691-10.479-9.196-45.182-13.438-57.404 4.453-5.104 10.031-9.096 16.188-11.768 5.338 14.649 16.502 53.273 17.143 72.678l-19.893-3.506zm28.559 5.034c-.304-14.98-10.901-59.698-17.862-76.664 5.387-1.182 11.093-1.293 16.904-.269 1.28.225 2.543.55 3.806.874 6.508 16.073 16.41 59.552 17.028 79.664l-19.893-3.506.017-.099zm28.953 5.104.394.069 5.468-31.021c3.403-19.302-6.321-37.872-22.745-46.656 6.52 16.583 16.075 62.031 16.883 77.608z" clip-rule="evenodd"/></g></g><g clip-path="url(#p)"><mask id="q" width="148" height="148" x="0" y="839" maskUnits="userSpaceOnUse" style="mask-type:luminance"><path fill="#fff" d="m125.536 839.529 22.099 125.365-125.364 22.099L.17 861.628l125.365-22.099z"/></mask><g mask="url(#q)"><path fill="url(#r)" d="M58.806 980.553c-20.188 3.559-39.417-9.907-42.976-30.096l-9.2-52.194c-3.676-20.27 9.872-39.615 30.06-43.174l52.194-9.201c20.189-3.558 39.534 9.989 43.093 30.177l9.201 52.194c3.558 20.189-9.989 39.534-30.177 43.093l-52.195 9.201z"/><path fill="#fff" fill-rule="evenodd" d="M65.79 867.526c25.211-4.444 49.306 12.429 53.75 37.64 4.444 25.211-12.429 49.305-37.64 53.749-25.21 4.445-49.305-12.428-53.75-37.639-4.443-25.211 12.43-49.306 37.64-53.75zm-27.855 52.228c1.65 9.356 10.569 15.602 19.924 13.953l10.932-1.927c9.338-1.748 15.584-10.668 13.952-19.925-.225-1.28-.648-2.526-1.07-3.771-.32-.655-1.258-.794-1.646-.116l-.18.133-7.538 11.381c-1.217 1.738-3.111 3.087-5.376 3.487l-10.34 1.822c-4.432.782-8.718-2.22-9.5-6.651-.798-4.531 2.122-8.701 6.652-9.499l3.546-.625c.69-.122 1.077-.799.973-1.39l-1.128-6.402c-.122-.689-.8-1.077-1.39-.973l-3.841.677c-9.373 1.551-15.62 10.47-13.97 19.826zm51.08-26.469c9.355-1.649 18.275 4.597 19.924 13.952 1.649 9.356-4.597 18.276-13.953 19.925l-3.84.677c-.69.122-1.286-.383-1.39-.973l-1.129-6.402c-.121-.689.383-1.286.974-1.39l3.545-.625c4.431-.781 7.433-5.067 6.652-9.499-.781-4.431-5.067-7.433-9.5-6.651l-10.34 1.822c-2.264.4-4.159 1.749-5.376 3.487l-7.538 11.381-.081.116c-.522.498-1.443.457-1.779-.296-.504-1.13-.828-2.392-1.07-3.771-1.633-9.257 4.614-18.177 13.97-19.826l10.93-1.927z" clip-rule="evenodd"/></g></g><g clip-path="url(#s)"><mask id="t" width="175" height="175" x="72" y="1062" maskUnits="userSpaceOnUse" style="mask-type:luminance"><path fill="#fff" d="m183.106 1062.29 63.65 110.24-110.242 63.65-63.65-110.24 110.242-63.65z"/></mask><g mask="url(#t)"><path fill="url(#u)" d="M168.643 1217.63c-17.753 10.25-40.429 4.18-50.679-13.58l-26.5-45.89c-10.386-17.79-4.274-40.61 13.479-50.86l45.898-26.5c17.753-10.25 40.565-4.13 50.815 13.62l26.5 45.9c10.25 17.75 4.138 40.56-13.615 50.81l-45.898 26.5z"/><path fill="#fff" d="M123.29 1121.88c.025 5.65 5.514 9.75 10.84 8.18 3.518-1.11 5.899-3.98 6.304-7.68.01-.59.319-.65.716-.76 2.328-.77 4.697-.87 7.042-.6 6.02 1.02 11.076 5.38 12.95 11.22.767 2.33.681 5.38 3.003 6.01 1.776.47 2.815-.13 3.655-1.07 3.543-3.67 8.123-5.73 13.197-5.54 4.677.3 8.946 3.49 11.339 6.03.336.39.946.84.54 1.54-1.825 2.44-1.701 5.25-.597 7.97 4.17 9.02 16.978 5.2 16.352-4.48-.281-4.69-4.713-8.36-9.337-7.77-.533.07-.856-.09-1.243-.56-2.01-2.88-4.562-5.1-7.708-6.75a22.787 22.787 0 0 0-9.425-2.52c-4.714-.17-9.074 1.08-13.181 3.57-.78.45-.78.45-1.056-.43-3.061-7.7-10.392-13.4-18.768-14.11-2.295-.17-6.769.68-9.161 1.14-.533.07-.842.14-1.316-.28-5.318-5.02-14.278-.54-14.146 6.89zm79.471 20.05c1.963 3.6-3.219 6.83-5.319 3.19-2-3.47 2.909-6.76 5.319-3.19zM134.556 1120c.9 1.56.388 3.47-1.084 4.32-3.774 2.06-6.564-3.37-2.927-5.47 1.436-.71 3.211-.24 4.011 1.15zm46.842 26.53c5.414 9.58 8.806 22.05 3.146 32.25-6.063 11.7-20.117 14.15-31.009 19.29-2.438 1.17-4.827 2.44-7.151 4.01-2.015 1.51-4.624.59-5.305-1.79-.753-2.1-1.543-4.07-2.643-5.98-4.224-6.91-13.736-20.59-14.588-28.06-1.149-10.19 3.954-19.95 11.941-25.72 2.954-2.28 6.072-4.08 9.476-5.58 1.659-.73 3.485-.17 4.298 1.44.8 1.39.288 3.3-.998 4.27l-.433.25c-12.068 5.7-22.528 15.78-16.041 29.82 1.854 4.01 4.314 7.67 6.6 11.43 2.474 3.88 4.86 7.81 6.814 12 .2.34.3.52.733.27 5.196-3 10.805-5.09 16.365-7.26 7.528-2.96 15.412-6.7 17.594-15.12 1.777-7.72-.938-15.63-4.701-22.34-1.79-3.7 3.602-7.16 5.902-3.18zm-18.451 15.04c-2.69-5.26 4.534-9.55 7.571-4.49 1.25 2.17.381 4.86-1.784 6.11-2.028 1.29-4.623.6-5.787-1.62zm-17.078-5.38c-2.777-5.21 4.447-9.5 7.52-4.57 1.2 2.07.518 4.89-1.56 6.09-2.165 1.25-4.71.64-5.96-1.52z"/></g></g><g clip-path="url(#v)"><mask id="w" width="180" height="181" x="231" y="1251" maskUnits="userSpaceOnUse" style="mask-type:luminance"><path fill="#fff" d="m313.403 1251.93 97.512 81.83-81.829 97.51-97.511-81.83 81.828-97.51z"/></mask><g mask="url(#w)"><path fill="url(#x)" d="M352.934 1402.85c-13.177 15.7-36.563 17.75-52.266 4.57l-40.598-34.07c-15.844-13.16-17.902-36.69-4.724-52.39l34.068-40.6c13.178-15.7 36.705-17.76 52.408-4.58l40.598 34.07c15.703 13.17 17.76 36.7 4.583 52.4l-34.069 40.6z"/><path fill="#fff" fill-rule="evenodd" d="M329.835 1377.33c1.532 1.29 3 2.65 4.403 4.09 2.819 3.02 3.862 5.2 3.011 6.83-1.199 2.52-5.665 1.78-9.004.93-12.55-3.09-35.952-15.02-52.006-26.54-4.994-3.54-8.901-6.81-11.478-9.5-2.819-3.02-3.861-5.2-3.011-6.83 1.2-2.52 5.665-1.78 9.004-.93 12.562 3.23 35.888 15.1 52.083 26.6a95.98 95.98 0 0 1 6.998 5.35zm-58.975-21.81c1.762 1.48 4.048 3.26 6.845 5.22 15.889 11.24 38.856 23.08 51.188 26.12 5.296 1.31 6.208.37 6.208.37.233-.58-1.316-4.49-13.654-13.28-15.965-11.31-38.856-23.08-51.188-26.12-5.296-1.31-6.208-.38-6.208-.38-.322.39.605 2.86 6.809 8.07zm29.528-12.17c.468 5.36 3.102 10.31 7.162 13.72l.153.12c4.136 3.47 9.534 5.13 14.951 4.59 5.418-.55 10.446-3.12 13.84-7.32 3.471-4.13 5.129-9.53 4.584-14.95-.545-5.42-3.114-10.44-7.315-13.84l-.153-.13c-3.064-2.57-6.963-4.14-10.97-4.5-4.006-.36-8.054.42-11.646 2.36-3.592 1.95-6.534 4.83-8.351 8.4-1.894 3.5-2.676 7.54-2.255 11.55zm77.123-13.34a61.14 61.14 0 0 0-4.403-4.09 98.337 98.337 0 0 0-7.075-5.41c-16.119-11.44-39.521-23.38-52.006-26.54-3.339-.85-7.805-1.59-9.004.93-.774 1.7.192 3.81 3.011 6.83 2.5 2.62 6.407 5.9 11.478 9.5 16.195 11.5 39.52 23.38 52.006 26.54 3.338.85 7.804 1.59 9.004-.93.85-1.63-.192-3.81-3.011-6.83zm-56.546-20.82a102.532 102.532 0 0 1-6.844-5.22c-6.205-5.21-7.054-7.62-6.81-8.07 0 0 .913-.93 6.209.38 12.267 3.12 35.299 14.87 51.124 26.19 12.414 8.86 13.963 12.77 13.654 13.29 0 0-.913.93-6.209-.38-12.191-3.05-35.222-14.81-51.124-26.19z" clip-rule="evenodd"/></g></g><g clip-path="url(#y)"><mask id="z" width="164" height="164" x="457" y="1385" maskUnits="userSpaceOnUse" style="mask-type:luminance"><path fill="#fff" d="m500.692 1385.57 119.624 43.53-43.537 119.63-119.624-43.54 43.537-119.62z"/></mask><g mask="url(#z)"><path fill="url(#A)" d="M589.467 1513.87c-7.011 19.26-28.287 29.18-47.551 22.17l-49.804-18.13c-19.392-6.95-29.374-28.35-22.363-47.61l18.126-49.81c7.011-19.26 28.416-29.24 47.68-22.23l49.804 18.12c19.264 7.01 29.245 28.42 22.234 47.68l-18.126 49.81z"/><path fill="#fff" fill-rule="evenodd" d="M505.47 1471.27c.094.03.094.03 0 0 .102-.28.077-.5.205-.56.359-.41 1.777.96 3.929 3.24.402.35.863.84 1.324 1.33 5.339 3.75 13.591 8.56 21.622 6.38 7.861-2.89 13.092-10.24 13.47-18.3.215-4.39.232-6.19-.655-9.6-.658-2.58-1.844-5.46-4.082-8.09-.487-.7-7.097-8.86-17.785-11.36-16.846-4.01-37.074 12.68-37.074 12.68s5.205-5.23 5.692-5.69c13.819-13.7 28.394-13.4 28.394-13.4 7.305.1 13.549 3.12 17.837 5.96l-.154-.16-.153-.17c-6.261-4.72-13.813-7.36-21.682-7.67-6.1-.2-11.577 1.1-14.858 1.93-1.973.45-3.152.77-3.238.42-.145-.48 2.871-2.04 5.016-2.96 6.238-2.52 13.064-3.44 19.805-2.37 4.724.76 9.269 2.3 13.446 4.57 2.87 1.47 10.319 5.56 15.571 13.65-2.433-4.72-5.192-7.96-6.541-9.51-.581-.75-.889-1.07-.854-1.16.452-.37 15.973 10.49 18.437 27.99.35 2.25 1.714 12.54-2.047 20.54 2.666-2.65 3.88-5.4 5.308-9.03l.034-.1c1.838-4.75 1.925-9.09 1.969-13.01.018-4.14-.425-8.77-.655-10.77l-.128-1.11c4.318 16.79 2.967 23.43 2.967 23.43-.582 2.76-2.969 14.88-14.103 21.79-2.35 1.48-4.845 2.49-7.366 3.28 4.623-1.3 7.93-3.08 8.989-3.65 11.69-6.39 20.843-19.55 20.377-32.6-.5-12.95-10.51-26.38-14.592-30.95 1.853 1.63 23.642 22.75 15.972 46.46 4.112-9.25 4.678-17.24 4.875-21 .103-1.45.155-2.18.377-2.2.948.02 4.814 17.18-3.341 34.32-1.881 4-6.369 13.12-16.597 19.29-9.041 5.54-17.721 6-21.771 6.02-3.862.08-20.898.69-31.147-10.91-2.485-2.82-4.39-6.07-5.747-9.65-3.21-8.72-1.713-17.22-1.046-17.3zm56.879-46.34 1.546 1.31c-1.23-1.3-1.973-1.89-1.546-1.31z" clip-rule="evenodd"/></g></g><g clip-path="url(#B)"><mask id="C" width="128" height="128" x="722" y="1447" maskUnits="userSpaceOnUse" style="mask-type:luminance"><path fill="#fff" d="M722.4 1447.09h127.3v127.3H722.4v-127.3z"/></mask><g mask="url(#C)"><path fill="url(#D)" d="M849.7 1537.29c0 20.5-16.6 37.1-37.1 37.1h-53c-20.6.1-37.3-16.6-37.3-37.1v-53c0-20.5 16.7-37.2 37.2-37.2h53c20.5 0 37.2 16.7 37.2 37.2v53z"/><path fill="#fff" fill-rule="evenodd" d="M765.1 1538.79c-2-4.6-3.3-9.7-3.3-15v-.5l-17.4 15.5v18.4l20.7-18.4zm2.2-15.1c0 18.4 16.5 33.4 36.7 33.4v-13.8c-12.4 0-22.5-8.4-22.9-18.9l9.3-8.3c-2.4-4.4-4.1-9.3-4.7-14.4l-8.3 7.4c-5.9-11.3-18.6-18.9-33.1-18.9v13.8c12.7.2 23 9 23 19.7zm.9-45.2v-13.8c16 0 29.6 9.3 34.5 22l25.1-22.2v18.3l-7.4 6.5-10 9-4.9 4.3c2.4 8.6 11.5 15 22.3 15v13.8c-20.2 0-36.7-15-36.7-33.4 0-10.7-10.3-19.5-22.9-19.5z" clip-rule="evenodd"/></g></g><g clip-path="url(#E)"><mask id="F" width="164" height="164" x="951" y="1385" maskUnits="userSpaceOnUse" style="mask-type:luminance"><path fill="#fff" d="m951.779 1429.07 119.621-43.54 43.54 119.63-119.625 43.53-43.536-119.62z"/></mask><g mask="url(#F)"><path fill="url(#G)" d="M1102.25 1470.3c7.01 19.26-2.91 40.54-22.17 47.55l-49.81 18.12c-19.32 7.14-40.726-2.84-47.737-22.1l-18.126-49.81c-7.011-19.26 2.971-40.67 22.234-47.68l49.809-18.12c19.26-7.01 40.66 2.97 47.67 22.23l18.13 49.81z"/><path fill="#fff" fill-rule="evenodd" d="M1047.85 1496.27c8.46-10.11 11.69-19.05 9.43-26.74-3.41-11.42-17.97-16.02-17.97-16.02s16.38 3.19 21.21 14.41c2.77 6.44 4.55 24.21-25.16 45.77-4.62 3.38-8.15 5.09-8.15 5.09l-4.97-1.38s4.71-2.25 9.83-6.03c6.14-4.47 11.44-9.48 15.78-15.1zm-28.3 20.19s-2.1-.51-4.3-1.3l-.74-.27.63-.33c3.48-2.12 6.8-4.4 9.84-6.57 34.72-25.08 27.28-43.76 27.21-43.95l-.74-1.75s5.63 5.82 3.93 13.14c-3.39 15.82-15.88 27.71-25.84 34.84-5.46 4.01-9.71 6.09-9.86 6.25l-.09.04-.04-.1zm24.66-42.49c-6.56 12.39-15.7 20.61-22.18 25.31-5.21 3.81-9.15 5.56-9.34 5.63l-.66.24 1.22-5.12.1-.04a77.19 77.19 0 0 0 5.68-3.67c14.46-10.58 22.15-24.23 22.21-24.36 5.67-11.32-.33-16.69-.33-16.69.13.06 9.81 5.9 3.3 18.7zm-32.2 39.6c.09-.04 4.96-2.45 11.29-6.99 6.73-4.89 16.13-13 22.85-24.06 3.97-6.34 5.66-12.81 4.48-17.81-.57-2.45-5.08-6.34-5.08-6.34l1.22 1.58c.03.09 5.38 7.19-3.54 20.97-5.08 7.7-10.92 13.87-18.67 19.46-3.98 2.83-7.9 5.21-12.29 7.77l-.19.07-.02.22c-.1.89-.6 4.79-.56 4.89l-.08.66.59-.42zm32.25-78.36c-6.49 4.7-15.63 12.93-22.18 25.32-6.52 12.8 3.16 18.64 3.29 18.7 0 0-6-5.38-.33-16.7.15-.16 7.85-13.81 22.34-24.3a77.19 77.19 0 0 1 5.68-3.67l.19-.07 1.09-5.18-.65.24c-.29.1-4.13 1.82-9.43 5.66zm2.56-17.21s2.1.51 4.31 1.3l.73.27-.62.33c-3.48 2.12-6.81 4.4-9.85 6.57-34.71 25.08-27.27 43.76-27.21 43.95l.75 1.75s-5.63-5.82-3.94-13.14c3.34-15.69 15.83-27.58 25.75-34.81 5.46-4.01 9.8-6.12 9.86-6.25l.09-.03.13.06zm7.55 2.89c-.1.04-4.97 2.45-11.3 6.99-6.73 4.89-16.12 12.99-22.84 24.06-3.97 6.34-5.63 12.9-4.45 17.9.57 2.45 5.08 6.35 5.08 6.35l-1.22-1.58c-.03-.1-5.38-7.2 3.54-20.98 5.08-7.7 10.92-13.87 18.67-19.46 3.98-2.83 7.9-5.21 12.29-7.77l.19-.07.02-.22c.1-.89.6-4.79.56-4.88l.08-.67-.62.33zm-35.85 17.3c-8.45 10.1-11.69 19.05-9.42 26.74 3.41 11.42 17.96 16.02 17.96 16.02s-16.38-3.19-21.21-14.41c-2.77-6.44-4.55-24.21 25.17-45.77 4.62-3.38 8.15-5.09 8.15-5.09l4.97 1.38s-4.72 2.25-9.83 6.02c-6.14 4.47-11.45 9.49-15.79 15.11z" clip-rule="evenodd"/></g></g><g clip-path="url(#H)"><mask id="I" width="180" height="181" x="1161" y="1251" maskUnits="userSpaceOnUse" style="mask-type:luminance"><path fill="#fff" d="m1161.16 1333.69 97.51-81.82 81.83 97.51-97.51 81.83-81.83-97.52z"/></mask><g mask="url(#I)"><path fill="url(#J)" d="M1316.65 1320.96c13.18 15.7 11.14 39.09-4.57 52.27l-40.59 34.06c-15.72 13.32-39.25 11.27-52.42-4.44l-34.07-40.6c-13.18-15.7-11.12-39.23 4.58-52.4l40.6-34.07c15.7-13.18 39.23-11.12 52.41 4.58l34.06 40.6z"/><path fill="#fff" fill-rule="evenodd" d="m1259.03 1340.34 17.69-14.85c8.62 10.26 14.55 23.56 15.03 35.17-7.81 1.59-15.94 1.23-23.54-1.14-.74-3.68-2.75-11.52-9.18-19.18zm-23.2-18.78c3.45 1.15 10.96 4.5 17.52 12.32l17.69-14.85c-8.74-10.42-21.01-18.66-32.59-20.95-2.86 7.49-3.78 15.57-2.62 23.48zm.1-23.84c-5.56 14.84-3.66 32.04 6.08 45.67l-17 14.27c-14.4-17.16-20.83-43.48-6.74-55.31 4.84-4.19 11.06-5.49 17.66-4.63zm11.61 52.26c11.89 11.69 28.59 16.34 44.13 13.23-.25 6.86-2.62 12.9-7.68 17.14-14.09 11.83-38.97.85-53.3-16.23l16.85-14.14z" clip-rule="evenodd"/><path fill="#E60A7A" d="m1292.81 1292.54-28.42 23.85c-6.74 5.66-16.75 4.78-22.4-1.96l-23.85-28.42 24.36-20.44c8.96-7.52 22.34-6.35 29.87 2.61l20.44 24.36z"/><mask id="K" width="49" height="49" x="1231" y="1265" maskUnits="userSpaceOnUse" style="mask-type:luminance"><path fill="#fff" d="m1231.38 1286.39 25.43-21.34 22.76 27.11-25.43 21.34-22.76-27.11z"/></mask><g fill="#fff" mask="url(#K)"><path d="M1261.95 1297.15c-2.68 2.25-3.81 5.42-2.52 6.95 1.28 1.53 4.6.97 7.28-1.28 2.68-2.25 3.81-5.41 2.52-6.95-1.28-1.53-4.52-1.03-7.28 1.28zm-17.93-21.37c-2.68 2.25-3.81 5.42-2.53 6.95 1.29 1.53 4.6.97 7.29-1.28 2.68-2.25 3.81-5.42 2.52-6.95-1.29-1.53-4.52-1.03-7.28 1.28zm21.47 11.75c.62 3.53 2.81 5.99 4.76 5.66 2.02-.39 3.14-3.41 2.52-6.94-.61-3.54-2.81-6-4.75-5.67-2.03.39-3.08 3.49-2.53 6.95zm-27.53 4.83c.61 3.53 2.81 5.99 4.75 5.67 2.02-.39 3.14-3.42 2.53-6.95-.62-3.53-2.82-6-4.76-5.67-1.95.33-3.07 3.49-2.52 6.95zm16.22-18.32c-.74 1.93 1.38 4.46 4.76 5.67 3.37 1.22 6.54.65 7.28-1.28.73-1.92-1.39-4.45-4.76-5.67-3.3-1.28-6.61-.72-7.28 1.28zm-9.53 26.14c-.73 1.93 1.39 4.45 4.76 5.67 3.31 1.14 6.54.64 7.28-1.28.74-1.92-1.38-4.45-4.76-5.67-3.37-1.21-6.62-.58-7.28 1.28z"/></g></g></g><g clip-path="url(#L)"><mask id="M" width="175" height="175" x="1325" y="1062" maskUnits="userSpaceOnUse" style="mask-type:luminance"><path fill="#fff" d="m1325.29 1172.45 63.65-110.25 110.25 63.65-63.65 110.25-110.25-63.65z"/></mask><g mask="url(#M)"><path fill="url(#N)" d="M1467.06 1107.3c17.75 10.25 23.83 32.93 13.58 50.68l-26.5 45.9c-10.22 17.89-33.03 24-50.78 13.75l-45.9-26.5c-17.75-10.25-23.87-33.06-13.62-50.81l26.5-45.9c10.25-17.75 33.07-23.87 50.82-13.62l45.9 26.5z"/><path fill="#fff" fill-rule="evenodd" d="m1446.74 1174.9-9.99-17.31c-.44-.83-.78-1.84-.73-2.73-.03-.95.3-1.91.8-2.78.5-.86 1.21-1.49 2-2.07.84-.45 1.84-.79 2.73-.73l.36-.03c5.52 9.65 7.55 13.13 12.05 20.93l2.6 4.5-.15.26c-.5.87-1.21 1.5-2.01 2.08-.83.44-1.83.78-2.73.73-.94.03-1.91-.29-2.77-.79-.95-.55-1.72-1.23-2.16-2.06zm8.23-20.65-17.32-10c-.87-.5-1.5-1.21-2.08-2.01-.44-.83-.78-1.84-.73-2.73-.03-.94.29-1.91.79-2.78.5-.86 1.21-1.49 2.01-2.07l.32-.16 25.38 14.65.02.36c.03.94-.21 1.96-.71 2.82-.5.87-1.21 1.5-2.09 2.03-.83.44-1.84.78-2.73.73-1.07-.15-2.09-.39-2.86-.84zm-25.68 34.48-.01-19.99c-.04-.94.2-1.96.7-2.82.5-.87 1.26-1.58 2.01-2.08.88-.53 1.84-.78 2.78-.81 1.07.15 2 .34 2.86.84l.26.15.03 29.35-.32.16c-.83.44-1.84.78-2.73.73-.95.03-1.91-.3-2.78-.8-.86-.5-1.49-1.21-2.07-2-.45-.84-.7-1.79-.73-2.73zm-17.06-9.85-.03-.36c-.03-.95-.24-1.99-.82-2.79-.44-.83-1.21-1.5-2.07-2-.87-.5-1.8-.69-2.78-.8-.94.04-1.98.24-2.73.74l-17.22 10.03c-.83.44-1.59 1.16-2.09 2.02-.5.87-.69 1.8-.71 2.83.03.94.24 1.98.73 2.73.44.83 1.21 1.5 2.08 2l.26.15 25.38-14.55zm25.71-64.14-17.31 9.98c-.83.45-1.84.79-2.73.73-.95.04-1.91-.29-2.78-.79-.86-.5-1.49-1.21-2.07-2.01-.45-.83-.79-1.83-.74-2.73l-.02-.36 25.35-14.69.26.15c.86.5 1.49 1.21 2.07 2 .44.84.79 1.84.82 2.78.03.95-.3 1.91-.8 2.78-.55.95-1.22 1.72-2.05 2.16zm-51.07 39.45-17.32-10c-.86-.5-1.79-.69-2.77-.79-.95.03-1.99.24-2.74.73-.83.44-1.59 1.16-2.09 2.02-.5.87-.69 1.8-.71 2.83l.03.36 25.37 14.65.32-.16c.84-.44 1.51-1.21 2.01-2.08.5-.86.69-1.79.79-2.77-.03-.94-.23-1.99-.73-2.73-.58-.8-1.29-1.56-2.16-2.06zm8.36-44.48.01 19.98c.03.95-.21 1.96-.71 2.83-.5.87-1.21 1.49-2 2.07-.8.58-1.84.79-2.73.74-.95.03-1.91-.3-2.78-.8l-.26-.15-.03-29.34.32-.16c.89-.53 1.84-.79 2.74-.74.94-.03 1.91.3 2.77.8.87.5 1.5 1.21 2.08 2 .3.87.56 1.83.59 2.77zm-2.5 56.53-19.98.01c-.94.03-1.98.24-2.73.73-.83.44-1.59 1.16-2.09 2.02-.5.87-.69 1.8-.71 2.83.03.94.24 1.98.73 2.73l.16.32c11.92-.04 15.68.05 26.3.06l3.05-.09.15-.26c.5-.86.69-1.79.79-2.77.11-.98-.24-1.99-.73-2.73-.44-.84-1.21-1.51-2.07-2.01-.87-.5-1.84-.83-2.87-.84zm14.5 25.69 10-17.32c.5-.87 1.21-1.5 2.09-2.03.84-.44 1.84-.78 2.74-.73.94-.03 1.9.29 2.77.79.87.5 1.5 1.21 2.07 2.01l.16.32-14.65 25.38-.36.02c-.94.03-1.9-.29-2.77-.79-.87-.5-1.5-1.21-2.07-2.01-.45-.83-.79-1.84-.74-2.73.07-1.12.31-2.13.76-2.91zm-24.63-42.74.36-.03c.94-.03 1.99-.24 2.73-.73.84-.44 1.51-1.21 2.01-2.07.5-.87.69-1.8.79-2.78-.03-.94-.24-1.98-.73-2.73l-9.98-17.31c-.44-.83-1.21-1.51-2.07-2.01-.87-.5-1.8-.69-2.78-.79-.94.03-1.98.24-2.73.73-.83.44-1.51 1.21-2.01 2.08l-.15.26 2.6 4.5c4.37 7.83 6.4 11.31 11.96 20.88zm24.69-25.36 10-17.32c.5-.86.69-1.79.7-2.82-.03-.95-.24-1.99-.73-2.73-.44-.84-1.21-1.51-2.07-2.01-.87-.5-1.8-.69-2.78-.79l-.36.02-14.65 25.37.16.33c.44.83 1.21 1.5 2.08 2 .86.5 1.79.69 2.77.8.94-.04 1.99-.24 2.73-.74.89-.53 1.65-1.24 2.15-2.11zm44.47 8.36-19.98.01c-.94.03-1.91-.29-2.77-.79-.87-.5-1.5-1.21-2.08-2.01-.44-.83-.78-1.84-.73-2.73.02-1.03.21-1.96.71-2.82l.15-.26 29.34-.03.16.32c.45.83.79 1.84.82 2.78.04.94-.29 1.91-.79 2.78-.5.86-1.21 1.49-2.01 2.07-.79.58-1.87.65-2.82.68z" clip-rule="evenodd"/></g></g><g clip-path="url(#O)"><mask id="P" width="148" height="148" x="1424" y="839" maskUnits="userSpaceOnUse" style="mask-type:luminance"><path fill="#fff" d="m1424.38 964.796 22.1-125.365 125.37 22.099-22.1 125.365-125.37-22.099z"/></mask><g mask="url(#P)"><path fill="url(#Q)" d="M1535.31 855.089c20.19 3.559 33.65 22.789 30.1 42.977l-9.2 52.194c-3.48 20.305-22.83 33.852-43.02 30.293l-52.19-9.201c-20.19-3.559-33.74-22.904-30.18-43.092l9.2-52.195c3.56-20.188 22.91-33.735 43.1-30.176l52.19 9.2z"/><path fill="#fff" fill-rule="evenodd" d="M1456.99 905.964c-4.44 25.211 10.36 48.941 33.11 52.951 22.75 4.011 44.78-13.227 49.22-38.438 4.44-25.211-10.36-48.941-33.11-52.951-22.75-4.01-44.78 13.227-49.22 38.438zm80.09 15.133c.99-5.613-23.01-21.521-37-23.986-13.98-2.465-40.54 6.46-41.2 10.203-.65 3.742 19.61 18.99 35.56 21.803 15.95 2.812 41.65-2.406 42.64-8.02z" clip-rule="evenodd"/></g></g><g clip-path="url(#R)"><mask id="S" width="148" height="148" x="1424" y="588" maskUnits="userSpaceOnUse" style="mask-type:luminance"><path fill="#fff" d="m1446.46 735.768-22.1-125.365 125.37-22.099 22.1 125.365-125.37 22.099z"/></mask><g mask="url(#S)"><path fill="url(#T)" d="M1513.19 594.744c20.19-3.558 39.42 9.907 42.98 30.096l9.2 52.194c3.68 20.27-9.87 39.615-30.06 43.174l-52.19 9.201c-20.19 3.558-39.54-9.989-43.1-30.177l-9.2-52.194c-3.56-20.189 9.99-39.534 30.18-43.093l52.19-9.201z"/><path fill="#fff" fill-rule="evenodd" d="M1507.03 712.4c-26.99 4.756-52.8-12.627-58.7-39.205 8.4 15.984 26.43 25.499 45.14 22.201 23.24-4.097 38.72-26.321 34.62-49.563-3.21-18.218-17.46-31.649-34.65-34.71 26.18-2.382 50.29 15.707 54.94 42.1 4.99 27.754-13.58 54.281-41.35 59.177zm-27.12-93.917c19.11-3.368 37.41 9.449 40.78 28.554.08.492.17.985.26 1.477-5.52-7.659-15.11-11.959-24.96-10.223-13.69 2.413-22.85 15.503-20.42 29.29 1.75 9.947 9.07 17.49 18.25 20.035l-1.47.26c-19.11 3.368-37.41-9.449-40.78-28.554-3.48-19.186 9.24-37.471 28.34-40.839z" clip-rule="evenodd"/></g></g><g clip-path="url(#U)"><mask id="V" width="175" height="175" x="1325" y="339" maskUnits="userSpaceOnUse" style="mask-type:luminance"><path fill="#fff" d="m1388.89 513.006-63.65-110.242 110.25-63.65 63.65 110.242-110.25 63.65z"/></mask><g mask="url(#V)"><path fill="url(#W)" d="M1403.36 357.664c17.75-10.25 40.43-4.174 50.68 13.579l26.5 45.898c10.38 17.789 4.27 40.601-13.48 50.851l-45.9 26.5c-17.75 10.25-40.57 4.138-50.82-13.615l-26.5-45.898c-10.25-17.753-4.13-40.565 13.62-50.815l45.9-26.5z"/><path fill="#fff" d="M1397.44 446.411c-.24-.21-.45.027-.21.237-.24-.21-.5-.06-.35.2l.05.086c-.13-.036-.17.1-.12.187-.09.05-.21.237-.21.237.05.086.19.123.19.123.13.036.18.123.15.26.1.173.15.259-.03.359.1.174.07.31.03.447-.06.496-.4.696-.74 1.119l-.13-.036s-.21.236-.24.596c-.5.523-.6 1.156-.65 1.876-.12.187-.18.683-.29 1.093l.12-.187.18-.1c.01.223-.06.497-.09.856.05.087.19.124.19.124-.04.136-.25.373-.15.546.05.087.05.087.19.123-.27.733-.86 1.306-1.09 1.903-.15.546-.13 1.576-.5 2.135-.32.647-.05 1.526-.37 2.173.23-.014.02.223.2.346-.08.05-.17.1-.12.187l.13.619c.03-.136.07-.273.11-.41-.06 1.303-.29 2.706-.52 4.108-.71 3.762-1.74 7.586-2.45 11.348.12-.187.29-.287.39-.114-.14.547-.49 1.553-.32 2.036.52-1.689.91-3.415 1.88-4.548.11.396.26.656.15 1.066-.14-.037-.19-.123-.36-.023.32.16.2.346.11.396a94.624 94.624 0 0 0-2.3 8.606c1.04-1.989 1.05-4.185 2.15-5.864-.48 2.359-.88 4.668-1.73 7.003l-.78 2.646c.18-.1.4-.114.48-.164l.91-2.832c.26-.956.46-1.999.87-2.695.56-1.02 1.19-1.73 1.21-2.896-.17.1-.28.51-.5.524.47-1.776.84-3.948 1.68-5.478.14.037-.14.547.12.397.06-.497.38-1.143.83-1.753-.1-.173-.26.15-.23-.21.55-1.243.32-2.842 1.23-4.061.02.223.12.396.27.656.11.396-.33-2.355.83-2.559.98-.103-.36.783.08 2.146.16.483.55.146.87.306-.68 2.818-1.22 5.091-1.39 5.997l.18-.1c.24-.373.09-.633.44-.833l.22-.014c-.73 1.926-2.64 6.028-1.71 8.033.07-.273.15-.546.41-.696.39-.114.41.109.61.456-.03-.447-.04-.67-.24-1.016l-.26.15c-.12-.397-.42-.916 0-1.389.1.173.3.519.61.456-.3-.52-.41-.916-.04-1.476.18.123.28.296.38.47.18-.1.18-.1.25-.374.02-.359.33-1.229.28-1.316.07-.273.1-.633.1-.633l-.24-.209.51-.524c-.29-.296-.57.214-.86-.083l.65-1.875.52-.3c.35-.2.37.246.37.246-.57.213-.69-.406-.75.896l.4-.113c.6-.35.24-1.179.76-1.479l-.05-.087c.08-.05.22-.013.31-.063-.14-.037-.02-.224-.12-.397-.05-.086-.05-.086.04-.136l-.05-.087.26-.15c-.35-.606.16-1.129.27-1.539.51-1.106 1.07-2.349 1.26-3.615.21-.237.4-.697.78-1.839.15-.547-.34 3.201-.13 2.965.56-1.02 2.01 3.687 2.01 3.687l.22-1.626c.23.21 1.07-.737 1.16-.787l.17-.1-.46-.196.18-.1-.34-.383c.35-.2.66-.263 1.07-.154l-.05-.086c-.15-.26.14-.547.29-.287.1.173-.07.273-.16.323l.38.247-.3.286.15.26c-.26.15-.38.337-.67.847l-.15-.26-.68.623c.2.346.98-.104 1.28-.39.52-.3.59-.573 1.06-.96l.1.173.09-.05-.15-.26-.1-.979-.33-.16c.35-.2.2-.46.15-.546-.25-.433-.3-.52-.65-.32l-.12.187-.14-.037s-.11-.396-.04-.669l.08-.274.44-.026c-.17.1-.07.273.03.446l.26-.15.1.173c.13.037.57-.213.74-.313 0 0 .21-.237.11-.41l-.05-.087.47-.386s-.15.546-.06.496l.42.333c.1-.633-.24-1.016-.54-1.535.35-.2.4-.114.66-.264.25-.373.23-.596.08-.856-.08.05-.42.473-.32.646-.46-.196-.82-.219-1.13-.156l.16-.323-.37-.246-.19-.124-.1-.173c.75.493 1.21.689 1.94.153-.2-.347-.43-1.139-.39-1.276l.38-.337-.45-.779.44-.25.28.296.09-.05c.07-.273-.04-.669-.04-.669l-.75-.493s-.05-.087-.18-.123c.28.296.7-.177.85.083l.17-.1c.18-.1.3-.287.47-.387.14.037.4-.113.35-.2-.1-.173-.19-.123-.19-.123.1-.633-.56-1.176.17-1.712l-.46-.197c-.3-.519.14-1.352.44-1.639l-.24-.21c.35-.2.88-.277.5-.746.08-.05.29-.287.49.06.09-.05.3-.287.15-.547l-.53.077c.44-.027.24-.373.5-.523l.2.346.26-.15-.1-.173c.26-.15.45-.027.78-.45-.08-.533-.4-.693-.76-.716l-.14-.037.06-.496.2.346.26-.15c-.01-.223.17-.906.17-.906l-.54-.146.14-.547.38.247.29-.287c.19.123.46.197.59.01.29-.287-.21-1.153-.85-.666-.11-.396.31-2.259.44-2.445.07-.274.34-1.007.51-1.107.05.087.01.224.01.224l.05.086c-.08.05-.03.137-.15.323l-.04.137-.2.46c-.13-.037-.22.013-.34.2-.04.136.06.31.2.346-.08.273-.06.497.02.447.09-.05.04-.137.16-.324.05.087.19.124.19.124.3-.287.23-.597-.09-.757l.04-.136c.18.123.63.096.65-.264-.01-.223-.29-.296-.51-.283l.04-.136c.28.296.37.246.74.493.14.036.36.023.5.059.17-.1.22-.013.4-.113.08-.05.03-.137.03-.137l.09-.05.09-.05c.69-.4.62-1.516.17-2.295-.22.013-.34.2-.6.35l-.05-.087c.03-.136.07-.273.11-.409l.72.046c.15.26.2.346.56.37l-.15-.26-.19-.123c.31-.064.62-.127.92-.414-.27-.656-1.39-1.395-2.23-1.255l.27-1.539c.05.086.23.21.37.246.05.087.14.037.14.037.13.036.31-.064.39-.114l.5.866c.47-.386.02-1.166.47-1.192l.26-1.54c.23-.013.49-.163.6-.573-.1-.173-.29-.296-.34-.383.3-1.676.59-3.575.46-3.611l.52-2.496-.24-.209c-.25-.433 1.41-1.966.35-2.396l.1-.633c3.61.455 7.17.824 10.68 1.106.05.087.29.296.56.37.3-.287.66-.264.87-.5.63.096 1.21.106 1.47-.044l-1.62-.216c-.15-.26.01-.583-.45-.78-.28-.073-.71.177-.82.587-1.86-.426-3.67-.765-5.33-1.427.49-.164.61-.35 1.47-.267-.04.136.01.223.2.346-.07-.31.34-.2.48-.163l5.7.867c.06.31.21.57.26.656.45-.026.7-.176.95-.55l1.63.216c-.35.2-.46.61-.57 1.02-.27-.073-.6-.233-.91-.17.41.11.74.27.61.457-.21.236-.8.003-1.11.067.6.233 1.36.366 1.86.425.14.037.41.11.63.097 1.22.106 2.3.176 3.43.332-1.33-.503-2.09-.413-3.17-.482.13-.187.25-.373.24-.597 1.28.416 2.64.782 3.76.715l-.46-.196c.34-.2.4-.696.25-.956l1.58.129c-2.64-.782-5.25-.894-7.7-1.33.04-.136-.01-.223-.06-.31 1.58.13 3.29.296 4.92.512.05.086.18.123.32.16l.08-.05 3.94.615 2.89.408c-.16.324-.05.72.44.557.08-.05.07-.274.06-.497l.22-.013-.26.15c.55.146 1.47.539 2.04.326l-1.78-.476c.86.083 1.63.216 2.45.435-.09.05-.18.1-.13.187.1.173.41.11.4-.113.5.059.91.169 1.23.329 2.59-.111 5.55.608 8.67 1.226 2.64.559 5.6.695 8.41 1.154l6.41.914c.55.146 2.45.435 1.63.216a1012.009 1012.009 0 0 0-33.71-5.593l-.14-.036c-.03-.447-.13-.62-.49-.643-.26.15-.24.373-.14.546l-1.13-.156c.03-.136-.02-.223-.15-.26-.04.137-.04.137-.13.187l-.49-.06c.03-.136-.07-.31-.12-.396-.27-.073-.48.163-.6.35l-1.32-.28c-1.09-.292-2.1-.635-3.05-.891.44-.027.89-.054 1.32-.304 1.97-.79 3.88-.278 5.76.371.46.197 1.06.43 1.58.13.03-.137.29-.287.39-.114.05.087.1.173.02.223.13.037.22-.013.39-.113l.15.26.09-.05-.05-.087.13.037c.19.123.5.06.76-.09.14.036.17-.1.21-.237.1.173.37.246.7.406l.13.037c-.24.373-.08.856.42.916.17-.1.29-.287.4-.697.55.147 1.1.293 1.27.193.3-.286.29.297.96.256l-.35-.606.54.147c.48.419.77.133 1.23.329l.17-.1.18-.1.27.073c.29.297 1.22.106 1.22.106l.11.397c.17-.1.31-.064.72.046.11-.41.02-.36-.03-.446.47-.387.86.083 1.16.602l-.04-.669c.66-.264 1.25-.031 1.88.066-.17.1-.07.273.1.173.09-.05.04-.137.04-.137.45-.026.81-.003 1.15-.203l-1.28-.416c.52-.3 1.28-.39 1.75-.777-.39-.47-4.77-1.058-5.39-.931l.2.346c-.58-.009-1.92-.735-2.44-.435l.25.433c-.38-.247-.85-.666-1-.926l.09-.05c.47-.387.93-.19 1.13.156.08-.05.24-.373.24-.373.1.173.29.296.65.32l-.04.136c.05.087.31-.063.4-.113.55.146 1.22.106 1.54.266l-.64-.903c.64.903 3.43 1.945 4.47 1.345.35-.2-.14-.843.38-1.143l.13-.187c.08-.05 1.93.153 2.1.053l-.28-.297c.73-.536 3.41.915 4.32.279l-2.72-.509c-.09.05-.52.3-.62.127l-.15-.26.21-.237c.56.37 1.03-.017 1.55-.317l.6-.35c-.44.027-1.88-.066-2.03-.325l-3.09-.756-.19-.123c.36.023 1.77.476 2.03.326.18-.1.21-.237.06-.496.55.146 3 .582 3.49.641l.77.133c-.72-.852-2.43-1.018-3.43-1.138l-.1-.173.31-.063 1.22.106-.05-.087s-.81.004-.6-.233l-2.59-.695-.29-.297c.19.124 1.42.453 1.68.303.26-.15.24-.373.14-.546.55.146 1.13.156 1.58.129-.65-.32-1.78-.476-2.61-.112l-.18-.124c-.1-.173-.56-.369-.87-.306l.26-.15c-.39-.469-.7-.406-1.22-.106.1.173-.07.273-.26.15l.26-.15c-.05-.087-.31.063-.26.15l-.17.1c-.3-.52-.29-.296-.09-.756l.62-.127.17-.1-.15-.26c-.64.487-3.18.684-3.78-.355-.04.137.06.31.11.396-.31.064-.5-.059-.55-.146-.03.137-.29.287-.39.113-.05-.086-.02-.223.12-.186-.19-.123-.37-.247-.79.227l.07-.274-.41-.109-.12.186-.09.05c-.55-.146-1.01-.343-1.42-.452l-.07.273c-.62.127-.56-.37-.76-.716l.35-.2c-.2-.347-.55-.147-.83-.443l-.25-.433.83.443.01-.583.76.716-.08.273.1.173.4-.113.17-.1-.73-1.076s-.81.004-.65-.32l-1.4-.229.64-.487-1.64-.439c.23-.013.72.047.9-.053l.08-.05.05.086c.52-.3 1.98.822 2.2.003l3.7.405c-.24-.21-.56-.37-.79-.356-.41-.11-.82-.22-1.18-.243l-.08.05-.41-.11c-.45.027-.86-.083-1.27-.193l-.09.05-.27-.073.22-.013c-.27-.073-.41-.11-.54-.147.15.26-.15.547-.3.287-.05-.087-.01-.223.07-.273l-1.1-.516c-.23.013-.55-.147-.82-.22-.17.1-.55-.146-.98.104l-.09.05.55.146.05.087c-.22.013-.62.127-.81.003l-.2-.346.16-.323c.09-.05.31-.064.4-.114-.31.064-.62.127-.89.054-.04.137-.08.273.02.446l-.72-.046c-.46-.196-2.49-.522-2.9-.632l.12-.187c1.22.107 2.09.413 3.13.619-1.83-2.175-4.89-.065-6.96-1.06l.2.346-1.37-.366c.02-.36-2.61-.919-3.33-.965l.09-.05c.57-.213.3-.287.63.096.45-.026.55.147.81-.003l-.15-.26c-2.03-1.715-3.65.488-6.24-.208-1.14-.379-6.46-.194-6.86-.887-.13-3.621.72-8.152 1.04-10.188.08-.856.8-5.424-.51-7.092l.43-.25-.29-.297.54-.076-.03-.447-.43.25-.19-.123c-.05-.087-.07-1.116-.22-1.376.45-.027.57-.213.51-.523.62-.127 1.01-.24 1.02-.823-.36-.83-.84-.666-1.19-1.272a.328.328 0 0 0-.23.013l-1.09-1.099c.13.037.36.023.62-.127.14-.546-.85-.666-.91-.169-.24-.21-.44-.557-.64-.903a2.753 2.753 0 0 0-2.03-1.132c-.19-.123-.33-.16-.46-.196.12-.187.29-.287.19-.46.48-.164.81-.004 1.38-.217-.39-.47-.49-.643-.67-1.349.23-.014.3-.287.25-.373-.66.263-1.63-.216-1.46-1.123-.38-.469-.89-.752-1.32-.502-.87.5.19 1.735.95 1.645-.41.697-.48 1.776.32 2.355.05.087-.04.137-.04.137l-1.34.08.17-.1c.1-.633-.6-1.039-1.04-1.012-.25.373-.09.856.25 1.239-.67.04-1.12.067-1.32-.279-.3-.52.17 4.291-.13 3.771-.34.2.03-3.944-.49-3.644-1.5.986-4.15-2.797-8.32 1.575l-.84.946c.04.67-.15 3.548-.67 3.848-.99.687-.28-4.687-.97-4.287l-.38 4.951-.22.013c.29.296.74 1.076.45 1.586.3-.287.57-.214.77.133-.44.026-.29.286-.5.523.1.173.3.519.38.469.3 4.911.15 9.848-.19 14.662-7.6 1.039-30.34-6.153-32.29-2.721-.18-.123-.46-.196-.52-.506-.31.063-.53.077-.81.003-.7.177-.94.774-.55 1.243-.17.1-.3.287-.55.437-.25-.433-1.12.067-.56.436.74-.313 1.26.776 2.02.909.14.037.4-.113.3-.286.05.086.19.123.29.296-.31.063-.39.337-.73.537a.3.3 0 0 0 .01.223c-.05-.087-.05-.087-.23-.21-.67.04-.72.76-.14.77.18-.1.35-.2.39-.337.06.31.25.433.45.779l-.09.05c.05.087.19.124.19.124l.1.173c.05.086.01.223.11.396.1.173.24.21.29.297-.44.25-1.08.736-.74 1.119.13.037.36.023.58.01-.26.15-.07.273.11.396.14.037.4-.113.52-.3-.18-.123-.32-.159-.28-.296l.34-.2c-.1-.173-.06-.31-.11-.396.13.036.32.159.54.146l-.38.337c.19.123.39.469.65.319l-.1-.173.03-.137.28.074.17-.1.04-.137.13.037.05.086c.14.037.23-.013.26-.15.15.26.03.447-.14.547-.52.3-1 .463-1.44.713.1.173.38.246.65.32.01.223.21.569-.05.719l-.44.027.1.173.27.073s.5.06 1.21.107c-.12.186-.29.286-.19.459l-.45.027-.1-.173c-.05-.087-.13-.037-.13-.037-.59-.009-1.03.017-1.12.067l-.38.337c-.18.1-.4.113-.57.213-.09.05-.15.547-.05.72l.29.296-.52.3.03-.136c-.13-.037-.26.15-.21.236l.14.037c.09-.05.57-.213.77.133.05.087.29.296.11.396l-.49-.059.23.209c.15.26.29.297.44.557l.21-.237.17-.1c.12.396.18.706.11.979l.51.283c.41.11.58.01.9.17.46.196.96.256 1.54.266l.15.26.26-.15c.05.086.24.21.29.296 1.21.106 2.22.449 3.15 1.065.14.037.31-.063.4-.113 1.42.452 2.86.545 4.34.725.36.023.64.096 1.01.342.14.037.4-.113.45-.026l1.19.466c-2 .343-7.04-.788-8.73-.73-.54-.73-4.04-.789-3.94-.615.04 1.475 3.43 1.138 3.72 1.434.49.06 3.78.355 4.51.625-.43.25-1.3-.056-1.73.194-.56-.37-3.02-.222-2.82.124-.21.237 3.29.295 3.03.445.78.357-1.69.864.35 1.413.19.123.5.06.69.183.03-.137.12-.187.21-.237.17-.1.34-.2.72.047.12-.187.44-.027.67-.041.85.083 1.74.613 2.74.956.14.036.4-.114.55.146 2.21 1.032 3.92.392 5.99.581l.04-.137 1.04.207.04-.137c1.21.106 2.61.919 3.82 1.025.86.083 2.38.126 3.61.455l.55.146-.06.497c.09-.05.35-.2.45-.027.05.087-.25.373-.35.2l-.05-.087c-.22 1.626-.71 3.762-.81 4.395l-.1-.173-.11-.397c-.56.437-.73 1.343-.29 1.899l.28.297-.06.496-.49-.06.42.333.05.087c.39.469-.48 1.776-.11 2.605l.08-.05c.09-.05.16-.323.2-.46l.15.26c.54.729.07 1.922.71 2.825-.82.586-.72.76-.17 1.712l-.37-.246c.1.173-.02.36-.2.46.53.506.4.692.19.929.09-.05.14.037.14.037.05.086-.3.286-.35.2.02.223.17.483.6 1.039l-.39.113-.41-.11c-.26.15-.19.683-.19.683.05.087.2.347.29.297l-.35.2c.05.086.65.319.65.319l-.04.137-.17.1-.14-.037-.31.064c-.18-.123-.46-.197-.56-.37l-.05-.086.04-.137-.05-.087c.09-.05.26-.15.21-.236.19.123.26-.15.21-.237zm51.69-30.073-.18.1c.28.073.82.22.92.393.05.086.17.483.27.656-.28-.073-.56-.37-.91-.17l-.12.187c.22-.013 1.23.329 1.85.203l-.35.2c-.52.3-.62.126-1.02.24l1.63.216.17-.1-.01-.223 1.39.006c-.04.136.29.296.7.406-.14-.037-.14-.037-.04.137.05.086.05.086.14.036l.03-.136c1.45.316 4.42.451 4.68.301-.68-.183-2.32.184-2.91-.632l-.05-.086c.23-.014.86.083 1.34-.081-.97-.479-3.53-1.311-4.39-.811l-.12.186.41.11c-.92.414-.61-.456-1.41-.229-.08.05-.65.263-.65.263l-.1-.173.29-.287c-.25-.433-1.04-1.012-1.56-.712zm-47.92 36.208c-.18-.123-.44.027-.47.387l.33.16-.17.906-.76 3.092c-.19 1.266-.49 2.942-.54 2.855-.05-.087-.12-.396-.13-.62l-.36.783c.05.087.14.037.19.124.05.086-.12.186-.17.1l-.05-.087-.09.05c.15-.546.34-1.006.44-1.639.01-1.389.63-2.905.81-3.005.25-.957.37-1.949.4-2.892-.22.013-.11.41-.24.373-.01-.806.34-1.812.17-2.295-.07.273.01.806-.34 1.006.1-.633.37-1.366.82-1.976.12.396-.04.72.07 1.116.23-.596.33-1.229.39-1.726-.17.1-.33.423-.61.35.04-.136.05-.719.48-.969-.12.186-.19.459-.01.583.15-.547.35-1.007.44-1.64.09-.05.26-.15.3-.286-.25 1.762-.63 3.711-.9 5.25zm24.31-24.89c-.16-.483-.94-.839-1.26-.193l-1.64-.439c.31-.063.57-.213.76-.09l.44-.027.05.087c.14.036.18-.1.26-.15.76-.091 1.41-.354 2.31-.408-.31.87 1.14 1.186 1.13.157l-.29-.297c.09-.05.09-.05.22-.013 1.28.416 2.23 1.255 3.64 1.708-.13-.037-.27-.074-.36-.024.24.21.96.257 1.06.43-.81.003-1.71-.166-2.65-.199.34-.2.35-.783-.28-.88-.31.064-.51.524-.22.82l-.55-.146c.04-.137-.2-.347-.43-.557-.23.014-.35.2-.56.437-.55-.146-1.13-.156-1.63-.216zm-22.44 2.916c.03-.137.24-.373.33-.423l.56.369c.1.173.16.483.17.706-.28-.296-.57-.592-.91-.392-.47.386.52 1.312.79.579.03.446-.12.993-.18 1.489-.02.36-.04.72-.07 1.08-.85-.083-1.62 1.396-.36 1.366.05.086.13.036.22-.014l-.14 1.353c-.36-.023-.81.003-1.07.153l.66-6.266zm-38.39-24.487c.45-.026.77-.673 0-.806-.35.2-.47.387-.37.56l-.43-.333c-1.04-.206-2.1.754-1.65 1.533.1.173.37.246.38.47.4-.114.98-.104 1.42-.354.74-.313.32-.646.65-1.07zm53.99 38.11c1.67-1.309-.95-3.034-1.71-1.555-.39.92.65 1.932 1.71 1.555zm-57.06-38.418c.21-.237.2-.46.24-.597.49.06 1.04-.6.3-.869-.17.1-.39.113-.52.3-.18-.124-.49-.06-.8.003-.24-.21-.55-.146-.86-.083-.78.45-.92.997-.49 1.553.38.246.88-.277 1.33-.304.36.023.54.147.8-.003zm58.74 29.939c1.21-.117 2.21-1.386 1.28-2.585-1.11.067-2.29 1.436-1.28 2.585zm-26.91 35.979c-.19-.124-.29-.297-.45.026-.06-.309.15-.546 0-.806.08-.05.18.123.36.023.45-1.416.28-2.705.74-4.121.03-.136-.31.064-.29-.296-.04-.67.67-1.43.94-2.163-.23-.209-.33.424-.57.214.03-.36.56-.437.73-.537l.09-.05.2.347c-.08.856-.3 1.675-.43 2.445a50.744 50.744 0 0 1-1.33 5.501c-.38-.247-.25-.433.01-.583zm-27.42-63.495c-.02-.223-.28-.073-.38-.246-.18-.123-.01-.223-.2-.346-.13-.037-.41-.11-.46-.197-.39.114-.65.264-.81.587-.04.136.06.31.25.433-.23.013-.4.113-.61.35l.3.519c.46.197.97-.326.9-.636l-.05-.087c.09-.05.14.037.23-.013.18.123.32.16.54.146.21-.236.39-.336.29-.51zm53.71-23.161c.21-.236.46-.61.39-.919-.54-.147-.99-.926-1.69-.526-.59.573.38 1.859 1.3 1.445zm17.91 27.418c.1.174.45-.026.35-.2.85.083 1.88.066 2.55.026-1.8-.116-4.18-1.048-5.27-.534l-.18.1c.19.123 1.46.316 2.76.372-.09.05-.26.15-.21.236zm-.15 19.139c-.87-.306-1.69-.525-2.36-.485-.06-.31-.13-.62-.36-.83l2.98.359c-.16.323-.32.647-.26.956zm-65.49-16.228c.04-.137.02-.36-.11-.397 2.34.263 6.85.664 6.9.751-.18.1-4.13-.155-6.79-.354zm50.51 17.486c.37.246.73.27 1.2-.117.16-.323.19-.683-.2-1.153-.6-.233-1.57.677-1 1.27zm36.31-4.106-.02-.447c.08-.05.39-.113.48-.163-.41-.11-.44-.556-1.02-.566l.1.173c.05.087.19.123.32.16-.48.163-.85-.083-1.29.167l.1.173-.06.496.1.174c.38.246.77.133 1.12-.067l.17-.1zm-61.8 15.358.18-.1-.18.1c.21-.237.25-.373.32-.646l.05.086c.05.087.14.037.14.037-.04.136-.16.323-.15.546-.08.05-.21.237-.21.237.05.086.14.036.14.036-.09.05-.04.137.01.224l.08-.274c.08-.05.21-.236.16-.323.24-.373.44-.833.41-1.279l-.24.373c-.14-.037-.31.063-.35.2.15-.546.03-.943.45-1.416.09-.05.14.037.19.123.04-.136-.01-.223.07-.273-.08.05-.17.1-.22.013-.19-.123.02-.359.01-.583-.16.324-.28.51-.41.697-.1-.173-.44.027-.34.2.05.086.36.023.39-.114l-.11.41c-.13-.036-.39.114-.29.287.05.086.18.123.22-.014.05.087-.04.137-.04.137-.13-.037-.39.113-.29.287.05.086.13.036.13.036l-.03.137.05.086c-.1-.173-.4.114-.3.287.19.123.27.073.31-.063l-.02.359c-.1-.173-.36-.023-.26.15.08-.05.08-.05.13.037-.18-.123-.44.027-.34.2.23.21.49.06.34-.2zm5.89-3.4c-.05-.087-.1-.173-.18-.123l.18.123c.02 1.029-.19 2.072-.34 3.202-.07-.31-.44-.557-.79-.357l.04-.136c.07-.273.3-.287.38-.337-.06-.31.05-.719.07-1.079.05.086.14.036.14.036.33-.423.18-.683-.09-.756-.05-.086-.01-.223-.06-.31.1.174.63.097.65-.263zm37.46-7.312c.03-.359.47-.386.73-.536-.16-.483-.32-.966-.99-.926-.65.487-.16 1.129.26 1.462zm-27.19 25.288c.02-.36-.01-.806-.57-1.176-.17.1-.39.114-.69.4-.15.547.79 1.163 1.26.776zm-14.35 5.745c-.28-.073.19-3.461.33-3.425.23.21-.1 3.635-.33 3.425zm28.61-33.84c-1.66-.079-3.38-.245-5.24-.671 1.66.079 3.43.332 5.24.671zm29.07-11.243-.26.15c.34.383 1.78.476 2.12.276-.47-.42-1.3-.863-1.86-.426zm6.05 7.477-3.32-.742c.43.333 2.54 1.192 3.32.742zm-45.41 13.747c-.12.187-.25.373-.32.646-.1-.173-.45.027-.3.287.1.173.45-.027.35-.2.91.976 1.37-1.023.27-.733zm-50.87-30.905c.23-.014.61-.35.6-.573-.02-.224-.29-.297-.61-.457-.31.064-.56.437-.82.587.15.26.61.456.83.443zm59.64-20.695.04.67c.19.123.38.246.72.046.13-.186.06-.496.05-.719.35-.2.15-.547-.21-.57-.4.113-.06.496-.6.573zm-2.26.271c.02-.36-.37-.83-.59-.816-1.12.067-.3 1.676.59.816zm-57.15 24.218c.26-.15-.01-.223-.09-.756-.01-.223.56-.437-.04-.67-.31.064-.56.437-.59.574.18.123.37.246.2.346-.18.1-.31.063-.3.287.29.296.61.456.82.219zm3.31 2.131c-.05-.086.31-.063.76-.09l.13.037c.99.119 2.62.335 2.67.422.15.26-3.32-.159-3.56-.369zm46.47 34.485c-.05-.087-.1-.173-.07-.31-.33-.383-.74-.493-1.08-.07-.19.46.69.99 1.15.38zm40.43-23.573c-.05-.087-.07-.31.11-.41-.23.013-.67.04-.71.177l-.09.05.15.259-.02.36.15.26c.1.173.5.06.62-.127l-.36-.023.66-.263c-.18.1-.36-.024-.51-.283zm-54.57 17.881c.13.036.31-.064.39-.114l.09-.05-.46 2.806-.2-.347c.13-.769.13-1.576.18-2.295zm-1.53 14.159c-.05-.087.88-4.085.93-3.998.01.223-.83 4.171-.93 3.998zm-34.27-48.567c-.4.113-.68.623-.84.946.1.173.23.21.46.196.43-.25 1.11-.873.38-1.142zm94.39 11.088c.95.257 2.03.326 3.01.223l-.05-.087-2.8-.459-.16.323zm-3.1 1.441.1.173-.16.323-1.87-.649c.26-.15 1.83-.021 1.93.153zm-61.41 21.025c.11-.41.17-.907.31-1.453-.01-.223.37-1.366.26-.956-.7 1.789-.68 3.625-1.32 5.724.52-1.107.59-2.186.75-3.315zm-27.78-35.114c-.12-.397-.18-.706-.6-1.039l.73.269c.38-.336.23-.596.58-.796-.04.136.03.446.04.669.1.174-.64.487-.64.487l-.11.41.73-.537c.05.087.13.037.13.037.09-.05.18-.1.21-.237.09-.05.14.037.14.037s-.12.186-.25.373c-.05-.087-.05-.087-.18-.123-.36-.023-.57.213-.56.436 0 0-.14-.036-.22.014zm29.24 32.651.25-1.762-.1-.173-.19.459-.18.1.03-.359c-.47.386-.01 1.389.02 1.835l.17-.1zm22.32.856c-.15.546.64.902 1.06.429-.12-.396-.73-.853-1.06-.429zm-56.82-32.206c-.45-.78-1.38-.006-.91.413.37.247.94.033.91-.413zm-5.63.248c.28.073.57-.213.83-.363-.19-.93-1.83.02-.83.363zm10.77 5.447c-.76.09-.8.81-.21 1.043.47-.387.5-.747.21-1.043zm-3.15-5.456c-.36-.023-.74.313-.73.537.39.469.91.169 1.07-.154-.19-.123-.19-.123-.34-.383zm56.06-23.705c-.15-.26-.22-.57-.23-.793-.31.064-.71.177-.73.537.25.433.57.593.96.256zm-2.77 59.213c-.28-.296-.64-.319-.85-.083-.18.683 1.08.876.85.083zm27.05-29.355-1.89-.066c-.17.1-.43.25-.48.163l.33-.423c.49-.163 1.57-.094 2.04.326zm-24.07-29.288c.29.296.61.456.91.169.14-.546-.59-.816-.96-.256.09-.05.14.037.05.087zm-30.42 89.501c.2-1.042.32-2.035.75-3.091-.03.942-.32 2.035-.75 3.091zm65.41-48.503c.06.309-.82.586-.52 1.106l.99-.687c-.15-.26-.3-.519-.47-.419zm-4.59-5.549c-.35.2-.85.14-1-.12l-.15-.259.55.146-.2-.346c.35-.2.65.319.8.579zm-33.92 11.848.26-.15c-.05-.087.32-2.036.27-2.122-.08.05-.68 2.012-.68 2.012l.15.26zm-1.49 17.83c-.01-.223-.38-.47-.52-.506-.86.5.3 1.326.52.506zm23.28-36.88c-.17.1-.47.387-.47.387l-.32-.16c-.05-.087-1.78-.476-2.14-.499l2.93.272zm-74-3.576c-.4.113-1.48.043-.82.586.4-.113.9-.053 1.01-.463-.14-.037-.14-.037-.19-.123zm42.52 49.237c.2.346-.02 1.166-.15 1.353-.25-.433-.15-1.066-.26-1.463l.41.11zm55.01-37.307c.24.21.44.556 1.06.43l-.1-.174-.38-.246.18-.1c.03-.137.21-.237.39-.113-.33-.383-.98.103-1.26-.193l.2.346-.09.05zm-70.05 42.063c.75.492.02 1.835-.24 2.791-.36-.829 1-2.075.24-2.791zm15.75-7.711-.14.546.34-.2c.24.21.39.47.09.756-.05-.086-.28-.296-.52-.506l-.15-.26c-.05-.086-.15-.259-.06-.309l.44-.027zm-49.86-53.769c-.35.2-.3.286-.42.473.76.716 1.45-.49.42-.473zm43.65 34.609c-.01-.224-.11-.397-.44-.557l.03-.359c.32.159.64.319 1.05.429l-.11.41c-.18-.123-.31.063-.53.077zm-8.19 24.818c-.05-.087-.15-.26-.11-.396.04-.137.16-.324.2-.46.01.223.02.446.17.706l.3-.287.1.174-.1.633c-.18-.124-.28-.297-.56-.37zm20.56-7.596c.12-.186-.21-.569-.44-.556-.17.1-.21.237-.24.373-.03.36.38.47.68.183zm-4.68-1.914c-.26.15-.57.214-.67.04l-.1-.173.22-.013c-.2-.347.05-.72.22-.82l.2.347-.17.1.3.519zm-3.99 9.693c-.2-.347-.32-.743-.07-1.116.09-.05.19.123.29.296.28.296.12.62-.22.82zm-48.83-57.371.24.21c1.37-.217-.03-1.253-.24-.21zm88.17 8.909c-.66.263-1.33.303-1.63-.216l1.63.216zm-78.83-9.335c-.05-.087-.07-.31-.12-.397-.46-.196-.6.35-.68.624.28.073.5.059.8-.227zm43.41 53.798c.24.209.38.246.67-.041l-.05-.086.09-.05-.05-.087-.04.137c-.01-.223-.28-.297-.37-.247l-.19-.123-.14.547.08-.05zm12.14-67.975c.01.223.3.519.44.556.74-.313-.02-1.029-.44-.556zm-12.63 63.524c-.08.05-.08.05-.29.287 0 0-.38-.247-.48-.42l.03-.36c.39-.113.59.233.74.493zm9.18-3.911c-.29-.296-.48-.419-.74-.269.05.086.05.086-.03.136.07.533.71.63.77.133zm.55-22.837c-.07.273-.48.164-.94-.033-.04.137-.02.36.39.47-.23.013-.59-.01-.86-.083.04-.137.16-.323.2-.46l1.21.106zm-50.81-13.615c-.23.013-.5-.06-.76.09.01.223.01.223.11.397l.41.109c.21-.236.34-.423.24-.596zm28.93 62.508c.11.396.22.792-.17.906l-.38-.247c.35-.2.46-.609.45-.833l.1.174zm.83-40.551c-.33-.383-.11-1.202.1-1.439l.08 1.339-.18.1zm40.77-2.985c-.01-.223-.11-.396-.21-.569-.55-.147-.58.796-.13.769l.34-.2zm13.46-2.689.19.123s.48-.164.65-.264c-.23-.209-1.09-.292-1.13-.156-.08.05.29.297.29.297zm-27.87-41.874c.07-.273-.21-.569-.44-.556-.08.05-.12.187-.24.373.15.26.42.333.68.183zm33.35 35.362-.26.15-2.14-.499c.67-.04 1.58.13 2.4.349zm-3.22-6.572c-.62.127-.93.191-1.22-.106l-.1-.173c.33.16 1.17.02 1.32.279zm-38.5 29.506-.1-.173c-.2-.346-.43-.333-.69-.183.05.087-.03.137.02.223.2.347.56.37.77.133zm-6.54 19.478c-.12.186-.43.25-.62.127l-.2.459.35-.2c.29.297.11.397.21.57.26-.15.37-.56.26-.956zm-44.05-53.088c-.21.236-.31.063-.44.027l-.35.2c.29.296.5.059.56.369.45-.027.64-.486.23-.596zm32.52 22.912.15.26c.15.26 0 .806-.26.956-.24-.209.08-.856.11-1.216zm-37.21-28.051c-.36-.023-.75.313-.32.646.36.024.69-.4.32-.646zm85.32 9.393.05.086-1.62-.216.26-.15c.31-.063.9.17 1.31.28zm-39.65 47.719c.19.123.11.396.04.669l-.59-.233.12-.186.38-.337.05.087zm1.48-6.63c.15.26.13.619.28.879l-.34.2c-.15-.26-.28-.879.06-1.079zm-9.47-.417c-.24-.21.09-.633.32-.646.32.16 0 .806-.32.646zm.22-26.804-.05-.087.27-1.539c.01.223.07 1.116.22 1.376-.18.1-.44.25-.44.25zm2.04 14.527c-.06-.31 0-.806.17-.906.29.296.21.57.28.879-.23.014-.28-.073-.45.027zm54.19-25.743c.6-.35.54.146.95.256l-.03.137-1.18-.243.26-.15zm-12.65 11.691c-.65-.32-1.14-.38-1.49-.18.37.247 1.04.207 1.49.18zm-83.15-24.622c.27.074.71-.176.42-.473-.41-.11-.88.277-.42.473zm65.63-20.113c.14.036.29.296.5.06.07-.274-.35-.607-.52-.507-.04.137-.21.237.02.447zm-59.6 18.362c.14.037.35-.2.52-.3-.14-.036.04-.136-.29-.296-.3.063-.6.35-.23.596zm55.35-13.94.29-.287-.19-.929s-.2 1.043-.1 1.216zm-25.83 66.87.2.346c-.21.237-.32.647-.43 1.057-.02-.447.04-.943.23-1.403zm12.22 8.764c.05.087.31-.063.35-.2.13.037.39-.113.29-.286-.15-.26-.41-.11-.39.113-.19-.123-.4.113-.25.373zm-1.56-5.909c.1.173-.11.41-.3.286.01.224-.25.374-.35.2-.18-.123.11-.409.3-.286-.1-.173.16-.323.35-.2zm56.55-32.65c-.1-.173-.39-.47-.91-.17l.19.123c.1.174.46.197.72.047zm-68.63 35.929c-.35-.607-.15-1.066-.06-1.699.01.223.07 1.116.06 1.699zm48.45-52.683s.32.16.58.01c-.14-.037-.73-.27-.82-.22-1.1.291-.57.214.24.21zm16.16 6.601.65.32c-.1-.174.07-.274.25-.374l-.1-.173-.8.227zm-93.51-14.367c.26-.15.3-.287.2-.46-.42-.333-.78.45-.2.46zm31.62 42.365-.12.186c-.35.2-.42.474-.31.87.12-.187.23-.596.41-.696l.02-.36zm-36.51-35.844c-.31.063-.39.337-.15.546.09-.05.19.124.45-.026-.1-.174-.07-.31-.3-.52zm81.59 18.129c.02.223-.12.187-.16.323.24.21.28.073.55.147.11-.41.01-.583-.39-.47zm-38.01 2.551c-.18.1-.41-.11-.49.164.02.223.2.346.34.383.21-.237.2-.46.15-.547zm.15 35.473.3-.287.05.087s.09.756.19.929l-.54-.729zm57.28-42.191 1.02-.241-.24-.209c-.09.05-.93.19-.78.45zm-96.9-17.838c-.72-.046-.36.783.2.347l-.2-.347zm-2.38 6.684c-.08.05-.13-.037-.13-.037-.18.1-.26.15-.3.287.1.173.19.123.41.11.09-.05.12-.187.02-.36zm96.46 16.475.18-.1c-.38-.247-.6-.233-.95-.033l-.03.136.67-.04.13.037zm-14.69-15.65.1.174-1.32-.28c.54-.077 1.08.07 1.22.106zm19.69 14.499c.08-.05.21-.237.16-.323-.05-.087-.49.163-.39.336.05.087-.03.137.02.223.1.174.31-.063.21-.236zm-31.99-.006-1.37-.366 1.44.093-.07.273zm29.12.043-.1-.173c-.2-.346-.42-.333-.54-.146.15.26.2.346.64.319zm-1.94-6.962c-.09.05-.91-.169-1.01-.342-.15-.26 1.27.192 1.01.342zm-1.37-4.173c.14.036.86.083 1.03-.017-.42-.333-.77-.133-1.03.017zm-61.26 31.095c-.01-.223.08-.273.08-.273-.14-.036-.4.114-.35.2l.05.087c-.14-.037-.17.1-.07.273.18.123.44-.027.29-.287zm10.31 16.451-.27-.073c-.05-.087-.09-.757-.01-.807l.28.88zm53.23-47.594-.54-.146-.18.1c.24.21.46.196.65.319l.07-.273zm-5.63 4.639c-.1-.173.16-.323.29-.286-.01-.223.25-.373.35-.2.14.036-.16.323-.3.286.19.124-.16.324-.34.2zm10.69 3.525c-.05-.087-.18-.123-.18-.123.13.036.13.036.3-.064.09-.05-.59-.233-.49-.06.05.087.19.124.19.124-.14-.037-.26.15-.16.323.05.086.39-.114.34-.2zm-3.06 2.693c-.19-.124-.38-.247-.65-.32l-.17.1c.1.173.47.42.82.22zm-92.97-15.834c-.28-.073-.66.264-.25.374.27.073.43-.25.25-.374zm31.28 59.992c-.26.15-.51-.283-.25-.433.18-.1.43.333.25.433zm5.15-3.087c.1.174-.33.424-.43.25-.15-.259.28-.509.43-.25zm42.41-53.35c.03-.136.29-.286.34-.2.15.26-.19.46-.34.2-.04.137-.3.287-.35.2-.15-.259.2-.459.35-.2zm-33.48 33.416c.1.173.4-.114.3-.287.08-.05.12-.187.07-.273-.05-.087-.4.113-.3.286-.08.05-.17.1-.07.274zm-5.05 18.85c-.04.137-.04.137.01.224.24.209.5.059.35-.2l-.05-.087c.08-.05.03-.137.03-.137l-.34.2zm16.85-79.816c.25-.15.15-.323.05-.496-.08.05-.13-.037-.3.063l.25.433zm-13.72 62.649c.05.086-.03.136-.12.186 0 0 .09-.05.14.037.05.086-.3.286-.35.2-.14-.037-.01-.223.12-.187l-.05-.086c-.1-.174.16-.324.26-.15zm-.86 4.307.18-.1c.03-.136-.02-.223-.07-.309l-.05-.087c-.03.137-.47.387-.55.437l.49.059zm34.86-38.829c.15.26-.29.51-.44.25-.1-.173.34-.423.44-.25zm.71 8.828c.34-.2.7-.177.95.256l-.95-.256zm8.15-9.674c.1.174.48-.163.38-.336-.1-.173-.53.077-.38.336zm-2.08 5.591c.15.26-.15.547-.3.287-.19-.123.2-.46.3-.287zm-53.69 11.601c-.1-.173.28-.509.38-.336.1.173-.28.51-.38.336zm10.99 27.251.52-.3-.37-.246c-.26.15-.25.373-.15.546zm7.35-80.679c.39-.114.19-.46-.03-.447l-.17.1c.1.174-.03.36.2.347zm-21.74 69.94c-.1-.173-.45.027-.3.287.15.259.45-.027.3-.287zm27.81-59.821c.04-.137-.11-.397-.34-.383l-.17.1c.15.259.34.383.51.283zm18.13 25.209c-.34.2-.71-.046-.81-.22l-.05-.086c.22-.014.5.283.86.306zm-39.08 24.299c-.04.137.01.223.06.31.05.086.19.123.24.21-.14-.037-.22.013-.3.286-.03.137.02.223.02.223l-.1-.173.08-.856zm44.78-14.427c.1.174-.16.324-.29.287-.04.137-.3.287-.35.2-.13-.037.21-.237.3-.287-.05-.086.29-.286.34-.2zm16.83 4.142c.1.174.53-.076.43-.25-.18-.123-.53.077-.43.25zm-8.53-5.58-.45.027s-.03-.447.15-.547c.13.037.16.483.3.52zm-3.39-5.666.91.17-.1-.173s-.55-.147-.72-.047l-.09.05zm-84.33.538c-.23-.21-.58-.01-.34.2.06.31.49.06.34-.2zm45.94 33.172c.14.037.35-.2.25-.373-.09.05-.27-.073-.45.027.14.036-.03.136.2.346zm49.54-26.404-.35.2.89-.054c-.2-.346-.37-.246-.54-.146zm-27.9-13.11c.1.173-.24.373-.34.2-.24-.21.19-.46.34-.2zm28.65 7.016c.19.123.62-.127.43-.25-.1-.173-.53.077-.43.25zm-62.17 24.923c.31-.063.04-.136-.06-.31l.17-.1c.05.087.05.087.19.124.01.223-.11.409-.23.596.12-.187-.02-.223-.07-.31zm34.49-16.675c.05.087.18.123.35.023.04-.136.04-.136-.06-.31-.22.014-.39.114-.29.287zm-41.05 43.905c.11-.41.05-.72.24-1.179l.04.669c-.12.187-.16.323-.28.51zm13.05-1.993c.17.483.45-.027.21-.237-.1-.173-.31.064-.21.237zm2.4-19.05c.1.173-.25.373-.44.25-.1-.173.34-.423.44-.25zm-2.62 14.672c.1.174-.19.46-.29.287-.19-.123.11-.41.29-.287zm8.61-83.488c.17-.1.35-.2.2-.459-.09.05-.23.013-.31.063-.04.137-.13.187.11.396zm-2.13 68.898.21-.237c-.1-.173-.29-.296-.41-.109-.04.136.01.223.2.346zm-8.78 17.999-.17.1-.55-.146-.01-.223.73.269zm-7.52-33.418c-.1-.173.34-.423.39-.337.1.174-.29.51-.39.337zm.72 24.642c.1.173-.33.423-.43.25-.05-.086.38-.336.43-.25zm52.68-38.958c.18.123-.16.323-.35.2-.15-.26.2-.46.35-.2zm16.14 3.153c.05.086.48-.164.38-.337-.19-.123-.53.077-.38.337zm-71.02 43.195c-.15-.26.2-.46.35-.2.1.173-.16.323-.35.2zm64.14-43.5c.15.26.54-.076.39-.336 0 0-.44.25-.39.336zm-51.96 38.199c.05.087-.33.423-.38.337-.24-.21.28-.51.38-.337zm60.27-35.606c.05.086.49-.164.39-.337-.02-.223-.49.164-.39.337zm-8.88.622.05.087c.1.173.72.046.81-.004-.29-.296-.62.127-.86-.083zm-7.15 3.208c.15.259.41.109.4-.114l-.05-.086c-.1-.174-.45.026-.35.2zm-35.43 4.635c.15.26.5.06.35-.2-.1-.173-.45.027-.35.2zm-13.29 27.186c.15.26-.19.46-.34.2-.1-.173.24-.373.34-.2zm-.36 2.172c-.1-.173.25-.373.35-.2.19.123-.25.373-.35.2zm-2.6-10.506c-.1-.174.25-.374.35-.2.15.259-.2.459-.35.2zm56.47-26.597c-.1-.173-.45.027-.35.2.15.26.5.06.35-.2zm-60.83 8.445c-.19-.123-.53.077-.35.2.1.173.45-.027.35-.2zm45.09-19.104c-.15-.26.14-.546.29-.286.1.173-.19.459-.29.286zm8.16 5.334c.1.174-.25.374-.35.2-.23-.209.11-.409.35-.2zm12.13.616c.1.173.45-.027.35-.2-.24-.21-.5-.06-.35.2zm-55.16 37.853c-.1-.173.2-.46.3-.286.15.259-.15.546-.3.286zm62.5-35.74c.05.087.48-.163.43-.25-.06-.31-.58-.01-.43.25zm-54.27 18.401c-.1-.173-.53.077-.43.25.05.086.48-.164.43-.25zm-6.18 8.883c-.19-.123.24-.373.43-.25.18.124-.33.424-.43.25zm32.23-39.971-.1-.173s-.5-.06-.59-.01l.19.124c.27.073.5.059.5.059zm21.4 15.471c.04-.137.07-.273.16-.323l-.27-.073-.09.05-.06.496.26-.15zm-63.17 44.785c.17-.1.29.297.11.397-.22.013-.42-.333-.11-.397zm31.24-37.895c-.23.013-.34.423-.06.496.22-.013.24-.373.06-.496zm28.89-10.56c.23.21.67-.04.43-.25-.05-.087-.48.163-.43.25zm-60.51 41.399c-.15-.259-.02-.446.13-.186.05.086-.13.186-.13.186.1.174-.19.46-.29.287-.05-.087.29-.287.29-.287zm15-16.625c-.21.237-.08.273.11.396.22-.013.02-.359-.11-.396zm13.32-57.921c.04-.137-.01-.223-.2-.346l-.26.15c.1.173.29.296.46.196zm-30.54 55.505c.04-.137-.01-.223-.06-.31-.09.05-.12.187-.21.237-.04.136-.04.136.01.223l-.03.136.12-.186c.22-.014.22-.014.17-.1zm.5 16.457c.09-.05.31-.064.31-.064.1.174-.25.374-.38.337l.07-.273zm-30.99-55.081c-.05-.087.29-.287.1-.41-.32-.16-.41.473-.1.41zm31.59 59.122c-.24-.21.15-.547.3-.287.05.087-.3.287-.3.287zm1.23-32.465c.1.173-.19.459-.29.286-.15-.26.11-.41.29-.286zm53.69-10.212c-.1-.174.19-.46.29-.287.1.173-.19.46-.29.287zm-55.94 16.709c-.05-.087-.4.113-.3.286.1.173.4-.113.3-.286zm57-10.277-.62.127c.27.073.72.046.8-.004 0 0-.13-.036-.18-.123zm4.62.215c.05.087.4-.113.3-.286-.1-.174-.4.113-.3.286zm-5.18-8.783c.05.087-.3.287-.3.287-.2-.347.15-.547.3-.287zm-.84-1.249c.15.26-.15.546-.3.287-.05-.087.25-.374.3-.287zm11.76 4.177c.1.173.45-.027.3-.287-.1-.173-.4.114-.3.287zm-54.77 30.93c.1.174-.19.46-.29.287-.1-.173.19-.46.29-.287zm42.17-31.965c-.1-.173.24-.373.34-.2.1.173-.24.373-.34.2zm-3.06 6.5c.1.174.39-.113.29-.286-.1-.173-.39.113-.29.286zm5.17-3.446c-.1-.173.24-.373.34-.2.02.223-.24.373-.34.2zm1.77-1.137c.1.174-.25.374-.35.2-.1-.173.25-.373.35-.2zm-43.46 23.934c.1.174.45-.026.35-.2-.1-.173-.45.027-.35.2zm41.82-26.568c-.1-.173.2-.46.3-.287.06.31-.2.46-.3.287zM1398 477.38c.17-.1.37.246.2.346-.17.1-.37-.246-.2-.346zm43.61-61.666c-.1-.173.19-.46.29-.286.07.309-.19.459-.29.286zm21.43 10.72c.1.173.45-.027.35-.2-.1-.173-.45.027-.35.2zm-22.18-12.019c.1.173-.25.373-.35.2-.06-.31.2-.46.35-.2zm-44.46 30.401c.1.173.45-.027.35-.2-.19-.123-.45.027-.35.2zm12.31 10.909c.1.174-.25.374-.35.2-.1-.173.25-.373.35-.2zm52.96-36.466c.1.173.44-.027.34-.2-.15-.26-.49-.06-.34.2zm-53.18 37.286c.1.173-.2.46-.3.287-.15-.26.2-.46.3-.287zm-8.03 2.901c-.1-.173.2-.46.3-.287.06.31-.2.46-.3.287zm60.47-27.867c.1.173.45-.027.3-.287-.1-.173-.4.113-.3.287zm-8.63-7.143c-.1-.174.25-.374.35-.2.1.173-.25.373-.35.2zm1.34 2.115c-.1-.174.24-.374.34-.2.19.123-.24.373-.34.2zm13.13.152c.1.173.45-.027.35-.2-.05-.087-.4.113-.35.2zm-7.3-8.253c.1.173.44-.027.34-.2.04-.137-.39.113-.34.2zm-50.46 35.6c.1.173-.25.373-.35.2-.05-.087.3-.287.35-.2zm-3.7 12.184c-.1-.173.24-.373.34-.2.1.173-.24.373-.34.2zm-3.33-13.555c.1.174-.24.374-.34.2-.19-.123.24-.373.34-.2zm1.24 13.142c-.1-.173.25-.373.35-.2.05.087-.3.287-.35.2zm56.35-46.392c.1.174.45-.026.35-.2-.19-.123-.53.077-.35.2zm-15.04 9.147c-.1-.173.25-.373.35-.2.1.173-.16.323-.35.2zm4.09-2.71c-.1-.173.25-.373.35-.2.19.123-.16.323-.35.2zm6.95-.775c.1.173-.25.373-.35.2-.1-.173.16-.323.35-.2zm5.6 4.502c.1.173.44-.027.34-.2-.23-.21-.58-.01-.34.2zm-47.7 21.187c.19.123.45-.027.35-.2-.15-.26-.5-.06-.35.2zm50.58-23.197c.19.123.45-.027.35-.2-.1-.173-.45.027-.35.2zm-49.31 12.996c-.18-.123.16-.323.35-.2.15.26-.2.46-.35.2zm-16.58 27.473c-.1-.173.24-.373.34-.2.24.21-.11.41-.34.2zm21.73-19.36c.03-.136.03-.136.12-.186-.19-.123-.29-.297-.41-.11-.04.137.06.31.29.296zm-22.61 17.441c.15.26-.2.46-.3.287l-.05-.087c.04-.136.3-.286.35-.2zm-33.11-61.943c-.13-.037-.13-.037-.31.063-.08.05-.03.137.02.224.13.036.22-.014.39-.114-.05-.086-.18-.123-.1-.173zm49.79 41.23c-.09.05-.09.05-.14-.037.09-.05.04-.137.04-.137l.08-.05c.04-.136.08-.273.03-.359l.18.123-.19.46zm38.74-20.292.36.024.05.086-.07.273-.34-.383zm5.58 1.861c.15.26.24.21.5.06-.24-.21-.38-.247-.5-.06zm-48.54 39.92c.1.173.31-.064.21-.237-.15-.26-.36-.023-.21.237zm-.31.869c-.24-.21-.58-.01-.35.2.05.087.4-.113.35-.2zm49.45-50.144c.05.087.4-.113.35-.2-.07-.31-.5-.06-.35.2zm.25 9.438c.15.26.41.11.26-.15-.1-.173-.36-.023-.26.15zm-93.98-12.592c-.29-.296-.48.164-.38.337.17-.1.21-.237.38-.337zm42.72 45.193c.1.174-.33.424-.43.25-.05-.086.38-.336.43-.25zm45.63-39.162c.05.086-.3.286-.35.2-.15-.26.2-.46.35-.2zm-17.62-7.723c.05.086.39-.114.34-.2-.15-.26-.49-.06-.34.2zm10.87 2.841c.05.087.4-.113.35-.2-.15-.26-.5-.06-.35.2zm17.75 8.343c.05.086.4-.114.35-.2-.15-.26-.5-.06-.35.2zm-42.2-29.902c.1.173.2.346.37.246.04-.136-.06-.31-.2-.346l-.17.1zm-15.61 74.365-.29.287-.15-.26c.26-.15.34-.2.44-.027zM1464 426.69c-.05-.086-.4.114-.35.2.15.26.5.06.35-.2zm-55.77 39.01c.1.173-.25.373-.35.2.04-.137.3-.287.35-.2zm4.55-5.515c-.05-.087-.39.113-.34.2.1.173.44-.027.34-.2zm-3.49-7.451c-.05-.087.3-.287.35-.2.1.173-.25.373-.35.2zm.37 1.635c-.1-.173.24-.373.34-.2.1.173-.24.373-.34.2zm38.26-27.52c.1.173-.25.373-.35.2-.1-.173.25-.373.35-.2zm5.82-4.516c.1.173-.24.373-.34.2-.1-.173.24-.373.34-.2zm5.86-2.457c.1.173.45-.027.35-.2-.14-.037-.4.113-.35.2zm-2.72 5.494c-.1-.173.25-.373.35-.2.15.26-.2.46-.35.2zm-43.69 25.92c.1.173.45-.027.35-.2-.05-.087-.4.113-.35.2zm-1.6 9.235c-.1-.173-.44.027-.34.2.1.173.44-.027.34-.2zm48.03-32.81c-.05-.087-.39.113-.34.2.1.173.44-.027.34-.2zm-25.63-15.799c.1.173.44-.027.34-.2-.1-.174-.44.026-.34.2zm10.18 4.63-.21.237-.15-.26.21-.237.15.26zm9.26 13.243c.05.086.35-.2.3-.287-.24-.21-.45.027-.3.287zm-54.7 4.449c-.1-.173.24-.373.34-.2.02.223-.24.373-.34.2zm66.13-8.048c.1.174.45-.026.35-.2-.19-.123-.45.027-.35.2zm-58.76 39.817c.1.173-.25.373-.35.2-.1-.173.25-.373.35-.2zm54.43-46.321c.1.173.44-.027.34-.2-.05-.087-.39.113-.34.2zm-2.33 8.965c-.1-.173.25-.373.35-.2.01.223-.25.373-.35.2zm-60.2 34.527c.1.173-.25.373-.35.2.04-.137.3-.287.35-.2zm59.42-34.077c-.05-.086-.4.114-.35.2.24.21.5.06.35-.2zm-53.15 34.731c-.05-.086.29-.286.34-.2.15.26-.19.46-.34.2zm48.08-46.119c.1.173-.25.373-.35.2-.1-.173.25-.373.35-.2zm9.87 6.306c.14.037.4-.113.35-.2-.24-.21-.5-.06-.35.2zm-59.28 43.925c-.1-.174.25-.374.35-.2.15.259-.2.459-.35.2zm1.91-1.1c.1.173-.25.373-.35.2-.1-.174.25-.374.35-.2zm1.72-1.224c.1.174-.25.374-.35.2-.05-.086.3-.286.35-.2zm47.83-44.357c-.05-.086.29-.286.29-.286.19.123-.19.46-.29.286zm-43.75 42.231c.19.123.4-.114.3-.287-.1-.173-.4.113-.3.287zm1.7-13.453c.1.173.45-.027.35-.2-.19-.123-.53.077-.35.2zm30.35-37.842c.18.123.44-.027.29-.286-.13-.037-.39.113-.29.286zm21.61 13.845c.1.173.45-.027.35-.2-.19-.123-.53.077-.35.2zm-59.4 38.108c.1.173-.24.373-.34.2-.05-.087.29-.287.34-.2zm-7.97 1.598c-.05-.086.3-.286.35-.2.1.173-.11.41-.35.2zm11.75-8.859c-.05-.086.29-.286.34-.2.1.174-.16.324-.34.2zm40.02-28.073c.1.173-.19.459-.29.286-.1-.173.15-.323.29-.286zm-38.7 23.962c-.1-.173.24-.373.34-.2.1.173-.15.323-.34.2zm39.13-33.217c.1.173-.24.373-.29.286-.24-.209.1-.409.29-.286zm-78.7-10.911.1.173s.05.087.14.037l-.55-.147c-.05-.086-.05-.086.04-.136l.27.073zm34.99 59.591c.18.123-.16.323-.35.2-.05-.087.3-.287.35-.2zm57.55-41.312c.1.173.45-.027.3-.287-.14-.037-.35.2-.3.287zm-66.28 18.404c.1.174.4-.113.3-.286-.19-.123-.48.163-.3.286zm11.68 18.429c.1.173-.19.46-.29.287-.02-.223.19-.46.29-.287zm51.68-43.692c.1.173.4-.113.3-.286-.05-.087-.4.113-.3.286zm-16.76-6.834c.1.174.39-.113.29-.286-.05-.087-.39.113-.29.286zm16.13 10.546c.1.173.45-.027.3-.287-.05-.087-.4.113-.3.287zm7.3-.752c.1.173.4-.114.3-.287-.05-.087-.35.2-.3.287zm-64.35 41.54c.05.087-.29.287-.29.287-.2-.346.14-.546.29-.287zm52.43-34.194c.09-.05.12-.187.12-.187-.23-.209-.49-.059-.39.114l.05.086c.05.087.13.037.22-.013zm-42.4 32.562c-.05-.087-.4.113-.3.287.1.173.4-.114.3-.287zm-15.35 4.013c-.15-.26.15-.547.3-.287-.04.137-.25.373-.3.287zm20.88-16.441.21-.237c-.19-.123-.28-.073-.45.027.1.173.24.21.24.21zm-17.93 10.35c.05.087-.25.373-.3.287-.1-.174.11-.41.3-.287zm39.48-49.008c.05.086.35-.2.3-.287-.1-.173-.45.027-.3.287zm-28.89 41.742c-.1-.173.24-.373.34-.2-.04.137-.29.287-.34.2zm43.91-31.936c.05.086-.3.286-.35.2-.15-.26.2-.46.35-.2zm.73 4.66c-.1-.173.24-.373.34-.2-.03.137-.29.287-.34.2zm-45.46 38.257c-.1-.174-.45.026-.35.2.05.086.4-.114.35-.2zm48.77-40.517c.05.087-.3.287-.35.2-.01-.223.25-.373.35-.2zm-4.67 1.311c.05.087-.3.287-.35.2-.15-.26.2-.46.35-.2zm-44.6 30.947c-.1-.173.25-.373.35-.2.1.173-.25.373-.35.2zm2.17 3.364c.05.087.4-.113.3-.286-.1-.174-.4.113-.3.286zm-10.32-67.477c-.1-.174.25-.374.35-.2.05.086-.3.286-.35.2zm58.86 35.756c-.1-.173-.44.027-.34.2.1.173.44-.027.34-.2zm-16.75-15.615c.1.173.45-.027.35-.2-.15-.26-.5-.06-.35.2zm-39.2 56.697c.05.086-.3.286-.35.2-.06-.31.2-.46.35-.2zm6.14-7.358c.1.173.45-.027.35-.2-.1-.173-.45.027-.35.2zm-15.25-7.821c-.1-.173-.45.027-.35.2.1.174.45-.026.35-.2zm59.63-23.113c-.1-.173-.39.114-.29.287.1.173.39-.114.29-.287zm1.39-.8c-.1-.173-.45.027-.35.2.05.087.4-.113.35-.2zm-56.89 29.266c.05.086-.25.373-.3.286-.01-.223.2-.46.3-.286zm66.17-32.78c.05.086.4-.114.35-.2-.1-.173-.45.027-.35.2zm-13.74-8.807c.05.086-.3.286-.35.2-.01-.223.25-.373.35-.2zm-48.29 48.551c-.1-.173.24-.373.34-.2.1.173-.24.373-.34.2zm1.07-.736c-.1-.174.25-.374.35-.2.1.173-.25.373-.35.2zm-.81 1.392c-.1-.173.2-.459.3-.286.01.223-.25.373-.3.286zm4.14-10.821c.14.036-.21.236-.34.2-.02-.224.24-.374.34-.2zm4.1-5.712c.13.037-.21.237-.35.2-.01-.223.25-.373.35-.2zm40.31-29.166c.15.259-.14.546-.29.286-.05-.086.24-.373.29-.286zm-51.11 38.864c-.09.05-.26.15-.31.064-.1-.174.2-.46.3-.287.1.173.01.223.01.223zm12.67-15.052-.03-.446c.1.173.19.123.24.209l-.04.137-.07.273-.1-.173zm3.87-11.701c.15.26-.2.46-.35.2-.05-.087.3-.287.35-.2zm39.72-6.999c-.05-.087-.4.113-.35.2.24.209.5.059.35-.2zm-50.14 32.757c-.05-.086.3-.286.35-.2.15.26-.2.46-.35.2zm-2.74 10.245c-.05-.086.29-.286.34-.2.15.26-.19.46-.34.2zm41.12-54.572c-.17.1-.45.027-.77-.133.26-.15.5.06.77.133zm-48.62 31.188c-.05-.086-.4.114-.35.2.15.26.5.06.35-.2zm10.63 13.609c-.05-.087.3-.287.35-.2.15.26-.2.46-.35.2zm32.36-43.742c-.18-.123.16-.323.35-.2.1.173-.25.373-.35.2zm-29.84 49.908c.24.209.5.059.35-.2l-.35.2zm6-22.403c-.05-.086-.31.064-.26.15.2.347.41.11.26-.15zm38.6-14.548c.23.21-.11.41-.35.2.09-.05.35-.2.35-.2zm-47.74 33.107c.21-.236.41.11.2.347-.09.05-.29-.297-.2-.347zm1.8 3.924c.1.173.36.023.26-.15-.1-.173-.36-.023-.26.15zm-5.54 1.811c-.1-.173.16-.323.26-.15.1.173-.16.323-.26.15zm59.45-42.635c.15.259.15.259.32.159.26-.15-.42-.333-.32-.159zm-62.8 48.033c-.08.05-.2-.347-.11-.397.22-.013.42.333.11.397zm41.35-60.589c.1.173.36.023.26-.15-.1-.173-.36-.023-.26.15zm-33.46 50.842.49.06-.26.15-.41-.11.18-.1zm3-4.392c.18-.1.03-.36-.15-.26-.17.1-.02.36.15.26zm58.25-34.32c.18.124.44-.026.25-.15-.1-.173-.35-.023-.25.15zm-58.29 32.844c.14.037.48-.163.35-.2-.02-.223-.45.027-.35.2zm.59 4.624-.17.1-.08.273.15.26.1-.633zm-3.79-4.163-.17.1-.2-.346c.17-.1.32.159.37.246zm7.4-14.781-.16.324.1.173c.09-.05.13-.187.16-.323l-.1-.174zm-12.72 8.963c-.1-.173.2-.46.3-.287.05.087-.3.287-.3.287zm.8 10.39c.05.087-.24.373-.29.287-.1-.173.19-.46.29-.287zm-4.27-.998c.19.123-.07.273-.21.237-.1-.173.11-.41.21-.237zm10.11 5.71c-.1-.173-.4.114-.3.287.14.036.35-.2.3-.287zm49.26-40.679c-.1-.174-.4.113-.3.286.09-.05.35-.2.3-.286zm5.65-3.61c.05.086.35-.2.3-.287-.19-.123-.4.114-.3.287zm-17.42-5.181c-.05-.087.29-.287.29-.287.1.173-.19.46-.29.287zm15.78 4.742c-.1-.174-.39.113-.29.286.08-.05.34-.2.29-.286zm-7.77 6.335c.1.173-.07.273-.17.1-.24-.21.02-.36.17-.1zm5.57-4.143c.05.087-.29.287-.34.2-.1-.173.24-.373.34-.2zm-88.75-15.728c.09-.05.14.037.14.037.05.087-.04.137.01.223l-.55-.146c.14.036.4-.114.4-.114zm27.86 26.059c.18-.1.28.074.1.174-.26.15-.36-.024-.1-.174zm11.61 17.313c.05.087-.16.323-.21.237-.1-.173.11-.41.21-.237zm-1.03 5.214c.05.087-.29.287-.34.2-.02-.223.24-.373.34-.2zm-46.29-42.783c-.1-.173-.31.063-.4.113.15.26.45-.026.4-.113zm95.64 10.252c.1.173-.03.36-.13.187-.23-.21-.11-.397.13-.187zm-60.4 42.379c-.05-.086.29-.286.34-.2.15.26-.19.46-.34.2zm57.32-48.108c.1.173.45-.027.35-.2-.05-.086-.4.114-.35.2zm-2.05 12.041c.1.173.44-.027.34-.2-.05-.087-.39.113-.34.2zm-10.98-13.409c-.05-.087.3-.287.35-.2.1.173-.25.373-.35.2zm15.42 10.499c-.14-.037.21-.237.34-.2.1.173-.24.373-.34.2zM1396 446.318c-.05-.086-.26.15-.21.237.1.173.36.023.21-.237zm-36.73-40.221c-.14-.036-.26.15-.3.287l.14.036c.26-.15.21-.236.16-.323zm39.18 63.057c-.05-.086.07-.273.29-.286l-.02.36c-.19-.124-.27-.074-.27-.074zm3.46-2.806-.09.05c-.05-.086-.01-.223-.01-.223l.08-.05c.18-.1.28.073.02.223zm44.2-48.843c.05.087-.21.237-.26.15-.15-.26.11-.41.26-.15zm.22-.82c.05.087-.21.237-.26.15-.24-.209.02-.359.26-.15zm18.69 6.987c.19.123.45-.027.35-.2l-.35.2zm-56.78 44.446-.12.187.23.21.06-.497-.17.1zm-3.69-9.186c-.1-.174.16-.324.26-.15.1.173-.16.323-.26.15zm42.76-33.345c.08-.05.23.209.15.259-.18.1-.33-.159-.15-.259zm-50.71 17.963c-.1-.173-.36-.023-.26.15.05.086.31-.064.26-.15zm-36.88-32.866-.26.15c.05.087.14.037.19.124l.26-.15c-.09.05-.14-.037-.19-.124zm55.19 31.99c.05.087.31-.063.26-.15-.1-.173-.36-.023-.26.15zm-5.75 20.64c-.17.1-.07.273.1.173.21-.236.11-.409-.1-.173zm8.46-27.747c.14.037.4-.113.26-.15-.15-.259-.41-.109-.26.15zm39.45-7.072c-.1-.173-.27-.073-.17.1.15.26.32.16.17-.1zm-2.11-6.056-.55-.146.09-.05c.09-.05.14.036.31-.064l.15.26zm-48.09 38.504c-.09.05-.24-.21-.15-.26.26-.15.41.11.15.26zm49-40.53c.05.087-.21.237-.26.15-.15-.259.11-.409.26-.15zm-96.46-13.473.35-.2c-.24-.21-.5-.06-.35.2zm50.91 59.172c-.05-.086-.31.064-.26.15.15.26.41.11.26-.15zm-11.39-31.528c.05.087-.21.237-.26.15-.1-.173.16-.323.26-.15zm9.12 34.8c.12-.186-.03-.446-.15-.259-.09.05.06.309.15.259zm-3.51-6.868.15-.546.15.26c-.09.05-.04.136-.12.186l-.18.1zm-8.13-16.088-.16.323.26-.15.07-.273-.17.1zm-40.58-36.495c-.04.136.23.21.32.16.04-.137-.15-.26-.32-.16zm92.98 7.051c-.18.1-.08.274.1.174.26-.15.11-.41-.1-.174zm14.21 2.418c.12-.187.02-.36-.1-.174-.26.15-.16.324.1.174zm-11.91 6.763c.1.173-.08.273-.18.1-.18-.123.08-.273.18-.1zm13.16-.791-.95-.256.05.087.9.169zm-19.54-8.458.26-.15c.08-.05.36.023.49.06l-.08.05-.67.04zm-4.87-4.233c.05.087.22-.013.12-.186-.19-.124-.31.063-.12.186zm3.93 5.006c-.26.15-.26.15-.31.063-.15-.259.48-.163.31-.063zm-36.62 43.774c-.17.1-.32-.16-.15-.26.09-.05.24.21.15.26zm50.94-36.57c.05.087-.21.237-.26.15-.1-.173.16-.323.26-.15zm-58.47 39.53c-.1-.173.07-.273.21-.236l-.07.273c-.09.05-.09.05-.14-.037zm8.23-5.556c.17-.1.35.023.18.123-.17.1-.36-.023-.18-.123zm-49.4-51.154-.17.1c.05.087.18.123.36.023-.05-.086-.14-.036-.19-.123zm97.45 22.598c.1.173.1.173.19.123.31-.063-.29-.296-.19-.123zm10.18-6.57c.1.174.1.174.19.124.26-.15-.34-.383-.19-.124zm-94.16-11.102c.1.173-.08.273-.13.187-.15-.26.03-.36.13-.187zm27.63 52.864c-.08.05-.03.136-.07.273l-.09.05c-.18-.123-.06-.31.16-.323zm7.42 3.452.29.296c-.09.05-.32-.159-.37-.246l.08-.05zm-12.09-15.537c-.05-.087-.22.013-.17.1.1.173.27.073.17-.1zm65.86-31.327c-.08.05.02.223.1.173.23-.013.08-.273-.1-.173zm-53.31 40.251c.17-.1.31-.063.13.037-.21.236-.39.113-.13-.037zm-5.91 2.371c.04-.137.04-.137-.01-.224.08-.05.08-.05.13.037.23-.013.05.087-.12.187zm46.51-48.445c.1.174.1.174.27.074.26-.15-.27-.074-.27-.074zm-37.19 43.987c-.05-.086-.22.014-.17.1.18.124.36.024.17-.1zm-2-6.465c.09-.05.19.123.1.173-.17.1-.27-.073-.1-.173zm43.92-31.13c-.18.1-.28-.073-.1-.173.17-.1.27.073.1.173zm-38.28 29.492c-.1-.173-.28-.073-.18.1.02.223.28.073.18-.1zm43.6-19.866c.05.086.23-.014.18-.1-.1-.173-.28-.073-.18.1zm-47.42 19.065-.07.273-.1-.173.07-.274.1.174zm-5.73 13.47-.2-.346c.09-.05.19.123.29.296l-.09.05zm.1 5.371c.14.036-.12.186-.26.15-.1-.174.16-.324.26-.15zm-36.12-49.353c-.13-.037-.25.15-.2.236.08-.05.13.037.22-.013-.05-.087.12-.187-.02-.223zm83.13 9.973c-.09.05.01.223.1.173.26-.15.16-.323-.1-.173zm-42.07 32.139c-.26.15-.16.323.1.173.09-.05-.01-.223-.1-.173zm56.71-36.781c.05.086.22-.014.17-.1-.1-.173-.36-.023-.17.1zm-21.02-9.804c-.05-.087.21-.237.26-.15.15.26-.11.41-.26.15zm-2.78-.013c-.05-.086.12-.186.17-.1.15.26-.02.36-.17.1zm-27.42 27.497c.17-.1.02-.36-.15-.26-.09.05.06.31.15.26zm-9.38 16.96c.1.173-.16.323-.26.15-.05-.087.21-.237.26-.15zm.84-.946c.05.086.01.223-.02.359l-.15-.259.17-.1zm54.93-31.254c.05.087.05.087.31-.063.14.036-.41-.11-.31.063zm-101.39-21.017c-.1-.174-.22.013-.31.063.1.173.36.023.31-.063zm101.74 18.622c.09-.05-.41-.11-.36-.024.1.174.1.174.36.024zm2.6-.694c.14.036.31-.064.17-.1-.1-.173-.27-.073-.17.1zm-58.21 33.377-.21.236-.15-.26.36.024zm62.02-32.576c.18-.1.13-.186-.05-.086-.31.063-.21.236.05.086zm-107.44-11.291c.05.087.05.087 0 0-.03.137-.03.137.1.174.23-.014.16-.324-.1-.174zm44.23 46.402c.15.26.06.31-.09.05-.1-.173-.01-.223.09-.05zm-8.78-13.406c-.1-.173-.19-.123-.09.05.15.26.24.21.09-.05zm15.08 10.922c.09-.05.04-.136.08-.273l-.1-.173-.08.273.1.173zm-5.02 5.096c-.13.186-.13.186-.23.013-.05-.087.4-.113.23-.013zm-45.5-56.406c-.12.187-.09.05-.35.2.19.123.53-.077.35-.2zm8.39 12.13c-.14-.036-.14-.036-.31.064.1.173.36.023.31-.064zm79.93 6.043c.21-.236.36.024.1.174-.09.05-.19-.124-.1-.174zm-51.3 8.949c.09-.05.19.123.19.123-.13.187-.31.064-.19-.123zm56.4-8.314.29-.287.1.174-.39.113zm-48.47 38.257-.2-.346.23-.013-.03.359zm61.66-38.601c.1.173.1.173.28.073.08-.05-.38-.246-.28-.073zm-12.19-3.121-.27-.073.07-.273.2.346zm-88.23-3.215.15.259.09-.05c-.1-.173-.15-.259-.24-.209zm42.14 48.991.08-.274-.18.1.07.31.03-.136zm50.32-40.251-.45.027.63.097-.18-.124zm-52.66 30.983c-.09.05-.19-.123-.19-.123.17-.1.36.023.19.123zm21.35-28.61c-.14-.037-.24-.21-.29-.297l.28.074a.3.3 0 0 0 .01.223zm24.15-11.978c.1.173.1.173.27.073.17-.1-.46-.196-.27-.073zm12.12 8.591c.05.087.05.087.13.037.21-.237-.37-.247-.13-.037zm-22.51-9.983-.4.113-.18-.123.58.01zm17.48 3.878c-.12.187-.07.273.05.087.31-.064.21-.237-.05-.087zm-62.35 20.409c.13-.186-.01-.223-.13-.036-.14-.037.05.086.13.036zm55.86-24.051c-.17.1-.17.1-.22.013-.15-.26.31-.063.22-.013zm-44.25 43.559c-.08.05-.18-.123-.1-.173.18-.1.28.073.1.173zm33.88-48.313c.18-.1.08-.273-.1-.173-.08.05.02.223.1.173zm-36.14 44.999c-.08.05-.18-.123-.1-.173.21-.236.36.023.1.173zm52.33-36.563c-.09.05.01.224.1.174.26-.15.16-.324-.1-.174zm-16.82-5.531c-.09.05-.09.05-.19-.123-.13-.037.45-.027.19.123zm-76.92-10.435c-.1-.173-.19-.123-.27-.073.15.26.18.123.27.073zm41.89 59.758c.1.174.01.224-.09.05-.13-.036.04-.136.09-.05zm-9.48-1.222c-.1-.174-.01-.224.09-.05.1.173.01.223-.09.05zm3.5-16.339c-.09.05-.17.1-.16.323-.19-.123-.06-.309-.03-.446 0 0 .05.087.19.123zm-3.01 9.589c-.05-.087-.01-.223-.01-.223.05.086.13.036.18.123.14.037-.12.187-.17.1zm5.92 9.053c.17-.1.27.073.1.173-.09.05-.19-.123-.1-.173zm52.63-44.242c-.18.1-.28-.073-.1-.173.03-.137.18.123.1.173zm-4.22 4.285c-.18.1-.23.014-.05-.086.12-.187.22-.014.05.086zm-54.98 37.977c.05.086-.12.186-.17.1-.1-.173.07-.273.17-.1zm.43 4.141c.03-.137.13.036.05.086-.13.187-.23.014-.05-.086zm16.76-27.573.1.173-.26.15c-.02-.223.07-.273.16-.323zm-17.36 24.338c.05.087-.12.187-.17.1-.1-.173.07-.273.17-.1zm13.09-7.327.15.26-.03-.446-.12.186zm.62-4.517c-.08.05-.08.05-.12.186l-.11-.396.23.21zm-12.83 4.175.15.26-.17.1.02-.36zm.65-25.083.26-.15-.16.324-.1-.174zm51.57-6.68c.05.087.13.037.18.124l-.44.026.26-.15zm-43.59 38.906.1.173-.09.05-.1-.173.09-.05zm-3.07 4.082c-.09.05-.09.05-.19-.123.04-.137.45-.027.19.123zm42.22-52.667c.05.086-.03.136-.08.05-.24-.21-.07-.31.08-.05zm-38.86 47.492c.26-.15.31-.063.05.087-.08.05-.13-.037-.05-.087zm2.48 1.688c-.09.05-.04.137.05.087.26-.15.21-.237-.05-.087zm-38.04-52.284c-.09.05-.22.014-.4.114.18-.1.35-.2.4-.114zm26.79 53.004-.1-.173.18-.1-.08.273zm49.16-49.857.17-.1-.45.026.28.074zm-77.95-1.414-.07.274.17-.1-.1-.174zm72.25-.26-.08.273-.1-.173.18-.1zm-45.31 31.124.1.173.07-.273-.17.1zm62.6-22.172-.27-.073.1.173.17-.1zm-60.59 36.253.17-.1.02.223-.19-.123zm-29.35-50.834c-.05-.087.12-.187.17-.1l.05.086-.22.014zm88.41 11.537c.18-.1.13-.187-.05-.087-.13-.036-.03.137.05.087zm-59.39 40.526.26-.15-.21.237-.05-.087zm-.1-26.381.16-.323.1.173-.26.15zm52.06-7.427.16-.323-.21.237.05.086zm-42.43 31.31c.17-.1.17-.1 0 0-.12.186-.17.1 0 0zm25.63-26.807c-.05-.086-.02-.223-.02-.223.05.087.1.173.02.223.13.037.05.087 0 0zm21.97-4.947c-.18.1-.31.063 0 0 .17-.1.03-.137 0 0zm-46.96 32.073c.26-.15.26-.15 0 0-.08.05-.08.05 0 0zm2.29-2.242c-.04.136-.09.05 0 0 .22-.014.17-.1 0 0zm51.43-29.117c.24.209.15.259 0 0 .04-.137-.05-.087 0 0zm-15.92 1.224-.17.1-.1-.173.27.073zm-33.13 24.211-.09.05.1.173-.01-.223zm-17.43-5.988.15.26-.02-.223-.08.05-.05-.087zm-25.9-32.852-.17.1.05.086.12-.186zm90.12 4.894-.22.013.05.087.17-.1zm-55.5 47.058-.07-.31.1.173-.03.137zm3.68-8.823.17-.1-.07.273-.1-.173zm46.16-33.236.09-.05.1.173-.19-.123zm-13.01-9.344c.18.123.1.173 0 0s-.1-.173 0 0zm24.3 9.293-.09.05.19.123-.1-.173zm-55.41 33.03c-.16.323-.21.236 0 0 .14.036.09-.05 0 0zm-47.81-55.416.17-.1-.1-.173-.07.273zm27.92 88.15c-.04.137-.04.137-.13.187l.18-.1-.05-.087zm11.78-47.793s.05.087.13.037l-.08.05c-.18.1-.09.05-.05-.087zm5.39 24.944.1.173-.14-.037.09-.05-.05-.086zm-9.13-22.211c-.08.05-.12.187-.12.187l.12-.187zm52.99-25.626c-.05-.087-.14-.037-.14-.037l.14.037zm-9.41 9.704c.04-.137-.1-.173-.1-.173l.1.173zm-71.98-19.871c-.05-.087-.14-.037-.14-.037-.05-.086.04-.136.14.037-.05-.087-.05-.087 0 0zm92.64 14.061-.22.013.05.087.17-.1zm-60.97 42.592c.05.087.05.087-.04.137.09-.05.04-.137.04-.137zm55.62-38.463.14.037-.14-.037zm-59.01 14.788c-.09.05-.04.137-.04.137-.05-.087-.05-.087.04-.137zm61.19-13.619c-.09.05-.09.05 0 0z"/></g></g><g clip-path="url(#X)"><mask id="Y" width="180" height="180" x="1161" y="144" maskUnits="userSpaceOnUse" style="mask-type:luminance"><path fill="#fff" d="m1258.6 323.367-97.51-81.829 81.82-97.511 97.52 81.828-81.83 97.512z"/></mask><g mask="url(#Y)"><path fill="url(#Z)" d="M1219.07 172.445c13.17-15.703 36.56-17.748 52.26-4.571l40.6 34.069c15.84 13.165 17.9 36.692 4.72 52.395l-34.06 40.598c-13.18 15.703-36.71 17.76-52.41 4.583l-40.6-34.069c-15.7-13.177-17.76-36.704-4.58-52.407l34.07-40.598z"/><path fill="#fff" fill-rule="evenodd" d="M1228.72 275.584c-.83.996-.55 2.533.63 3.139 19.78 9.415 44.21 4.723 58.93-12.819 17.48-20.835 14.69-52.034-6.23-69.582-20.91-17.549-52.04-14.826-69.53 6.009-15.04 17.925-15.14 43.557-1.5 61.529.8 1.065 2.36 1.07 3.2.075l7.52-8.963c.64-.766.7-1.764.2-2.572-3.95-6.185-5.66-12.849-5.29-19.979.39-7.63 3.19-14.547 8.34-20.675 6.81-8.119 15.47-12.212 25.97-12.279 8.65-.047 16.27 2.694 22.78 8.157 8.35 7.007 12.6 15.792 12.65 26.15.03 8.374-2.66 15.778-8 22.135-5.27 6.282-11.8 10.331-19.65 12.224-6.6 1.642-13.26 1.017-20.18-1.785-.88-.348-1.93-.186-2.57.58l-7.27 8.656zm24.61-30.259c.78-.92.66-2.188-.25-2.959l-10.04-8.421c-.92-.771-2.19-.66-2.96.259l-.51.613c-1.16 1.379-3.27.782-3.07-1.009.29-3.149 1.58-6.243 3.9-9.001 2.63-3.14 5.95-4.921 10.1-5.355 4.15-.434 7.72.603 10.71 3.109 2.99 2.507 4.63 5.842 4.92 10.004.29 4.162-.88 7.743-3.52 10.884-2.25 2.681-4.93 4.477-7.98 5.311-1.73.506-2.76-1.533-1.61-2.912l.39-.459-.08-.064z" clip-rule="evenodd"/></g></g><g clip-path="url(#aa)"><mask id="ab" width="164" height="164" x="951" y="26" maskUnits="userSpaceOnUse" style="mask-type:luminance"><path fill="#fff" d="m1071.31 189.728-119.625-43.536 43.536-119.624 119.619 43.537-43.53 119.623z"/></mask><g mask="url(#ab)"><path fill="url(#ac)" d="M984.346 56.45c6.019-16.538 24.214-25.026 40.754-19.006l59.86 21.785c16.54 6.02 25.03 24.22 19.01 40.758l-21.79 59.859c-6.02 16.539-24.22 25.026-40.75 19.007l-59.863-21.786c-16.539-6.019-25.026-24.219-19.007-40.758l21.786-59.858z"/><path fill="#fff" fill-rule="evenodd" d="m1080.03 125.116-2.58-14.243-18.98-6.908 15.44-12.897-2.59-14.243-13.72-4.993-15.41 12.803-3.57-19.712-13.72-4.993-11.13 9.25 3.54 19.805-18.986-6.909-11.134 9.25 2.584 14.243 18.986 6.908-15.445 12.897 2.584 14.243 13.721 4.993 15.41-12.803 3.54 19.805.09.035 13.63 4.959 11.13-9.25-3.5-19.899 18.98 6.908 11.13-9.249zm-9.6-35.314-15.44 12.897-8.46-3.078 22.3-18.593 1.6 8.774zm-12.1-14.407 8.55 3.112-22.43 18.653-1.56-8.869 15.44-12.896zm-16.67 24.156-6.95 5.663-5.53-30.425 6.89-5.79 5.59 30.552zm-24.42-29.106 8.29-6.986 8.55 3.112-8.29 6.987 5.83 32.236-8.55-3.112-5.83-32.237zM999.05 85.64l18.98 6.909 1.56 8.868-27.531-10.02 6.991-5.757zm-6.43 17.667-1.561-8.869 27.531 10.021-6.89 5.79-19.08-6.942zm29.36 2.383 8.55 3.112-23.79 19.755-8.462-3.078 23.702-19.789zm-12.99 35.392-10.245-3.727-1.561-8.869 10.246 3.728 25.09-20.985 1.65 8.903-25.18 20.95zm22.46 8.174-3.54-19.805 6.89-5.79 5.14 28.579-8.46-3.078-.03.094zm18.53-3.258-6.9 5.79-5.1-28.673 8.55 3.112 3.45 19.771zm-12.72-26.446-1.57-8.869 29.23 10.636 1.56 8.869-29.22-10.636zm30.54-.59-.09-.034-30.92-11.252 6.9-5.791 31.01 11.286 1.95 10.715-6.9 5.79-1.95-10.714z" clip-rule="evenodd"/></g></g><defs><linearGradient id="c" x1="849.458" x2="722.543" y1="128.353" y2=".662" gradientUnits="userSpaceOnUse"><stop stop-color="#16AC81"/><stop offset="1" stop-color="#00C995"/></linearGradient><linearGradient id="f" x1="620.255" x2="457.088" y1="146.163" y2="70.073" gradientUnits="userSpaceOnUse"><stop offset=".162" stop-color="#F05E35"/><stop offset="1" stop-color="#FFDC10"/></linearGradient><linearGradient id="i" x1="410.847" x2="231.501" y1="241.533" y2="225.849" gradientUnits="userSpaceOnUse"><stop offset=".155" stop-color="#572BC2"/><stop offset=".819" stop-color="#6834E6"/></linearGradient><linearGradient id="l" x1="239.578" x2="72.04" y1="407.876" y2="446.074" gradientUnits="userSpaceOnUse"><stop offset=".249" stop-color="#AD9FFF"/><stop offset=".75" stop-color="#FF6D1B"/></linearGradient><linearGradient id="o" x1="147.58" x2=".111" y1="610.442" y2="713.711" gradientUnits="userSpaceOnUse"><stop offset=".151" stop-color="#8713C5"/><stop offset=".578" stop-color="#5A4DE2"/><stop offset=".943" stop-color="#00C0FF"/></linearGradient><linearGradient id="r" x1="125.48" x2="22.211" y1="839.486" y2="986.955" gradientUnits="userSpaceOnUse"><stop stop-color="#7D009C"/><stop offset="1" stop-color="#FF0083"/></linearGradient><linearGradient id="u" x1="183.038" x2="136.445" y1="1062.27" y2="1236.17" gradientUnits="userSpaceOnUse"><stop stop-color="#6500C1"/><stop offset=".583" stop-color="#D811A1"/><stop offset="1" stop-color="#F90"/></linearGradient><linearGradient id="x" x1="313.332" x2="329.016" y1="1251.93" y2="1431.28" gradientUnits="userSpaceOnUse"><stop stop-color="#1A0B2D"/><stop offset="1" stop-color="#17335B"/></linearGradient><linearGradient id="A" x1="500.626" x2="576.716" y1="1385.6" y2="1548.76" gradientUnits="userSpaceOnUse"><stop stop-color="#AA732B"/><stop offset="1" stop-color="#FFB402"/></linearGradient><linearGradient id="D" x1="722.543" x2="849.457" y1="1446.94" y2="1574.64" gradientUnits="userSpaceOnUse"><stop offset=".167" stop-color="#0086A1"/><stop offset=".802" stop-color="#00CCD6"/></linearGradient><linearGradient id="G" x1="1114.91" x2="951.746" y1="1505.22" y2="1429.13" gradientUnits="userSpaceOnUse"><stop stop-color="#9C7DDE"/><stop offset="1" stop-color="#5630B0"/></linearGradient><linearGradient id="J" x1="1161.15" x2="1340.5" y1="1333.76" y2="1349.45" gradientUnits="userSpaceOnUse"><stop offset=".104" stop-color="#072B61"/><stop offset=".76" stop-color="#3990CF"/></linearGradient><linearGradient id="N" x1="1325.24" x2="1499.28" y1="1172.25" y2="1126.19" gradientUnits="userSpaceOnUse"><stop offset=".125" stop-color="#6CB100"/><stop offset="1" stop-color="#9DFF00"/></linearGradient><linearGradient id="Q" x1="1424.42" x2="1571.89" y1="964.855" y2="861.586" gradientUnits="userSpaceOnUse"><stop stop-color="#4C8A0F"/><stop offset="1" stop-color="#81DA00"/></linearGradient><linearGradient id="T" x1="1446.52" x2="1549.79" y1="735.812" y2="588.342" gradientUnits="userSpaceOnUse"><stop offset=".149" stop-color="#C421B8"/><stop offset="1" stop-color="#00F0F2"/></linearGradient><linearGradient id="W" x1="1388.96" x2="1435.56" y1="513.027" y2="339.129" gradientUnits="userSpaceOnUse"><stop offset=".25" stop-color="#00A17E"/><stop offset="1" stop-color="#78E9D6"/></linearGradient><linearGradient id="Z" x1="1258.67" x2="1242.98" y1="323.363" y2="144.017" gradientUnits="userSpaceOnUse"><stop stop-color="#007FF5"/><stop offset="1" stop-color="#25C4FF"/></linearGradient><linearGradient id="ac" x1="1071.37" x2="995.284" y1="189.702" y2="26.535" gradientUnits="userSpaceOnUse"><stop/><stop offset="1" stop-color="#3F3F3F"/></linearGradient><clipPath id="a"><path fill="#fff" d="M722.3 128.208h127.3V.908H722.3z"/></clipPath><clipPath id="d"><path fill="#fff" d="m500.604 189.764 119.624-43.537L576.69 26.603 457.067 70.14z"/></clipPath><clipPath id="g"><path fill="#fff" d="m313.332 323.439 97.515-81.83-81.83-97.515-97.515 81.83z"/></clipPath><clipPath id="j"><path fill="#fff" d="m183.065 513.108 63.65-110.245-110.245-63.65-63.65 110.245z"/></clipPath><clipPath id="m"><path fill="#fff" d="m125.524 735.881 22.098-125.367-125.367-22.099L.156 713.782z"/></clipPath><clipPath id="p"><path fill="#fff" d="m147.634 964.914-22.099-125.367L.168 861.645l22.1 125.368z"/></clipPath><clipPath id="s"><path fill="#fff" d="m246.757 1172.57-63.65-110.245-110.245 63.65 63.65 110.245z"/></clipPath><clipPath id="v"><path fill="#fff" d="m410.926 1333.788-97.514-81.83-81.83 97.515 97.514 81.83z"/></clipPath><clipPath id="y"><path fill="#fff" d="m620.32 1429.117-119.623-43.537-43.537 119.624 119.623 43.537z"/></clipPath><clipPath id="B"><path fill="#fff" d="M849.7 1447.09H722.4v127.3h127.3z"/></clipPath><clipPath id="E"><path fill="#fff" d="m1071.4 1385.53-119.624 43.537 43.537 119.623 119.624-43.536z"/></clipPath><clipPath id="H"><path fill="#fff" d="m1258.695 1251.9-97.514 81.83 81.83 97.514 97.515-81.83z"/></clipPath><clipPath id="L"><path fill="#fff" d="m1388.94 1062.2-63.65 110.242 110.242 63.65 63.65-110.242z"/></clipPath><clipPath id="O"><path fill="#fff" d="m1446.511 839.443-22.098 125.368 125.367 22.099 22.099-125.368z"/></clipPath><clipPath id="R"><path fill="#fff" d="m1424.386 610.419 22.1 125.367 125.366-22.099-22.099-125.367z"/></clipPath><clipPath id="U"><path fill="#fff" d="m1325.281 402.786 63.65 110.245 110.245-63.65-63.65-110.245z"/></clipPath><clipPath id="X"><path fill="#fff" d="m1161.116 241.542 97.514 81.83 81.83-97.515-97.514-81.83z"/></clipPath><clipPath id="aa"><path fill="#fff" d="m951.695 146.196 119.624 43.537 43.537-119.624-119.624-43.537z"/></clipPath></defs></svg>