<svg xmlns="http://www.w3.org/2000/svg" width="1282" height="1285" fill="none"><g clip-path="url(#a)"><mask id="b" width="150" height="150" x="671" y="1" maskUnits="userSpaceOnUse" style="mask-type:luminance"><path fill="#fff" d="m797.146 150.222-125.162-23.245L695.229 1.815 820.391 25.06l-23.245 125.162z"/></mask><g mask="url(#b)"><path fill="url(#c)" d="M688.455 38.292c3.743-20.156 23.095-33.446 43.251-29.702l52.11 9.677c20.272 3.664 33.642 23.133 29.899 43.288l-9.678 52.11c-3.744 20.155-23.212 33.525-43.368 29.782l-52.11-9.678c-20.155-3.743-33.525-23.212-29.782-43.368l9.678-52.11z"/><path fill="#fff" fill-rule="evenodd" d="m698.583 73.026 11.313-8.884c3.264-2.242 6.676-.896 9.614.26 1.697.722 3.215 1.309 4.388 1.018 4.028-.88 37.408-26.719 37.408-26.719l-6.882-8.398s-34.615 25.916-38.345 28.478c-1.283.88-3.803.209-6.421-.48-3.011-.764-6.299-1.68-8.281-.318-3.731 2.562-9.786 7.235-9.786 7.235l6.992 7.808zm33.366 1.62L711.66 89.693l-6.992-7.808s13.626-10.387 17.258-12.967c1.982-1.361 5.405-.624 8.631.077 2.949.548 5.586 1.14 6.868.259C741.156 66.693 767.5 46.97 767.5 46.97l6.882 8.398s-22.613 17.16-27.043 20.202c-1.166.8-3.078.14-5.364-.691-3.172-.996-6.995-2.316-10.026-.235zm-7.213 31.716 29.259-21.723c3.031-2.082 6.658-.798 9.632.162 2.207.715 4.02 1.356 5.07.636 2.914-2.002 18.645-13.32 18.645-13.32l-6.882-8.398s-16.668 13.077-20.399 15.639c-1.748 1.2-4.465.493-7.298-.135s-5.531-1.434-7.396-.153c-3.731 2.562-27.044 20.202-27.044 20.202l6.413 7.09zm13.077 16.668 37.419-27.327c2.915-2.002 6.989-.94 10.376-.006 2.519.672 4.744 1.288 5.732.353 2.342-2.21 9.097-7.363 9.097-7.363l-6.882-8.398s-9.098 7.363-12.828 9.925c-1.399.96-4.116.253-6.93-.474-3.19-.897-6.497-1.715-8.478-.353-3.614 2.481-34.498 25.835-34.498 25.835l6.992 7.808z" clip-rule="evenodd"/></g></g><g clip-path="url(#d)"><mask id="e" width="148" height="148" x="472" y="0" maskUnits="userSpaceOnUse" style="mask-type:luminance"><path fill="#fff" d="M619.306 126.509 493.75 147.475 472.784 21.919 598.34.953l20.966 125.556z"/></mask><g mask="url(#e)"><path fill="url(#f)" d="M478.021 53.283c-2.898-17.358 8.768-33.703 26.127-36.601L566.976 6.19c17.358-2.898 33.703 8.768 36.601 26.127l10.492 62.827c2.898 17.359-8.768 33.704-26.127 36.602l-62.827 10.492c-17.359 2.898-33.703-8.768-36.602-26.127l-10.492-62.828z"/><path fill="#fff" d="M505.459 55.494c-.362-2.17.18-4.39 1.396-6.214 1.314-1.842 3.254-2.977 5.423-3.34 2.17-.361 4.39.18 6.215 1.396 1.841 1.315 2.976 3.254 3.339 5.424.362 2.17-.18 4.39-1.396 6.215-1.314 1.841-3.254 2.976-5.424 3.338-2.169.363-4.389-.18-6.214-1.395-1.727-1.232-2.96-3.155-3.339-5.424zm2.703 23.474a9.488 9.488 0 0 0-1.329 6.61c.395 2.367 1.645 4.388 3.405 5.818l-2.076-12.428zm20.086-10.856c-3.698 4.572-5.504 10.753-4.45 17.066.84 5.03 3.389 9.369 6.958 12.524l.527 3.156c.428 2.565-1.281 5.08-3.944 5.525l-9.37 1.565c-2.564.428-5.08-1.281-5.525-3.944l-.658-3.945c-5.968-1.74-10.754-6.72-11.857-13.329-1.515-9.074 4.647-17.706 13.721-19.221l4.734-.791c3.353-.56 6.789-.019 9.864 1.394zm40.613 26.471-.527-3.156c2.349-4.143 3.351-9.076 2.511-14.106-1.054-6.312-4.755-11.473-9.753-14.693 2.35-2.319 5.423-3.947 8.974-4.54l4.636-.774c9.074-1.516 17.706 4.646 19.221 13.72 1.104 6.609-1.804 12.873-6.883 16.458l.659 3.945c.428 2.565-1.28 5.08-3.943 5.525l-9.37 1.565c-2.68.346-5.097-1.38-5.525-3.944zm-6.887-48.526c-.362-2.17.18-4.39 1.396-6.215 1.314-1.841 3.254-2.976 5.423-3.338 2.17-.363 4.39.179 6.215 1.395 1.841 1.315 2.976 3.254 3.339 5.424.362 2.17-.18 4.39-1.396 6.214-1.314 1.842-3.254 2.977-5.424 3.34-2.169.361-4.389-.18-6.214-1.396-1.727-1.233-2.96-3.156-3.339-5.424zm21.542 20.328 2.075 12.428c1.199-1.924 1.725-4.242 1.33-6.61-.396-2.366-1.662-4.487-3.405-5.818zm-42.931-25.171c2.466-.412 5.096.163 7.168 1.642 2.072 1.478 3.454 3.68 3.882 6.245.428 2.565-.163 5.096-1.642 7.168a10.049 10.049 0 0 1-6.262 3.783c-2.466.412-5.096-.163-7.168-1.641-2.072-1.48-3.453-3.682-3.882-6.246-.428-2.565.163-5.096 1.642-7.168a10.049 10.049 0 0 1 6.262-3.783zm-5.05 42.004c.395 2.367 1.645 4.388 3.405 5.818l-2.075-12.427c-1.216 1.825-1.742 4.143-1.33 6.609zm20.069-9.739 2.075 12.428a9.483 9.483 0 0 0 1.33-6.61c-.395-2.366-1.662-4.487-3.405-5.818zm10.506 4.633c1.104 6.608-1.804 12.872-6.883 16.458l1.055 6.312c.428 2.564-1.281 5.08-3.944 5.525l-9.37 1.564c-2.564.429-5.08-1.28-5.525-3.943l-1.054-6.313c-5.968-1.74-10.753-6.72-11.857-13.328-1.515-9.074 4.647-17.707 13.721-19.222l4.734-.79c8.976-1.499 17.592 4.564 19.123 13.737z"/></g></g><g clip-path="url(#g)"><mask id="h" width="175" height="174" x="270" y="54" maskUnits="userSpaceOnUse" style="mask-type:luminance"><path fill="#fff" d="m444.085 165.056-110.814 62.645-62.645-110.815 110.815-62.644 62.644 110.814z"/></mask><g mask="url(#h)"><path fill="url(#i)" d="M286.275 144.568c-8.661-15.321-3.288-34.67 12.033-43.331l55.451-31.346c15.321-8.662 34.67-3.288 43.331 12.033l31.346 55.45c8.661 15.321 3.288 34.67-12.033 43.331l-55.451 31.347c-15.32 8.661-34.669 3.288-43.33-12.033l-31.347-55.451z"/><path fill="#fff" d="M335.642 98.396c-17.035 9.286-23.71 31.208-14.512 48.293 6.099 11.6 17.726 18.352 29.891 18.941.583.015 1.094-.503 1.022-1.037l-.872-18.001c-.087-2.593-1.688-5.019-3.989-6.245a12.408 12.408 0 0 1-4.902-4.81c-3.013-5.533-1.258-12.384 4.03-15.833 6.07-3.891 14.159-1.571 17.316 5.029 2.381 5.432.554 11.749-4.249 15.038l-.087.049c-2.165 1.454-3.516 3.941-3.38 6.62l.823 17.914c-.015.583.59 1.045 1.075.886 4.356-.625 8.58-2.094 12.584-4.357 17.013-9.732 23.018-31.621 13.373-48.683-9.509-17.024-31-23.139-48.123-13.804zm25.62 95.102a11.864 11.864 0 0 0 4.502-16.215 11.863 11.863 0 0 0-16.214-4.503 11.864 11.864 0 0 0-4.503 16.215c3.16 5.795 10.469 7.751 16.215 4.503z"/></g></g><g clip-path="url(#j)"><mask id="k" width="180" height="180" x="113" y="178" maskUnits="userSpaceOnUse" style="mask-type:luminance"><path fill="#fff" d="m292.618 261.205-82.707 96.774-96.774-82.707 82.707-96.774 96.774 82.707z"/></mask><g mask="url(#k)"><path fill="url(#l)" d="M141.341 299.376c-15.584-13.319-17.419-36.724-4.1-52.308l34.434-40.29c13.308-15.725 36.854-17.571 52.438-4.252l40.29 34.434c15.584 13.319 17.43 36.864 4.111 52.448l-34.434 40.291c-13.319 15.584-36.864 17.43-52.449 4.111l-40.29-34.434z"/><path fill="#fff" fill-rule="evenodd" d="M163.359 276.23c2.144-2.509 5.95-2.807 8.459-.663 1.976 1.689 2.609 4.335 1.723 6.603l23.49 20.076c2.642-3.399 4.633-6.96 5.918-10.465l-17.94-15.333c-2.103 1.229-4.815 1.016-6.791-.674-2.509-2.144-2.807-5.95-.663-8.459 2.144-2.509 5.95-2.807 8.459-.663 1.977 1.689 2.61 4.335 1.723 6.603l16.649 14.229c.937-4.33.812-8.646-.485-12.517-2.027.372-3.981-.113-5.577-1.478-2.889-2.469-3.307-6.904-.773-9.869.194-.228.389-.456.66-.619-3.55-10.006-.401-22.311 8.359-32.715l.325-.38 14.228-16.648a2.006 2.006 0 0 1 2.82-.221c.836.714.936 1.983.286 2.744l-.065.076-2.534 2.964 23.567 20.141c2.102-1.229 4.814-1.016 6.791.674 2.508 2.144 2.807 5.95.663 8.459-2.144 2.509-5.951 2.807-8.46.663-1.976-1.689-2.609-4.335-1.723-6.603l-23.566-20.141-7.602 8.895 23.566 20.14c2.103-1.228 4.815-1.015 6.791.674 2.509 2.144 2.807 5.95.663 8.459-2.144 2.509-5.95 2.807-8.459.663-1.977-1.689-2.609-4.335-1.723-6.603l-23.491-20.076c-2.641 3.399-4.632 6.96-5.918 10.465l17.941 15.333c2.103-1.229 4.815-1.016 6.791.673 2.509 2.144 2.807 5.951.663 8.46-2.144 2.509-5.951 2.807-8.459.663-1.977-1.689-2.61-4.335-1.724-6.603l-16.648-14.229c-.937 4.329-.812 8.646.485 12.517 2.092-.448 4.045.037 5.642 1.402 2.889 2.468 3.307 6.904.773 9.869-.195.228-.39.456-.66.619 3.55 10.006.401 22.311-8.359 32.715l-.325.38-14.229 16.648a2.005 2.005 0 0 1-2.819.221c-.837-.715-.936-1.983-.286-2.744l.065-.076 2.533-2.964-23.566-20.141c-2.102 1.229-4.814 1.016-6.791-.674-2.508-2.144-2.807-5.95-.663-8.459 2.144-2.509 5.951-2.807 8.46-.663 1.976 1.689 2.609 4.335 1.723 6.603l23.566 20.141 7.667-8.971-23.567-20.14c-2.102 1.228-4.814 1.015-6.791-.674-2.638-1.992-2.937-5.799-.792-8.307z" clip-rule="evenodd"/></g></g><g clip-path="url(#m)"><mask id="n" width="165" height="165" x="19" y="358" maskUnits="userSpaceOnUse" style="mask-type:luminance"><path fill="#fff" d="m183.168 403.372-44.632 119.216L19.32 477.957l44.63-119.216 119.217 44.631z"/></mask><g mask="url(#n)"><path fill="url(#o)" d="M54.064 490.964c-19.198-7.187-28.924-28.553-21.737-47.751l18.582-49.635c7.128-19.327 28.623-29.111 47.821-21.924l49.635 18.582c19.198 7.187 28.983 28.682 21.795 47.88l-18.582 49.635c-7.187 19.198-28.681 28.982-47.88 21.795l-49.634-18.582z"/><path fill="#fff" d="M57.76 424.332c-3.82 10.208-3.978 21.467-.368 31.788l20.93-55.909c-9.465 5.319-16.74 13.914-20.561 24.121zm86.908 32.536c3.786-10.114 4.003-21.245.451-31.437l-20.756 55.441c9.372-5.354 16.518-13.89 20.305-24.004zm-57.023-45.052 6.416-17.138c-3.054.458-6.026 1.268-8.882 2.334l-24.682 65.93c2.168 3.908 4.85 7.581 8.058 10.704l21.667-57.875-2.577-3.955zm15.958 30.105L87.475 485a44.18 44.18 0 0 0 11.319 1.996l13.883-37.086-2.612-3.861 16.619-44.39c-2.072-1.309-4.273-2.561-6.58-3.531l-16.408 43.828-.093-.035zm-4.911-12.836 12.656-33.808c-2.446-.595-4.998-.91-7.619-1.037l-31.134 83.161c3.08 2.327 6.3 4.28 9.882 5.835l18.827-50.29-2.612-3.861zm18.815 54.986 6.451-17.232-2.613-3.86 18.197-48.605c-1.652-2.433-3.502-4.621-5.517-6.656l-29.66 79.228c4.505-.342 8.906-1.258 13.142-2.875z"/></g></g><g clip-path="url(#p)"><mask id="q" width="129" height="129" x="0" y="573" maskUnits="userSpaceOnUse" style="mask-type:luminance"><path fill="#fff" d="m128.942 574.383-1.159 127.3-127.3-1.159 1.159-127.3 127.3 1.159z"/></mask><g mask="url(#q)"><path fill="url(#r)" d="M32.283 700.813c-17.6-.16-31.67-14.489-31.51-32.089l.58-63.7c.16-17.6 14.489-31.671 32.089-31.511l63.7.58c17.6.16 31.671 14.49 31.51 32.09l-.579 63.7c-.161 17.6-14.49 31.67-32.09 31.51l-63.7-.58z"/><path fill="#fff" fill-rule="evenodd" d="M34.563 637.129c.047-5.2-4.114-9.538-9.414-9.586-5.3-.049-9.539 4.213-9.586 9.413-.047 5.2 4.114 9.538 9.414 9.587 5.3.048 9.539-4.214 9.586-9.414zm45.025-24.292-.124 13.6-6.323 2.442-.156 17.2 6.277 2.558-.124 13.6-36.751-16.636.154-17 37.047-15.764zm-27.625 24.45 11.06 4.601.081-9-11.14 4.399zm52.387-9.024c5.2.048 9.46 4.387 9.413 9.587-.047 5.2-4.286 9.462-9.586 9.413-5.2-.047-9.461-4.386-9.414-9.586.047-5.2 4.286-9.462 9.587-9.414zM53.046 672.1c.048-5.2-4.113-9.538-9.413-9.586-5.3-.049-9.54 4.213-9.587 9.413-.047 5.2 4.114 9.538 9.414 9.587 5.3.048 9.539-4.214 9.586-9.414zm-8.78-79.186c5.2.047 9.461 4.386 9.414 9.586-.047 5.2-4.287 9.462-9.587 9.414-5.2-.048-9.46-4.387-9.413-9.587.047-5.2 4.386-9.461 9.586-9.413zm50.68 79.568c.048-5.2-4.113-9.539-9.413-9.587-5.2-.047-9.54 4.214-9.587 9.414-.047 5.2 4.114 9.538 9.414 9.586 5.3.048 9.539-4.213 9.586-9.413zm-8.78-79.187c5.2.047 9.461 4.387 9.414 9.587-.047 5.2-4.287 9.461-9.587 9.413-5.2-.047-9.46-4.386-9.413-9.586.047-5.2 4.386-9.461 9.586-9.414z" clip-rule="evenodd"/></g></g><g clip-path="url(#s)"><mask id="t" width="163" height="164" x="16" y="753" maskUnits="userSpaceOnUse" style="mask-type:luminance"><path fill="#fff" d="m136.472 753.632 42.455 120.018-120.019 42.455-42.455-120.018 120.019-42.455z"/></mask><g mask="url(#t)"><path fill="url(#u)" d="M93.886 903.732c-19.327 6.837-40.514-3.278-47.35-22.605L28.86 831.159c-6.965-19.389 3.21-40.703 22.538-47.54l49.968-17.675c19.328-6.837 40.642 3.338 47.479 22.666l17.675 49.968c6.837 19.328-3.338 40.642-22.666 47.479l-49.968 17.675z"/><path fill="#fff" fill-rule="evenodd" d="m53.58 858.162-.331.86-.849.3-.956-2.102 2.137.942zm46.777 25.778-.1-.283a12.755 12.755 0 0 0-.873-2.767c-.989-2.196-2.932-4.691-6.695-6.33-3.6-1.484-13.322-5.577-22.278-9.304-4.495-1.911-8.701-3.605-11.825-4.94-1.498-.637-2.869-1.213-3.729-1.545l-1.37-.576-.333.86-.754.267.067.189c.033.094.1.282.294.532.261.438.589 1.064 1.078 1.846a48.244 48.244 0 0 0 4.636 6.21c4.264 4.856 11.108 10.709 21.206 14.669 8.856 3.444 17.682 3.504 24.277 2.656 3.345-.44 6.085-1.091 8.037-1.57.976-.239 1.73-.506 2.296-.706l.566-.2.188-.067-.3-.848.3.848 2.324-.928-2.386-.747s-.128-.061-.222-.027c-.222-.028-.477-.15-.827-.238a92.462 92.462 0 0 1-2.707-1.058c-2.231-.908-4.878-2.093-6.865-3.512-.832-.554-1.576-1.458-2.271-3.122-.728-1.758-1.44-4.37-2.147-8.469-.49-2.584-1.74-5.219-3.14-7.375-1.399-2.157-3.203-3.959-4.829-4.657-5.421-2.431-16.547-7.194-26.268-11.287-4.878-2.093-9.373-4.004-12.719-5.366a174.815 174.815 0 0 0-3.984-1.667l-.893-.426c.054-2.247.562-5.609 1.23-8.816.581-2.857 1.322-5.559 1.832-7.118l.638.304c.988.394 2.392 1.064 4.112 1.728 3.473 1.424 8.096 3.395 12.812 5.333 9.372 4.004 19.35 8.219 21.197 8.944.988.393 2.209 1.446 3.375 2.943s2.055 3.411 2.311 5.335c.218 1.515.274 2.874.297 4.138.04.411.078.821.084 1.137.123 1.548.246 3.096.747 4.51 1.067 3.017 3.454 5.567 8.331 7.66 2.359.969 9.245 3.943 15.493 6.613 3.124 1.334 6.121 2.608 8.257 3.55a46.82 46.82 0 0 1 2.647 1.185l.987.393.333-.86-.333.86.478.15.438-.261c.937-.65 2.023-1.777 3.104-3.22 1.081-1.443 2.283-3.141 3.486-4.84 2.244-3.551 4.388-7.386 5.102-9.866l.271-.733-.732-.271c-2.775-1.246-8.99-3.821-15.843-6.701-2.358-.969-4.716-1.938-6.98-2.941-4.622-1.971-9.084-3.788-12.591-5.305-1.753-.759-3.251-1.396-4.272-1.883-1.243-.515-1.881-.82-2.17-1.036-2.175-1.352-3.824-3.315-4.57-6.021-.239-.976-.578-2.235-.89-3.716-.172-.788-.378-1.67-.55-2.457a413.7 413.7 0 0 1-.885-3.4c-.334-.943-.667-1.886-.995-2.512-1.238-2.002-3.837-5.75-7.727-7.45a906.831 906.831 0 0 0-11.347-4.791c-4.495-1.91-9.306-3.815-12.463-5.244 3.015-2.87 9.38-7.668 16.385-10.357a53.36 53.36 0 0 0 3.379 1.456c2.264 1.003 3.762 1.639 5.072 2.343 1.759 1.075 3.763 3.442 4.176 7.009l.04.41c.223 1.831.385 3.789.636 5.397.111.916.19 1.737.295 2.336.106.599.212 1.198.312 1.48.367 1.038 1.8 5.092 6.013 7.102 1.914.914 11.891 5.129 22.312 9.398l.987.393c10.199 4.242 20.653 8.606 24.671 10.368l1.276.609-.056-1.359c-.353-12.393-3.61-21-6.842-26.539-4.993-8.417-19.507-27.257-48.13-25.406l-.915.112.112.915c.168 2.274 1.09 4.282 2.229 6 1.199 1.592 2.648 2.989 4.018 3.565 3.091 1.24 13.74 5.853 23.717 10.068 4.971 2.06 9.627 4.126 13.228 5.61l5.482 2.304c2.528 5.046 4.841 12.184 5.302 21.885-4.749-2.032-14.216-6.003-23.299-9.791l-.988-.393c-10.454-4.364-20.304-8.517-22.218-9.431-3.574-1.706-4.774-5.1-5.108-6.043-.067-.189-.106-.599-.211-1.198-.106-.599-.184-1.42-.263-2.241-.156-1.642-.413-3.567-.636-5.397l-.039-.411c-.425-4.199-2.912-7.032-5.054-8.289-1.376-.892-3.096-1.557-5.488-2.62-1.021-.488-2.23-.908-3.507-1.518l-.383-.183-.377.134c-8.23 3.123-15.587 9.014-18.286 11.878l-.837.933 1.148.548c3.124 1.335 8.607 3.639 13.706 5.76 4.972 2.06 9.56 3.937 11.348 4.79 3.379 1.457 5.589 4.706 6.86 6.802.262.438.495 1.098.829 2.041.333.942.545 2.14.85 3.305l.518 2.363c.346 1.575.624 2.962.957 3.905.818 3.211 2.728 5.611 5.286 7.146.383.183 1.182.643 2.298 1.097 1.148.548 2.647 1.185 4.367 1.85 3.507 1.517 7.968 3.334 12.59 5.305l7.075 2.907a1626.707 1626.707 0 0 1 15.076 6.336c-.814 2.197-2.62 5.488-4.681 8.657-1.075 1.759-2.311 3.363-3.425 4.712a15.329 15.329 0 0 1-2.389 2.542l-.51-.243c-.639-.305-1.499-.637-2.647-1.186-2.231-.908-5.133-2.215-8.351-3.516-6.249-2.67-13.135-5.644-15.493-6.613-4.495-1.91-6.466-4.183-7.3-6.54-.433-1.226-.55-2.458-.673-4.005a16.423 16.423 0 0 0-.084-1.137 31.657 31.657 0 0 0-.364-4.327c-.262-2.241-1.346-4.403-2.612-6.183-1.232-1.686-2.775-3.049-4.113-3.531-1.847-.725-11.824-4.94-21.29-8.91-4.75-2.033-9.34-3.91-12.813-5.333a159.542 159.542 0 0 0-4.112-1.728l-1.498-.637-.332.86.332-.86-.86-.332-.332.86c-.543 1.464-1.495 4.771-2.252 8.328-.791 3.462-1.354 7.268-1.308 9.797l-.022.538.51.244.333-.86-.332.86.383.183c.255.122.604.21 1.115.454.988.393 2.264 1.002 3.984 1.667 3.346 1.362 7.84 3.273 12.718 5.366 9.688 3.998 20.78 8.667 26.202 11.098 1.149.549 2.63 2.04 4.091 4.069 1.366 2.063 2.516 4.414 2.906 6.716.802 4.065 1.486 6.9 2.248 8.752.794 1.946 1.732 3.099 2.981 3.931 2.209 1.446 5.017 2.786 7.247 3.695.511.243.988.393 1.465.542l-.471.167a47.935 47.935 0 0 1-7.721 1.564l-3.411.252zm-1.864.129a9.568 9.568 0 0 0-.74-2.39c-.855-1.819-2.476-4.004-5.822-5.366-3.507-1.517-13.323-5.577-22.185-9.337-4.494-1.911-8.7-3.605-11.824-4.94-1.021-.487-1.976-.786-2.742-1.152l.067.189a57.728 57.728 0 0 0 4.442 5.96c4.291 4.635 10.847 10.271 20.596 14.142 6.37 2.414 12.739 3.026 18.208 2.894zm41.73-73.952c-4.926-8.229-18.624-25.66-45.422-24.348.312 1.481.94 2.956 1.784 4.142 1.038 1.436 2.26 2.489 3.28 2.977 3.125 1.334 13.773 5.948 23.75 10.162 4.972 2.06 9.627 4.126 13.229 5.61l3.379 1.457z" clip-rule="evenodd"/></g></g><g clip-path="url(#v)"><mask id="w" width="180" height="180" x="106" y="919" maskUnits="userSpaceOnUse" style="mask-type:luminance"><path fill="#fff" d="m204.861 919.499 80.938 98.261-98.263 80.94-80.937-98.26 98.262-80.941z"/></mask><g mask="url(#w)"><path fill="url(#x)" d="M212.082 1078.48c-13.585 11.19-33.574 9.26-44.764-4.33l-40.501-49.17c-11.19-13.58-9.257-33.572 4.328-44.762l49.17-40.501c13.586-11.19 33.575-9.257 44.765 4.328l40.5 49.17c11.19 13.585 9.258 33.575-4.328 44.765l-49.17 40.5z"/><path fill="#fff" d="m141.083 1008.96 7.82 9.49 39.367-32.425-27.223 47.165 8.393 10.19 45.252-78.6-8.138-9.88-65.534 53.98.063.08zm81.734-34.159-45.252 78.599 7.693 9.34 2.161-1.78 43.79-75.97-8.392-10.189z"/></g></g><g clip-path="url(#y)"><mask id="z" width="175" height="176" x="261" y="1051" maskUnits="userSpaceOnUse" style="mask-type:luminance"><path fill="#fff" d="m325.857 1051.97 109.656 64.66-64.656 109.66-109.656-64.66 64.656-109.66z"/></mask><g mask="url(#z)"><path fill="url(#A)" d="M387.008 1198.89c-8.939 15.16-28.383 20.18-43.543 11.25l-54.871-32.36c-15.161-8.94-20.181-28.38-11.242-43.54l32.353-54.87c8.94-15.16 28.384-20.18 43.544-11.24l54.871 32.35c15.161 8.94 20.181 28.38 11.242 43.54l-32.354 54.87z"/><path fill="url(#B)" d="M387.008 1198.89c-8.939 15.16-28.383 20.18-43.543 11.25l-54.871-32.36c-15.161-8.94-20.181-28.38-11.242-43.54l32.353-54.87c8.94-15.16 28.384-20.18 43.544-11.24l54.871 32.35c15.161 8.94 20.181 28.38 11.242 43.54l-32.354 54.87z"/><path fill="#fff" fill-rule="evenodd" d="M333.036 1165.21a9.391 9.391 0 0 0-12.871 3.33 9.386 9.386 0 0 0 3.323 12.87 9.391 9.391 0 0 0 12.871-3.33c2.641-4.47 1.156-10.23-3.323-12.87zm40.277-68.31a9.392 9.392 0 0 0-12.872 3.33 9.387 9.387 0 0 0 3.323 12.87 9.388 9.388 0 0 0 12.871-3.32c2.591-4.4 1.157-10.23-3.322-12.88zm-13.709 73.07a9.391 9.391 0 0 1 12.871-3.33c4.479 2.64 5.964 8.4 3.323 12.87a9.391 9.391 0 0 1-12.871 3.33 9.386 9.386 0 0 1-3.323-12.87zm-47.118-38.81a9.388 9.388 0 0 0-12.871 3.32 9.387 9.387 0 0 0 3.323 12.87 9.388 9.388 0 0 0 12.871-3.32c2.677-4.34 1.243-10.18-3.323-12.87zm68.399 2.71a9.388 9.388 0 0 1 12.871-3.32 9.387 9.387 0 0 1 3.323 12.87 9.38 9.38 0 0 1-12.871 3.32 9.386 9.386 0 0 1-3.323-12.87zm-47.118-38.81a9.391 9.391 0 0 0-12.871 3.33 9.387 9.387 0 0 0 3.323 12.87 9.397 9.397 0 0 0 12.871-3.32c2.641-4.48 1.243-10.18-3.323-12.88zm1.594 37.86c-.501-.53-1.003-1.06-1.367-1.62-1.18-1.74-2.05-3.41-2.099-5.3-.049-1.89.298-3.66 1.365-5.46 1.168-1.99 2.563-3.37 4.151-4.29 1.725-.96 3.591-1.36 5.822-1.21 2.145.1 4.501 1.03 6.913 2.45l26.359 15.54L363.61 1149l-7.167 18.06-25.584-15.09c-2.067-1.22-3.637-2.49-4.645-4.13-1.109-1.47-1.619-3.16-1.769-4.87-.064-1.67.368-3.38 1.384-5.11.864-1.46 2.036-2.86 3.523-3.61 1.415-1.02 3.231-1.34 5.203-1.34.36-.02.583-.01.806.01zm24.736.77-10.681-6.3c-1.034-.61-1.961-.81-2.697-.54-.958.24-1.572.69-2.08 1.56-.508.86-.605 1.61-.358 2.57.197 1.05.871 1.68 1.904 2.28l9.734 5.74 4.178-5.31zm-8.612 13.03-8.097-4.77c-.431-.26-.963-.34-1.531-.56-.532-.08-1.131.15-1.369.36-.512.27-.766.71-1.071 1.22-.254.43-.336.97-.453 1.36.02.36.075.86.354 1.37.329.43.709.77 1.312 1.12l8.786 5.18 2.069-5.28z" clip-rule="evenodd"/></g></g><g clip-path="url(#C)"><mask id="D" width="150" height="149" x="461" y="1135" maskUnits="userSpaceOnUse" style="mask-type:luminance"><path fill="#fff" d="m484.854 1135.08 125.161 23.24-23.245 125.16-125.161-23.24 23.245-125.16z"/></mask><g mask="url(#D)"><path fill="url(#E)" d="M593.545 1247c-3.743 20.16-23.096 33.45-43.251 29.71l-52.11-9.68c-20.272-3.66-33.642-23.13-29.899-43.29l9.678-52.11c3.743-20.15 23.212-33.52 43.368-29.78l52.109 9.68c20.156 3.74 33.526 23.21 29.783 43.37l-9.678 52.1z"/><path fill="#fff" fill-rule="evenodd" d="m522.456 1253.53 40.17-14.2c.645-.19 1.246-.68 1.749-1.2.502-.52.827-1.17.955-1.86l3.634-19.56-42.49 15.19c-.663.29-1.468.24-2.156.11a5.075 5.075 0 0 1-1.974-.87l-9.825-8.44c-.695-.64-1.562-.9-2.465-.97-.903-.06-1.762.19-2.579.75l-9.111 6.34c-.485.42-.969.84-1.275 1.39-.307.55-.514 1.12-.544 1.83-.011.61.076 1.24.378 1.8.204.55.604 1.13 1.041 1.52l20.363 17.41c.517.5 1.187.73 1.973.87.689.13 1.413.06 2.156-.11zm12.634-91.02-25.374 9.02c-.331.14-.663.28-1.013.52a4.005 4.005 0 0 0-1.709 2.63c-.201 1.09.01 2.14.65 3.07l6.423 9.23c.481.7 1.293 1.26 2.141 1.62.867.26 1.788.23 2.648-.02l12.217-4.44c.662-.28 1.369-.25 2.156-.11.688.13 1.34.45 1.973.88l15.718 13.39c.517.51.918 1.09 1.201 1.75.284.66.353 1.39.109 2.16l-3.287 17.69 20.689-7.34 3.287-17.7c.128-.69.059-1.41-.108-2.15a5.263 5.263 0 0 0-1.201-1.75l-32.391-27.68c-.517-.51-1.187-.73-1.973-.88-.688-.13-1.413-.06-2.156.11z" clip-rule="evenodd"/></g></g><g clip-path="url(#F)"><mask id="G" width="148" height="148" x="662" y="1137" maskUnits="userSpaceOnUse" style="mask-type:luminance"><path fill="#fff" d="m662.694 1158.79 125.556-20.97 20.966 125.56-125.556 20.96-20.966-125.55z"/></mask><g mask="url(#G)"><path fill="url(#H)" d="M803.105 1226.79c3.377 20.22-10.262 39.32-30.481 42.7l-52.274 8.73c-20.301 3.49-39.523-10.23-42.899-30.45l-8.729-52.27c-3.377-20.22 10.344-39.45 30.563-42.82l52.274-8.73c20.219-3.38 39.441 10.34 42.817 30.56l8.729 52.28z"/><path fill="#fff" fill-rule="evenodd" d="m755.215 1216.23-8.993-53.85 18.641-3.11 9.042 54.14c.989 6.53.383 13.22-2.016 19.5-2.398 6.28-6.325 11.91-11.601 16.13-5.275 4.23-11.488 7.09-18.097 8.19-6.608 1.11-13.513.44-19.81-2.06a37.883 37.883 0 0 1-16.048-11.72 39.247 39.247 0 0 1-8.094-18.11c-1.021-6.72-.234-13.55 2.164-19.83 2.398-6.28 6.539-11.84 11.716-16.05l11.907 14.85c-2.679 2.17-4.749 4.95-5.948 8.09-1.2 3.14-1.626 6.65-1.066 10.01.56 3.35 1.909 6.57 4.063 9.15 2.171 2.68 4.934 4.65 8.189 5.93 3.14 1.2 6.642 1.53 10.012 1.07 3.353-.56 6.558-2.01 9.139-4.16a18.608 18.608 0 0 0 5.833-8.17c1.183-3.24 1.527-6.65.967-10zm-37.425-30.45c1.956-1.04 3.945-1.87 5.95-2.61l6.137 17.93c-1.052.38-2.104.76-3.024 1.31l-9.063-16.63zm25.183-4c-2.088-.36-4.258-.61-6.493-.64l-.192 18.89c1.118.01 2.154.15 3.288.26l3.397-18.51z" clip-rule="evenodd"/></g></g><g clip-path="url(#I)"><mask id="J" width="175" height="175" x="837" y="1057" maskUnits="userSpaceOnUse" style="mask-type:luminance"><path fill="#fff" d="m837.915 1120.24 110.814-62.64 62.641 110.81-110.811 62.65-62.644-110.82z"/></mask><g mask="url(#J)"><path fill="url(#K)" d="M993.117 1136.12c10.083 17.84 3.807 40.46-14.039 50.55l-46.136 26.08c-17.883 10.22-40.639 3.9-50.727-13.94l-26.081-46.14c-10.088-17.84-3.769-40.6 14.076-50.69l46.137-26.08c17.845-10.09 40.601-3.77 50.689 14.08l26.081 46.14z"/><path fill="#fff" fill-rule="evenodd" d="M901.792 1104c-22.285 12.6-30.156 40.94-17.558 63.23 12.598 22.28 40.94 30.15 63.225 17.56 22.285-12.6 30.155-40.94 17.558-63.23-12.598-22.28-40.94-30.15-63.225-17.56zm1.942 3.84c-20.196 11.42-27.397 37.09-15.931 57.37 11.466 20.28 37.17 27.35 57.366 15.93 20.195-11.42 27.347-37.17 15.93-57.36-11.416-20.2-37.17-27.35-57.365-15.94zm1.798 2.78c-18.629 10.53-25.213 34.24-14.682 52.87 10.531 18.63 34.24 25.21 52.869 14.68 18.629-10.53 25.213-34.24 14.682-52.87-10.531-18.63-34.24-25.21-52.869-14.68zm2.226 4.14c-16.453 9.3-22.242 30.15-12.942 46.6 9.301 16.45 30.149 22.24 46.601 12.94 16.453-9.3 22.242-30.15 12.942-46.6-9.301-16.45-30.149-22.24-46.601-12.94zm32.065 52.86-42.699-25.14-.087 5.33 38.173 22.42 4.613-2.61zm1.92-44.96-.345 42.46-43.305-25.6 4.613-2.61 10.898 6.48c2.88-.6 5.824-1.69 8.61-3.26a39.356 39.356 0 0 0 4.031-2.62l-.14 6.05c-.522.29-1.044.59-1.48.83-1.654.94-3.493 1.75-5.208 2.37l17.366 10.4.346-37.18 4.614 2.68zm-12.289 7.52-.15 19.04 4.614 2.67.251-32.88-4.613 2.61-.038.14c-2.676 4.61-6.514 8.39-11.475 11.19-3.134 1.77-6.476 2.97-9.939 3.55l6.184 3.63c2.112-.74 4.262-1.61 6.264-2.74 3.395-1.92 6.359-4.4 8.902-7.21z" clip-rule="evenodd"/></g></g><g clip-path="url(#L)"><mask id="M" width="180" height="180" x="989" y="927" maskUnits="userSpaceOnUse" style="mask-type:luminance"><path fill="#fff" d="m989.382 1024.09 82.708-96.771 96.77 82.711-82.7 96.77-96.778-82.71z"/></mask><g mask="url(#M)"><path fill="url(#N)" d="M1144.69 989.365c13.38 11.435 14.95 31.455 3.51 44.835l-41.38 48.42c-11.44 13.38-31.46 14.95-44.84 3.52l-48.42-41.39c-13.38-11.43-14.952-31.45-3.52-44.832l41.39-48.425c11.43-13.379 31.45-14.948 44.83-3.514l48.43 41.386z"/><path fill="#fff" d="m1077.73 1007.38 1.5.24c3.67.63 7.4 1.19 11.12 1.61 2.86.2 4.43 1.28 5.31 3.48 1.21 2.75 3.66 4.18 5.43 5.04 4.34 2 8.67 3.86 13.15 5.71 2.34.95 7.34 2.33 10.28 2.74 1.58.16 3.13.04 4.66-.37l-.45-1.17c-1.39.39-2.8.5-4.23.33-2.86-.34-7.79-1.66-9.99-2.62-4.48-1.85-8.81-3.71-13.07-5.64-2.57-1.15-4.11-2.59-4.81-4.38-1.13-2.67-3.08-3.94-6.37-4.25-3.64-.35-7.37-.91-10.9-1.56l-1.44-.31c-1.59-.3-2.53-1.5-2.44-3 .13-1.07.26-2.15.75-3.18.7-1.899.69-2.962-1.58-3.848-2.42-1.016-3.22-2.23-2.75-4.324l.16-.651-.71-.086c-1.65-.225-2.46-.517-2.61-1.569-.38-2.168-1.49-3.642-3.71-4.745-3.18-1.666-4.76-3.811-4.71-6.794.03-1.421.42-2.799 1.25-3.928.07-.076.52-.608 1.17-1.369-.16.651-.26 1.226-.2 1.931.06 4.393 2.63 6.461 4.45 8.02.08.065.16.13.31.26s.3.26.53.455c1.22 1.04 2.1 2.318 2.71 3.76.6 1.301 1.57 2.004 2.6 2.491.28 1.681 1.31 3.089 2.97 4.378.74.367 1.48.735 2.28 1.027 1.01.204 1.27.822 1.72 1.993.97 2.407 2.32 6.059 13.42 8.309.35.04.65.16.86.22 1.23.26 1.88.42 2.25.6.23.2.47.53.83 1.5.25.47.44 1.17.93 1.98.21.84 1.36 2.87 6.2 4.91 1.84.77 3.67 1.55 5.36 2.34 2.21.96 4.42 2.07 6.91 3.01 2.41.87 7.06 2.35 9.86 2.77l.14-.01.14-.01c.58.09 1.08.13 1.64.08l-.38-1.24c-.36-.05-.64-.02-1-.07-.07-.06-.22-.05-.22-.05-2.73-.5-7.23-1.85-9.64-2.72-2.35-.95-4.47-1.85-6.69-2.95l-.07-.07c-1.7-.79-3.47-1.64-5.44-2.41-4.69-1.9-5.41-3.83-5.57-4.1 0 0-.08-.07-.01-.14-.35-.83-.61-1.44-.86-1.92-.87-2.06-1.03-2.19-3.91-2.82-.22-.05-.58-.09-.87-.21-11.01-2.05-12.18-5.147-13.07-7.488-.45-1.171-.89-2.342-2.49-2.784-.21-.054-1.61-.725-1.77-.855-1.51-1.158-2.31-2.372-2.5-3.846l-.02-.282-.29-.119c-1.19-.617-1.93-1.126-2.28-1.949-.7-1.648-1.67-3.133-3.04-4.302l-.83-.715c-1.75-1.494-4.02-3.302-4.04-7.131-.02-1.204.45-2.517 1-3.624.18-.369.43-.814.69-1.118l.06-.077.07-.076c.06-.076.05-.217.18-.369l.52-.608c-.21.868-.35 1.801-.22 2.571.63 3.568 3.07 6.569 4.41 8.378l.16.13c.24.336.46.531.63.802 2.55 3.63 8.83 9.521 9.59 10.171 4.32 7.109 10.94 9.215 14.86 10.471 1.38.38 2.62.78 3.15 1.24 1.21.9 2.01 2.11 2.81 3.33.81 1.21 1.61 2.42 2.72 2.97.89.5 1.86 1.06 2.96 1.62 3.78 2.04 8.38 4.66 11.74 5.81 1.74.58 5.32 1.79 8.21 2.55l-.47-1.45c-2.61-.79-5.74-1.75-7.27-2.27-3.13-1.1-7.8-3.64-11.51-5.76-1.05-.63-2.15-1.18-3.04-1.68-.89-.5-1.53-1.44-2.26-2.59l-.08-.06c-.73-1.15-1.68-2.5-3.04-3.52-.68-.59-1.92-.99-3.52-1.431-4.07-1.241-10.18-3.174-14.33-10.012l-.08-.065-.07-.065c-.08-.065-6.95-6.335-9.44-10.041-.16-.271-.4-.607-.72-1.008-1.34-1.668-3.55-4.616-4.16-7.901-.22-.976.31-2.365.72-3.461l-2.38-.452c-.31.521-.63 1.042-.81 1.411-1.75 2.052-3.76 4.55-3.95 4.778-.95 1.422-1.47 2.952-1.48 4.655-.02 3.406 1.82 6.028 5.37 7.878 1.84.919 2.71 2.057 3 3.879.28 1.822 1.88 2.264 3.03 2.458-.33 3.005 1.75 4.26 3.58 5.038 1.54.66 1.49.877.96 2.266-.47 1.173-.67 2.323-.79 3.533-.31 2.37 1.11 4.1 3.27 4.5z"/><path fill="#fff" d="m1121.71 1011.17.45.25c.74.36 1.69.79 2.65 1.21l.48 1.59c-1.33-.6-2.65-1.21-3.68-1.7l-.45-.25c-5.23-2.49-14.38-7.03-16.74-9.96-2.75-3.403-5.4-4.614-8.35-6.085-3.54-1.708-7.58-3.59-13.22-9.461-.38-.325-.7-.725-1.15-1.115l-.31-.26c-2.24-2.307-5.31-5.329-6.91-7.615-2.21-2.947-3.75-6.232-4.74-9.842l1.37.247a29.46 29.46 0 0 0 4.38 8.877c1.59 2.146 4.52 5.179 6.76 7.486l.07.065c.55.595 1.08 1.05 1.39 1.451 5.41 5.676 9.46 7.557 12.93 9.201 3.09 1.46 5.81 2.736 8.73 6.411 1.7 1.85 7.65 5.36 16.34 9.5z"/><path fill="#fff" d="M1113.8 1000.72c-8.15-5.387-18.11-12.054-19.87-12.767-.07-.065-10.06-5.312-17.36-18.783l-1.5-.237a54.556 54.556 0 0 0 10.31 13.945c4.07 4.007 7.42 5.944 8.08 6.247 1.76.713 12.39 7.824 20.17 13.025 4.5 3.06 8.38 5.59 9.73 6.48l-.64-1.87c-1.8-1.13-4.72-3.1-8.01-5.26l-.91-.78z"/><path fill="#fff" d="m1081.17 969.944 1.81.355c.7.867 1.41 1.733 2.11 2.6 6.42 7.584 13.58 13.051 21.49 16.261 1.25.54 4.21 2.933 6.71 5.077l.16.13c1.29 1.105 2.5 2.144 3.1 2.523 1.35.887 2.63 1.851 3.9 2.673l.65 2.007c-.07-.07-.15-.13-.22-.2-.08-.06-.16-.13-.16-.13l-.59-.37c-1.43-.957-2.86-2.05-4.28-3.003-.67-.444-1.89-1.483-3.34-2.718-2.2-1.884-5.31-4.407-6.4-4.817-11.72-4.756-20.01-13.681-24.94-20.388zm28.52 15.426c2.05.832 3.67 2.478 5 4.006.93 1.061 1.99 1.971 3.14 2.945l.72 2.071-.07-.065c-.08-.065-.08-.065-.15-.13-1.44-1.093-3.17-2.447-4.58-4.039-1.17-1.397-2.71-2.979-4.61-3.681-7.76-3.08-14.77-9.198-20.27-15.221l2.08.333c7.81 8.254 14.42 12.062 18.74 13.781zm-11.4-12.37 2.38.452c4.48 3.692 8.6 6.56 12.13 8.128a6.51 6.51 0 0 1 1.71 1.071l.76 2.353c-.93-.921-1.92-1.765-3.02-2.317-3.98-1.816-8.71-5.205-13.96-9.687zm11.3 2.023c.53.454 1.14.974 1.75 1.494.45.39.99.845 1.52 1.299l-.82-2.276-.15-.13-2.3-.387zm-76.75 51.477.63 1.73c.96.56 1.93 1.12 2.9 1.68 8.49 5.16 15 11.38 19.41 18.7.73 1.15 3.55 3.69 6.06 5.84l.07.06c1.3 1.1 2.59 2.21 3.06 2.74 1.08 1.19 2.23 2.31 3.24 3.43l2.09.34c-.16-.13-.31-.26-.38-.33-1.32-1.38-2.77-2.76-4.1-4.29-.54-.59-1.76-1.63-3.2-2.87-2.21-1.88-5.18-4.56-5.76-5.57-6.52-10.84-16.63-17.64-24.02-21.46zm24.41 30.08c-1.71-1.07-3.59-2.42-4.73-4.31-2.37-4-7.09-9.87-16.46-16.3l-.65-2.01c6.8 4.5 13.86 10.4 18.19 17.66 1.06 1.69 2.78 2.9 4.36 3.98 1.79 1.14 3.4 2.64 4.7 3.89l.15.13-2.16-.4c-1.06-.91-2.2-1.88-3.4-2.64z"/><path fill="#fff" d="m1068.49 1054.21.54.59c2.64 2.92 5.04 5.5 6.44 7.09l1.94.34c-1.08-1.19-4.19-4.63-7.9-8.6l-.08-.06c-6.36-6.88-15.04-16.27-16.01-17.9-.33-.54-2.76-3.54-7.43-7.01-4.67-3.46-9.85-6.18-15.38-8.01l.46 1.45c14.45 5.11 21.19 14.16 21.26 14.22 1.27 1.75 9.49 10.61 16.16 17.89z"/><path fill="#fff" d="m1080.12 1060.6-.31-.4c-5.38-8.02-9.77-13.35-12-14.59-4.01-2.38-5.76-4.8-7.69-7.63-2.16-3.16-4.64-6.73-11.1-11.33-.52-.31-1.05-.77-1.65-1.14-2.55-1.79-6.02-4.36-8.52-5.58-2.96-1.47-6.16-2.49-9.45-2.95l-.32-1.32c3.64.35 7.2 1.42 10.46 3.15 2.51 1.23 6.05 3.86 8.67 5.71.68.44 1.13.83 1.65 1.14 6.68 4.66 9.17 8.36 11.41 11.59 1.85 2.77 3.52 5.12 7.31 7.3 3.19 1.81 9.09 10.14 12.38 14.92l.31.4c.64.95 1.45 2.16 2.25 3.37l-1.65-.22c-.64-.95-1.19-1.68-1.75-2.42z"/><path fill="#fff" d="m1069.75 1018.72-.47-1.46c-.73-2.07-2.66-3.19-4.83-2.81-1.18.31-2.35.75-3.37 1.33-1.36.81-1.5.82-2.39-.6-1.05-1.69-2.62-3.55-5.54-2.75-.38-1.25-1.05-2.62-2.9-2.61-1.84 0-3.03-.76-4.29-2.36-2.38-3.22-5.26-4.63-8.62-4.08-1.68.28-3.11 1.03-4.37 2.19-.2.23-2.35 2.59-4.1 4.65-.41.31-.81.63-1.34 1.09l.82 2.28c1.02-.58 2.31-1.31 3.31-1.25 3.34.09 6.53 1.9 8.45 2.88.44.25.81.44 1.11.55 4.06 2.03 11.39 7.76 11.39 7.76l.07.07.08.06c7.32 2.98 10.18 8.71 12.12 12.6.75 1.43 1.34 2.59 1.96 3.25 1.23 1.18 2.7 1.92 4.03 2.52 1.24.54 2.35 1.1 2.91 1.83.63.81 1.33 1.67 2.05 2.68l.08.06c2.67 3.34 5.83 7.49 7.48 10.48.75 1.43 2.33 4.36 3.38 6.83l1.5.24c-1.13-2.68-2.95-6.08-3.79-7.72-1.59-3.07-4.97-7.27-7.58-10.68-.78-.94-1.5-1.94-2.05-2.68-.72-1.01-2.04-1.61-3.37-2.22-1.32-.6-2.58-1.29-3.72-2.26-.53-.46-1.04-1.55-1.72-2.92-1.92-3.75-5.04-9.96-12.73-13.11-.76-.65-7.56-5.94-11.54-7.89-.29-.12-.66-.31-.97-.57l-.07-.06c-2.08-1.11-5.41-2.91-8.97-3.06-.78-.01-1.68.28-2.5.62l.52-.6c.06-.08.27-.17.33-.24l.07-.08.06-.07c.26-.31.66-.62 1-.86 1.08-.66 2.23-1.38 3.43-1.55 3.72-.5 5.92 1.38 7.67 2.88l.83.71c1.37 1.17 2.92 1.97 4.73 2.33 1 .2 1.62.86 2.28 1.94l.16.28.3.26c1.49-.05 2.81.56 4.19 1.87.17.27.97 1.48 1.12 1.61.62 1.58 1.85 1.84 3.14 2.02 2.45.52 5.7 1.19 9.39 11.18.1.35.18.56.35.83 1 2.83 1.15 2.96 3.32 3.5.51.17 1.23.26 2.03.55l.08.06c.35.05 2.31.53 4.92 4.87 1.05 1.69 2.11 3.38 3.22 4.99l.09.21c1.3 2.02 2.65 3.97 3.88 6.08 1.24 2.24 3.28 6.48 4.19 9.1.08.07.09.21.09.21.1.34.2.69.22.97l1.29.19c-.11-.49-.23-1.12-.34-1.61l-.01-.14-.01-.14c-.92-2.62-3.04-7.07-4.28-9.31-1.24-2.25-2.75-4.33-4.04-6.35-1.05-1.55-2.17-3.17-3.16-4.93-2.76-4.47-4.95-5.29-5.81-5.36-.8-.3-1.45-.46-1.95-.49l-.08-.06c-.94-.28-1.37-.39-1.6-.59-.31-.26-.5-.95-.95-2.12-.09-.21-.18-.55-.35-.83-3.95-10.61-7.77-11.37-10.3-11.96-1.22-.25-1.87-.42-2.23-1.38-.42-.75-.89-1.42-1.37-2.09-1.53-1.44-3.09-2.24-4.79-2.25-.64-.94-1.56-1.86-2.87-2.19-1.51-.38-2.99-1.11-4.13-2.09-.15-.13-.31-.26-.53-.45-.08-.07-.16-.13-.31-.26-1.82-1.56-4.34-3.84-8.61-3.16-.63.13-1.26.25-1.88.51.65-.76 1.04-1.22 1.17-1.37 1.06-.94 2.35-1.68 3.68-1.85 2.88-.44 5.31.72 7.45 3.6 1.44 2.02 3.06 2.88 5.27 2.92 1.06-.01 1.47.74 1.95 2.33l.2.69.7-.05c2-.8 3.32-.19 4.7 2.04 1.31 2.17 2.36 2.02 4.05.96.88-.56 1.98-.93 3.02-1.23 1.54-.26 2.88.49 3.36 2.08l.47 1.45.07.07c1.13 3.46 2.32 6.98 3.24 10.52.82 3.2 2.37 4.93 5.19 5.63 1.88.42 3.48 1.78 5.07 4.07 2.66 3.97 5.17 7.96 7.61 12.03 1.3 2.02 3.36 6.68 4.15 9.46.39 1.39.5 2.8.4 4.15l1.22.26c.16-1.57.04-3.12-.36-4.65-.8-2.92-2.94-7.64-4.31-9.74-2.52-4.12-5.04-8.11-7.69-12.09-1.12-1.61-2.86-3.89-5.82-4.58-2.39-.59-3.62-1.91-4.27-4.7-.92-3.69-2.13-7.35-3.33-10.87zm-30.48 26.57-.75-2.35c5.25 4.48 9.33 8.63 11.82 12.34.58 1.01 1.57 1.86 2.7 2.69l-2.45-.37c-.53-.46-.92-.92-1.32-1.53-2.18-3.31-5.51-6.95-10-10.78zm4.76 9.98-1.75-1.49.82 2.28.07.06 2.38.45c-.53-.45-1.06-.91-1.52-1.3z"/></g></g><g clip-path="url(#O)"><mask id="P" width="165" height="165" x="1098" y="762" maskUnits="userSpaceOnUse" style="mask-type:luminance"><path fill="#fff" d="m1098.83 881.925 44.63-119.217 119.22 44.632-44.63 119.216-119.22-44.631z"/></mask><g mask="url(#P)"><path fill="url(#Q)" d="M1227.94 794.333c19.19 7.187 28.92 28.553 21.73 47.751l-18.58 49.635c-7.13 19.326-28.62 29.111-47.82 21.924l-49.64-18.582c-19.19-7.187-28.98-28.682-21.79-47.88l18.58-49.635c7.19-19.198 28.68-28.982 47.88-21.795l49.64 18.582z"/><path fill="#fff" d="m1216.41 842.231 10.76-28.75a.896.896 0 0 0-.52-1.159l-35.68-13.358a.896.896 0 0 0-1.16.528l-5.86 15.639c-.17.469.06.983.53 1.159l15.64 5.855 2.53.946c.56.211.85.854.64 1.416l-4.2 11.238c-.18.468.05.983.52 1.159l15.64 5.855c.44.269.95.034 1.16-.528zm-38.54-29.379 5.85-15.639a.893.893 0 0 0-.53-1.159l-15.64-5.855a.903.903 0 0 0-1.16.528l-5.85 15.639c-.18.468.06.983.53 1.159l15.64 5.855c.43.269.98-.059 1.16-.528zm21.15 74.975-15.7 7.148c-.26.117-.48.141-.76.036l-47.67-17.846a.9.9 0 0 1-.53-1.158l5.89-15.733a.9.9 0 0 1 1.16-.528l41.3 15.462c.47.175 1.35.397 1.77-.727l5.68-15.171a1.115 1.115 0 0 0-.65-1.416l-41.58-15.567a.9.9 0 0 1-.53-1.158l5.86-15.64a.896.896 0 0 1 1.16-.527l59.09 22.123a.9.9 0 0 1 .53 1.158l-14.59 38.959c-.03.093-.1.281-.23.339.06.129-.07.188-.2.246z"/><path fill="#E60A7A" d="m1193.19 781.325-13.01 34.745c-3.08 8.241-12.22 12.401-20.46 9.315l-34.74-13.007 11.14-29.781c4.11-10.957 16.33-16.523 27.29-12.421l29.78 11.149z"/><mask id="R" width="46" height="44" x="1136" y="775" maskUnits="userSpaceOnUse" style="mask-type:luminance"><path fill="#fff" d="m1136.69 806.192 11.64-31.092 33.15 12.411-11.64 31.092-33.15-12.411z"/></mask><g fill="#fff" mask="url(#R)"><path d="M1168.6 800.521c-1.23 3.278-.65 6.59 1.22 7.291 1.87.701 4.48-1.418 5.71-4.696 1.23-3.278.65-6.59-1.22-7.291-1.87-.701-4.45 1.325-5.71 4.696zm-26.13-9.781c-1.22 3.277-.65 6.589 1.22 7.291 1.88.701 4.49-1.419 5.71-4.697 1.23-3.278.65-6.589-1.22-7.291-1.87-.701-4.45 1.325-5.71 4.697zm24.47-.342c2.18 2.738 5.4 3.836 6.93 2.595 1.57-1.335 1.06-4.518-1.22-7.291-2.17-2.738-5.39-3.836-6.93-2.594-1.56 1.335-.95 4.553 1.22 7.29zm-21.59 17.755c2.18 2.738 5.4 3.836 6.93 2.595 1.57-1.335 1.05-4.519-1.22-7.291-2.18-2.738-5.4-3.836-6.93-2.595-1.53 1.242-.96 4.554 1.22 7.291zm5.11-23.925c.31 2.036 3.4 3.193 6.93 2.595 3.44-.634 6.02-2.661 5.71-4.697-.3-2.036-3.39-3.193-6.93-2.594-3.5.505-6.11 2.625-5.71 4.696zm4.57 27.443c.31 2.036 3.4 3.193 6.93 2.595 3.44-.634 6.01-2.661 5.71-4.697-.31-2.036-3.4-3.193-6.93-2.594-3.44.634-6.05 2.753-5.71 4.696z"/></g></g></g><g clip-path="url(#S)"><mask id="T" width="129" height="130" x="1153" y="583" maskUnits="userSpaceOnUse" style="mask-type:luminance"><path fill="#fff" d="m1153.06 710.915 1.16-127.3 127.3 1.158-1.16 127.3-127.3-1.158z"/></mask><g mask="url(#T)"><path fill="url(#U)" d="M1244.42 584.436c20.5.186 36.95 16.937 36.76 37.437l-.48 53c-.09 20.601-16.94 37.149-37.44 36.963l-53-.483c-20.5-.186-37.05-17.038-36.86-37.538l.48-53c.18-20.5 17.04-37.048 37.54-36.862l53 .483z"/><path fill="#fff" d="M1263.74 648.317a48.69 48.69 0 0 0-9.73-29.591c-6.43-8.559-15.47-14.742-25.75-17.736-10.27-2.994-21.27-2.494-31.31 1.315a48.53 48.53 0 0 0-24.08 19.883c-1.12 1.89-1.74 3.984-1.76 6.184v.2c-.02 1.6.27 3.203.86 4.609.58 1.505 1.47 2.813 2.56 3.923 1.09 1.11 2.48 2.023 3.88 2.636 1.49.613 3.09.928 4.69.942l22.4.204c.1.001.2-.098.3-.097.1-.099.1-.199.1-.299l.07-7.3c.01-.9.12-1.799.52-2.695.31-.898.82-1.593 1.53-2.287.6-.694 1.41-1.187 2.31-1.579.9-.392 1.8-.484 2.7-.475.9.008 1.8.216 2.7.524.9.408 1.59.915 2.29 1.621.59.706 1.08 1.41 1.47 2.314.3.903.49 1.804.48 2.704l-.27 29.3c-.01.9-.11 1.799-.52 2.696-.31.897-.82 1.593-1.52 2.286-.61.695-1.41 1.187-2.32 1.579-.9.392-1.8.484-2.7.476-.9-.009-1.8-.217-2.7-.525a7.322 7.322 0 0 1-2.28-1.621c-.6-.705-1.09-1.51-1.48-2.313-.29-.903-.49-1.805-.48-2.705l.07-7.4c0-.1-.1-.201-.1-.301-.1-.101-.2-.102-.3-.103l-22.4-.204c-3.2-.029-6.31 1.243-8.63 3.522-2.32 2.279-3.65 5.267-3.68 8.467v.2c-.02 2.2.56 4.306 1.75 6.117 5.51 9.151 13.75 16.226 23.71 20.317 9.97 3.991 20.86 4.691 31.29 1.885 10.33-2.806 19.48-8.823 26.06-17.264a48.42 48.42 0 0 0 10.27-29.409zm-58.49-35.135c.02-1.5.53-3.096 1.34-4.288.91-1.292 2.12-2.281 3.53-2.869 1.4-.587 3-.672 4.5-.359 1.5.314 2.89 1.027 3.98 2.137 1.09 1.11 1.78 2.516 2.07 4.019.28 1.503.07 3.101-.45 4.496-.61 1.395-1.62 2.586-2.93 3.474-1.31.888-2.81 1.274-4.41 1.26-2.1-.019-4.09-.837-5.48-2.35-1.29-1.412-2.17-3.42-2.15-5.52zm23.09 34.813c.02-2.4.74-4.694 2.06-6.682 1.32-1.988 3.23-3.471 5.54-4.45 2.21-.88 4.71-1.157 7.01-.636 2.39.522 4.48 1.641 6.17 3.356 1.68 1.716 2.86 3.827 3.24 6.23.48 2.305.16 4.802-.76 6.994s-2.54 4.077-4.55 5.359a12.592 12.592 0 0 1-6.82 1.938c-3.2-.029-6.29-1.357-8.57-3.678-2.08-2.119-3.35-5.231-3.32-8.431zm-23.72 34.287c.02-1.5.53-2.996 1.34-4.288.91-1.292 2.12-2.281 3.53-2.869 1.4-.587 3-.672 4.5-.359 1.5.314 2.89 1.027 3.98 2.137 1.09 1.11 1.78 2.516 2.07 4.019.28 1.503.07 3.101-.54 4.495-.62 1.395-1.63 2.586-2.94 3.474-1.3.888-2.81 1.275-4.41 1.26-2.1-.019-4.09-.837-5.48-2.35-1.18-1.511-2.07-3.519-2.05-5.519z"/></g></g><g clip-path="url(#V)"><mask id="W" width="163" height="163" x="1103" y="369" maskUnits="userSpaceOnUse" style="mask-type:luminance"><path fill="#fff" d="m1145.53 531.665-42.46-120.018 120.02-42.455 42.46 120.019-120.02 42.454z"/></mask><g mask="url(#W)"><path fill="url(#X)" d="M1188.11 381.565c19.33-6.837 40.52 3.278 47.35 22.605l17.68 49.968c6.96 19.389-3.21 40.703-22.54 47.54l-49.97 17.675c-19.32 6.837-40.64-3.338-47.48-22.666l-17.67-49.968c-6.84-19.328 3.34-40.642 22.67-47.478l49.96-17.676z"/><path fill="#fff" fill-rule="evenodd" d="M1224.84 430.205c2.64-.934 5.45.407 6.38 3.047.47 1.32.43 2.712-.12 3.861a4.6 4.6 0 0 1-2.83 2.803c-1.03.367-2.11.323-3.19-.036l-53.51 62.843c.19.25.29.533.39.816.94 2.639-.4 5.447-3.04 6.381-2.64.934-5.45-.407-6.39-3.046-.7-1.98-.1-4.205 1.45-5.499l-27.58-77.969c-2.02-.027-3.85-1.29-4.58-3.364-.93-2.64.41-5.448 3.05-6.382 2.64-.934 5.44.407 6.38 3.047.03.094.1.282.13.377l80.62 15.608c.59-1.054 1.52-2.02 2.84-2.487zm-2.62 7.607-53.44 62.717c-.48-.15-.92-.205-1.46-.227l-27.58-77.969c.5-.389.93-.966 1.27-1.51l80.71 15.575c.04.094.07.189.1.283.1.283.27.754.4 1.131zm-50.08 40.736-14.94-42.237 43.79 8.057-28.85 34.18z" clip-rule="evenodd"/></g></g><g clip-path="url(#Y)"><mask id="Z" width="180" height="180" x="996" y="186" maskUnits="userSpaceOnUse" style="mask-type:luminance"><path fill="#fff" d="m1077.14 365.798-80.939-98.263 98.259-80.937 80.94 98.263-98.26 80.937z"/></mask><g mask="url(#Z)"><path fill="url(#aa)" d="M1069.92 206.816c13.58-11.19 33.57-9.257 44.76 4.328l40.5 49.17c11.19 13.586 9.26 33.575-4.33 44.765l-49.17 40.501c-13.58 11.19-33.57 9.257-44.76-4.328l-40.5-49.17c-11.19-13.586-9.26-33.575 4.33-44.765l49.17-40.501z"/><path fill="#fff" d="m1086.71 255.044-6.64 5.468 6.49 7.873 6.63-5.468-6.48-7.873zm13.35 16.21-6.64 5.468 6.49 7.873 6.64-5.468-6.49-7.873zm-13.35-16.21-6.64 5.468 6.49 7.873 6.63-5.468-6.48-7.873zm13.35 16.21-6.64 5.468 6.49 7.873 6.64-5.468-6.49-7.873zm-13.35-16.21-6.64 5.468 6.49 7.873 6.63-5.468-6.48-7.873zm13.35 16.21-6.64 5.468 6.49 7.873 6.64-5.468-6.49-7.873zm.75 34.883-7.47.841 5.28 6.407 2.19-7.248zm0 0-7.47.841 5.28 6.407 2.19-7.248zm-14.1-51.093-6.64 5.468 6.49 7.873 6.63-5.468-6.48-7.873zm13.35 16.21-6.64 5.468 6.49 7.873 6.64-5.468-6.49-7.873zm-28.24-.316-7.47.841 5.27 6.407 2.2-7.248zm14.89-15.894-6.64 5.468 6.49 7.873 6.63-5.468-6.48-7.873zm13.35 16.21-6.64 5.468 6.49 7.873 6.64-5.468-6.49-7.873zm.75 34.883-7.47.841 5.28 6.407 2.19-7.248zm0 0-7.47.841 5.28 6.407 2.19-7.248zm-14.1-51.093-6.64 5.468 6.49 7.873 6.63-5.468-6.48-7.873zm-14.89 15.894-7.47.841 5.27 6.407 2.2-7.248zm28.24.316-6.64 5.468 6.49 7.873 6.64-5.468-6.49-7.873zm-26.84-46.429-35.35 29.12 60.72 73.716 35.35-29.119-60.72-73.717zm27.25 40.003 12.46 15.13-13.43 11.062-12.46-15.129 13.43-11.063zm-27.85-33.809 2.23 2.702-1.28 10.249 10.37.789 2.22 2.702-13.43 11.062-2.99-3.627 7.18-5.913-8.61-.549 1.05-8.637-7.18 5.913-2.99-3.628 13.43-11.063zm-16.99 37.573-11.7-14.203 3.48-2.861 8.71 10.575 1-.826-7.1-11.77 7.33-6.04 11.57 14.049-3.39 2.797-8.59-10.42-1.08.89 7.11 11.769-7.34 6.04zm14.5 17.6-13.54-16.442 2.62-2.162 16.66-1.799 1.78 2.161-4.96 16.003-2.56 2.239zm16.02-11.381-12.46-15.13 13.43-11.063 12.46 15.13-13.43 11.063zm-1.46 29.057-2.99-3.628 7.18-5.913-8.61-.548 1.04-8.637-7.18 5.913-2.98-3.628 13.43-11.063 2.22 2.701-1.21 10.327 10.24.634 2.23 2.702-13.37 11.14zm29.2-22.753 2.28 2.779-.91 14.618 7.72-6.358 2.99 3.627-13.44 11.063-2.28-2.778.83-14.554-7.64 6.294-2.99-3.628 13.44-11.063zm-14.7 40.352-13.61-16.518 2.62-2.162 16.66-1.8 1.78 2.162-4.96 16.002-2.49 2.316zm-5.85-14.489 5.28 6.407 2.19-7.248-7.47.841zm.08-30.256 6.49 7.873 6.64-5.468-6.49-7.873-6.64 5.468zm-.23-13.805-6.48-7.873-6.64 5.468 6.49 7.873 6.63-5.468zm6.87 8.337-6.64 5.468 6.49 7.873 6.64-5.468-6.49-7.873zm-13.35-16.21-6.64 5.468 6.49 7.873 6.63-5.468-6.48-7.873zm14.1 51.093-7.47.841 5.28 6.407 2.19-7.248zm-.75-34.883-6.64 5.468 6.49 7.873 6.64-5.468-6.49-7.873zm-13.35-16.21-6.64 5.468 6.49 7.873 6.63-5.468-6.48-7.873zm13.35 16.21-6.64 5.468 6.49 7.873 6.64-5.468-6.49-7.873zm-13.35-16.21-6.64 5.468 6.49 7.873 6.63-5.468-6.48-7.873zm0 0-6.64 5.468 6.49 7.873 6.63-5.468-6.48-7.873zm0 0-6.64 5.468 6.49 7.873 6.63-5.468-6.48-7.873z"/></g></g><g clip-path="url(#ab)"><mask id="ac" width="175" height="175" x="846" y="59" maskUnits="userSpaceOnUse" style="mask-type:luminance"><path fill="#fff" d="m956.143 233.323-109.656-64.656 64.656-109.656 109.657 64.655-64.657 109.657z"/></mask><g mask="url(#ac)"><path fill="url(#ad)" d="M894.992 86.403c8.939-15.16 28.383-20.18 43.543-11.241l54.871 32.353c15.164 8.939 20.184 28.383 11.244 43.544l-32.355 54.871c-8.94 15.161-28.384 20.18-43.544 11.241l-54.871-32.353c-15.161-8.939-20.181-28.383-11.242-43.544l32.354-54.87z"/><path fill="#fff" fill-rule="evenodd" d="M948.964 120.084a9.389 9.389 0 0 0 12.871-3.323 9.388 9.388 0 0 0-3.323-12.871 9.388 9.388 0 0 0-12.871 3.323 9.389 9.389 0 0 0 3.323 12.871zm-40.277 68.309a9.39 9.39 0 0 0 12.872-3.323 9.389 9.389 0 0 0-3.323-12.871 9.388 9.388 0 0 0-12.871 3.323c-2.591 4.393-1.157 10.23 3.322 12.871zm13.709-73.062a9.388 9.388 0 0 1-12.871 3.323 9.389 9.389 0 0 1-3.323-12.871 9.388 9.388 0 0 1 12.871-3.323 9.388 9.388 0 0 1 3.323 12.871zm47.118 38.81a9.389 9.389 0 0 0 12.871-3.323 9.389 9.389 0 0 0-3.323-12.871 9.388 9.388 0 0 0-12.871 3.323c-2.677 4.342-1.243 10.179 3.323 12.871zm-68.399-2.717a9.389 9.389 0 0 1-12.871 3.323 9.39 9.39 0 0 1-3.323-12.872 9.388 9.388 0 0 1 12.871-3.322 9.388 9.388 0 0 1 3.323 12.871zm47.118 38.81a9.389 9.389 0 0 0 12.871-3.323 9.39 9.39 0 0 0-3.323-12.872 9.389 9.389 0 0 0-12.871 3.323c-2.641 4.479-1.243 10.18 3.323 12.872zm-1.594-37.856c.501.528 1.003 1.056 1.367 1.619 1.18 1.74 2.05 3.414 2.099 5.301.049 1.886-.298 3.655-1.365 5.464-1.168 1.981-2.563 3.364-4.151 4.285-1.725.956-3.591 1.365-5.822 1.211-2.145-.104-4.501-1.029-6.913-2.451l-26.359-15.542 12.895-15.963 7.167-18.062 25.584 15.084c2.067 1.219 3.637 2.494 4.645 4.132 1.109 1.467 1.619 3.161 1.769 4.874.064 1.664-.368 3.382-1.384 5.105-.864 1.464-2.036 2.862-3.523 3.611-1.415 1.023-3.231 1.345-5.203 1.343-.36.02-.583.005-.806-.011zm-24.736-.77 10.681 6.298c1.034.609 1.961.808 2.697.545.958-.248 1.572-.698 2.08-1.56.508-.861.605-1.616.358-2.575-.197-1.045-.871-1.674-1.904-2.283l-9.734-5.74-4.178 5.315zm8.612-13.032 8.097 4.774c.431.254.963.336 1.531.555.532.081 1.131-.146 1.369-.354.512-.278.766-.709 1.071-1.226.254-.431.336-.963.453-1.358-.02-.36-.075-.857-.354-1.369-.329-.427-.709-.767-1.312-1.122l-8.786-5.181-2.069 5.281z" clip-rule="evenodd"/></g></g><defs><linearGradient id="c" x1="797.206" x2="695.286" y1="150.184" y2="1.772" gradientUnits="userSpaceOnUse"><stop stop-color="#007418"/><stop offset="1" stop-color="#09C96A"/></linearGradient><linearGradient id="f" x1="619.35" x2="472.822" y1="126.453" y2="21.86" gradientUnits="userSpaceOnUse"><stop stop-color="#D43079"/><stop offset="1" stop-color="#F93C90"/></linearGradient><linearGradient id="i" x1="444.107" x2="270.642" y1="164.989" y2="116.817" gradientUnits="userSpaceOnUse"><stop stop-color="#453B4F"/><stop offset=".827" stop-color="#736284"/></linearGradient><linearGradient id="l" x1="292.615" x2="113.129" y1="261.134" y2="275.201" gradientUnits="userSpaceOnUse"><stop offset=".156" stop-color="#C40060"/><stop offset=".825" stop-color="#EE198B"/></linearGradient><linearGradient id="o" x1="183.141" x2="19.287" y1="403.306" y2="477.894" gradientUnits="userSpaceOnUse"><stop stop-color="#0B294C"/><stop offset="1" stop-color="#165BAB"/></linearGradient><linearGradient id="r" x1="128.895" x2=".431" y1="574.33" y2="700.476" gradientUnits="userSpaceOnUse"><stop stop-color="#D43079"/><stop offset="1" stop-color="#F93C90"/></linearGradient><linearGradient id="u" x1="136.409" x2="58.843" y1="753.598" y2="916.077" gradientUnits="userSpaceOnUse"><stop stop-color="#501FE9"/><stop offset="1" stop-color="#7C55F7"/></linearGradient><linearGradient id="x" x1="204.791" x2="187.465" y1="919.489" y2="1098.7" gradientUnits="userSpaceOnUse"><stop offset=".183" stop-color="#3B6E5A"/><stop offset="1" stop-color="#72F6C7"/></linearGradient><linearGradient id="A" x1="325.787" x2="370.79" y1="1051.99" y2="1226.31" gradientUnits="userSpaceOnUse"><stop stop-color="#D43079"/><stop offset="1" stop-color="#F93C90"/></linearGradient><linearGradient id="B" x1="325.787" x2="370.79" y1="1051.99" y2="1226.31" gradientUnits="userSpaceOnUse"><stop/><stop offset="1" stop-color="#3F3F3F"/></linearGradient><linearGradient id="E" x1="484.794" x2="586.714" y1="1135.11" y2="1283.52" gradientUnits="userSpaceOnUse"><stop stop-color="#E37300"/><stop offset="1" stop-color="#FFA047"/></linearGradient><linearGradient id="H" x1="662.65" x2="809.177" y1="1158.84" y2="1263.44" gradientUnits="userSpaceOnUse"><stop stop-color="#C517B6"/><stop offset="1" stop-color="#FA62EA"/></linearGradient><linearGradient id="K" x1="990.448" x2="858.803" y1="1117.43" y2="1171.36" gradientUnits="userSpaceOnUse"><stop stop-color="#F80059"/><stop offset="1" stop-color="#665AFF"/></linearGradient><linearGradient id="N" x1="989.384" x2="1168.87" y1="1024.16" y2="1010.1" gradientUnits="userSpaceOnUse"><stop stop-color="#001BC4"/><stop offset="1" stop-color="#3F59FF"/></linearGradient><linearGradient id="Q" x1="1098.86" x2="1262.71" y1="881.991" y2="807.403" gradientUnits="userSpaceOnUse"><stop stop-color="#522EB5"/><stop offset=".277" stop-color="#7E25BC"/><stop offset=".505" stop-color="#4E53D2"/><stop offset="1" stop-color="#00D8FF"/></linearGradient><linearGradient id="U" x1="1152.91" x2="1281.76" y1="710.771" y2="585.018" gradientUnits="userSpaceOnUse"><stop offset=".151" stop-color="#1752FA"/><stop offset=".385" stop-color="#D41DCC"/><stop offset=".615" stop-color="#FB076B"/><stop offset=".854" stop-color="#FF7D14"/></linearGradient><linearGradient id="X" x1="1145.59" x2="1223.16" y1="531.699" y2="369.22" gradientUnits="userSpaceOnUse"><stop stop-color="#1B4FD2"/><stop offset="1" stop-color="#00ADF1"/></linearGradient><linearGradient id="aa" x1="1077.21" x2="1094.53" y1="365.808" y2="186.601" gradientUnits="userSpaceOnUse"><stop stop-color="#7515FF"/><stop offset=".344" stop-color="#7515FF"/><stop offset="1" stop-color="#66C8FF"/></linearGradient><linearGradient id="ad" x1="956.213" x2="911.21" y1="233.308" y2="58.99" gradientUnits="userSpaceOnUse"><stop stop-color="#D43079"/><stop offset="1" stop-color="#F93C90"/></linearGradient><clipPath id="a"><path fill="#fff" d="m671.969 126.974 125.16 23.244 23.244-125.16-125.16-23.244z"/></clipPath><clipPath id="d"><path fill="#fff" d="m493.76 147.479 125.561-20.967L598.354.951 472.793 21.917z"/></clipPath><clipPath id="g"><path fill="#fff" d="m333.285 227.71 110.818-62.647-62.647-110.818-110.818 62.646z"/></clipPath><clipPath id="j"><path fill="#fff" d="m209.907 357.974 82.707-96.772-96.772-82.707-82.707 96.772z"/></clipPath><clipPath id="m"><path fill="#fff" d="M138.536 522.598 183.17 403.38 63.95 358.746 19.318 477.965z"/></clipPath><clipPath id="p"><path fill="#fff" d="m127.783 701.683 1.158-127.3-127.3-1.158-1.158 127.3z"/></clipPath><clipPath id="s"><path fill="#fff" d="M178.916 873.613 136.465 753.6 16.45 796.052l42.452 120.013z"/></clipPath><clipPath id="v"><path fill="#fff" d="m285.79 1017.716-80.935-98.259-98.26 80.935 80.936 98.26z"/></clipPath><clipPath id="y"><path fill="#fff" d="m435.52 1116.665-109.656-64.658-64.658 109.658 109.657 64.657z"/></clipPath><clipPath id="C"><path fill="#fff" d="m610.002 1158.293-125.16-23.244-23.244 125.16 125.16 23.244z"/></clipPath><clipPath id="F"><path fill="#fff" d="m788.264 1137.844-125.562 20.967 20.967 125.562 125.561-20.967z"/></clipPath><clipPath id="I"><path fill="#fff" d="m948.77 1057.64-110.819 62.648 62.647 110.818 110.818-62.647z"/></clipPath><clipPath id="L"><path fill="#fff" d="m1072.073 927.31-82.707 96.772 96.772 82.707 82.707-96.773z"/></clipPath><clipPath id="O"><path fill="#fff" d="m1143.477 762.726-44.633 119.219 119.219 44.633 44.633-119.219z"/></clipPath><clipPath id="S"><path fill="#fff" d="m1154.22 583.615-1.158 127.3 127.3 1.158 1.158-127.3z"/></clipPath><clipPath id="V"><path fill="#fff" d="m1103.022 411.633 42.452 120.014 120.013-42.452-42.452-120.013z"/></clipPath><clipPath id="Y"><path fill="#fff" d="m996.16 267.521 80.935 98.26 98.259-80.936-80.935-98.259z"/></clipPath><clipPath id="ab"><path fill="#fff" d="m846.51 168.675 109.658 64.658 64.658-109.657-109.658-64.658z"/></clipPath></defs></svg>